SplineFontDB: 3.0
FontName: Esteban
FullName: Esteban
FamilyName: Esteban
Weight: Book
Copyright: Copyright (c) 2011, Angelica Diaz Rivera (www.typereview.wordpress.com), with Reserved Font Name "Esteban"
Version: 1.002
ItalicAngle: 0
UnderlinePosition: -50
UnderlineWidth: 50
Ascent: 800
Descent: 200
sfntRevision: 0x00010083
LayerCount: 2
Layer: 0 1 "Back"  1
Layer: 1 1 "Fore"  0
XUID: [1021 742 1191222860 1808939]
FSType: 0
OS2Version: 2
OS2_WeightWidthSlopeOnly: 0
OS2_UseTypoMetrics: 1
CreationTime: 1325880147
ModificationTime: 1325881673
PfmFamily: 17
TTFWeight: 400
TTFWidth: 5
LineGap: 0
VLineGap: 0
Panose: 2 0 0 0 0 0 0 0 0 0
OS2TypoAscent: 184
OS2TypoAOffset: 1
OS2TypoDescent: -90
OS2TypoDOffset: 1
OS2TypoLinegap: 0
OS2WinAscent: 0
OS2WinAOffset: 1
OS2WinDescent: 0
OS2WinDOffset: 1
HheadAscent: 0
HheadAOffset: 1
HheadDescent: 0
HheadDOffset: 1
OS2SubXSize: 700
OS2SubYSize: 650
OS2SubXOff: 0
OS2SubYOff: 140
OS2SupXSize: 700
OS2SupYSize: 650
OS2SupXOff: 0
OS2SupYOff: 477
OS2StrikeYSize: 50
OS2StrikeYPos: 250
OS2Vendor: 'pyrs'
OS2CodePages: 00000001.00000000
OS2UnicodeRanges: 00000023.00000000.00000000.00000000
Lookup: 258 0 0 "'kern' Horizontal Kerning in Latin lookup 0"  {"'kern' Horizontal Kerning in Latin lookup 0 subtable"  } ['kern' ('DFLT' <'dflt' > 'latn' <'dflt' > ) ]
DEI: 91125
TtTable: prep
PUSHW_1
 511
SCANCTRL
PUSHB_1
 4
SCANTYPE
EndTTInstrs
ShortTable: maxp 16
  1
  0
  271
  144
  7
  108
  4
  2
  0
  1
  1
  0
  64
  0
  2
  1
EndShort
LangName: 1033 "" "" "Regular" "AngelicaDiazRivera: Esteban: 2011" "" "Version 1.002" "" "Esteban is a trademark of Angelica Diaz Rivera." "Angelica Diaz Rivera" "Angelica Diaz Rivera" "" "" "www.typereview.wordpress.com" "This Font Software is licensed under the SIL Open Font License, Version 1.1. This license is available with a FAQ at: http://scripts.sil.org/OFL" "http://scripts.sil.org/OFL" 
GaspTable: 1 65535 15 1
Encoding: UnicodeBmp
UnicodeInterp: none
NameList: Adobe Glyph List
DisplaySize: -24

StartChar: exclam
Encoding: 33 33 4
Width: 248
GlyphClass: 2
Flags: W
LayerCount: 2
Fore
SplineSet
81 757 m 0,0,1
 97 770 97 770 129 770 c 128,-1,2
 161 770 161 770 172 755 c 1,3,4
 157 727 157 727 153 603 c 1,5,6
 150 473 150 473 148 192 c 1,7,8
 127 187 127 187 116.5 187 c 128,-1,9
 106 187 106 187 105.5 189 c 128,-1,10
 105 191 105 191 98 274 c 0,11,12
 78 511 78 511 78 632.5 c 128,-1,13
 78 754 78 754 81 757 c 0,0,1
169 14.5 m 128,-1,15
 153 0 153 0 127.5 0 c 128,-1,16
 102 0 102 0 87 16 c 128,-1,17
 72 32 72 32 72 56.5 c 128,-1,18
 72 81 72 81 87 97.5 c 128,-1,19
 102 114 102 114 126 114 c 128,-1,20
 150 114 150 114 167.5 97 c 128,-1,21
 185 80 185 80 185 54.5 c 128,-1,14
 185 29 185 29 169 14.5 c 128,-1,15
EndSplineSet
EndChar

StartChar: quotedbl
Encoding: 34 34 5
Width: 282
GlyphClass: 2
Flags: W
LayerCount: 2
Fore
SplineSet
221 765.5 m 128,-1,1
 236 761 236 761 239.5 757.5 c 128,-1,2
 243 754 243 754 243 736 c 0,3,4
 243 694 243 694 215 554 c 1,5,6
 211 550 211 550 205 550 c 1,7,-1
 183 557 l 1,8,9
 180 567 180 567 180 616 c 0,10,11
 180 739 180 739 159 755 c 1,12,13
 169 770 169 770 187.5 770 c 128,-1,0
 206 770 206 770 221 765.5 c 128,-1,1
96 765.5 m 128,-1,15
 111 761 111 761 114.5 757.5 c 128,-1,16
 118 754 118 754 118 736 c 0,17,18
 118 694 118 694 90 554 c 1,19,20
 86 550 86 550 80 550 c 1,21,-1
 58 557 l 1,22,23
 55 567 55 567 55 616 c 0,24,25
 55 739 55 739 34 755 c 1,26,27
 44 770 44 770 62.5 770 c 128,-1,14
 81 770 81 770 96 765.5 c 128,-1,15
EndSplineSet
EndChar

StartChar: numbersign
Encoding: 35 35 6
Width: 545
GlyphClass: 2
Flags: W
LayerCount: 2
Fore
SplineSet
493 443 m 1,0,-1
 391 444 l 1,1,2
 387 391 387 391 383 281 c 1,3,4
 466 281 466 281 496 283 c 1,5,6
 501 265 501 265 501 246.5 c 128,-1,7
 501 228 501 228 493 220 c 1,8,9
 487 220 487 220 381 222 c 1,10,11
 374 25 374 25 373 0 c 1,12,13
 363 -10 363 -10 332.5 -10 c 128,-1,14
 302 -10 302 -10 294 6 c 1,15,16
 309 80 309 80 319 222 c 1,17,-1
 225 222 l 1,18,19
 218 25 218 25 217 0 c 1,20,21
 207 -10 207 -10 176.5 -10 c 128,-1,22
 146 -10 146 -10 138 6 c 1,23,24
 153 80 153 80 163 222 c 1,25,26
 57 220 57 220 52 220 c 1,27,28
 43 242 43 242 43 259 c 128,-1,29
 43 276 43 276 49 283 c 1,30,31
 64 281 64 281 166 281 c 1,32,33
 169 331 169 331 173 445 c 1,34,35
 57 443 57 443 52 443 c 1,36,37
 43 465 43 465 43 482 c 128,-1,38
 43 499 43 499 49 506 c 1,39,40
 65 504 65 504 175 504 c 1,41,42
 181 669 181 669 184 703 c 1,43,44
 194 713 194 713 224.5 713 c 128,-1,45
 255 713 255 713 263 697 c 1,46,47
 247 623 247 623 239 504 c 1,48,-1
 331 504 l 1,49,50
 337 669 337 669 340 703 c 1,51,52
 350 713 350 713 380.5 713 c 128,-1,53
 411 713 411 713 419 697 c 1,54,55
 403 623 403 623 395 504 c 1,56,57
 468 504 468 504 496 506 c 1,58,59
 501 488 501 488 501 469.5 c 128,-1,60
 501 451 501 451 493 443 c 1,0,-1
235 444 m 1,61,62
 231 392 231 392 227 280 c 1,63,-1
 322 280 l 1,64,65
 325 330 325 330 329 444 c 1,66,-1
 235 444 l 1,61,62
EndSplineSet
EndChar

StartChar: dollar
Encoding: 36 36 7
Width: 533
GlyphClass: 2
Flags: W
LayerCount: 2
Fore
SplineSet
51 199 m 1,0,1
 55 203 55 203 69 203 c 128,-1,2
 83 203 83 203 89 199 c 1,3,4
 97 140 97 140 137.5 101.5 c 128,-1,5
 178 63 178 63 237 52 c 1,6,7
 242 128 242 128 248 300 c 1,8,9
 116 369 116 369 86 442 c 0,10,11
 71 477 71 477 71 518 c 0,12,13
 71 607 71 607 128 660.5 c 128,-1,14
 185 714 185 714 261 714 c 1,15,-1
 264 764 l 1,16,17
 272 770 272 770 291.5 770 c 128,-1,18
 311 770 311 770 318 760 c 1,19,20
 314 729 314 729 313 709 c 1,21,22
 340 704 340 704 362 691 c 128,-1,23
 384 678 384 678 388 678 c 128,-1,24
 392 678 392 678 393 687 c 2,25,-1
 396 709 l 1,26,27
 400 713 400 713 414 713 c 128,-1,28
 428 713 428 713 434 709 c 1,29,-1
 448 504 l 1,30,31
 444 500 444 500 428.5 500 c 128,-1,32
 413 500 413 500 410 504 c 1,33,34
 405 547 405 547 397 573.5 c 128,-1,35
 389 600 389 600 367 623 c 128,-1,36
 345 646 345 646 309 652 c 1,37,38
 300 511 300 511 296 394 c 1,39,40
 413 331 413 331 448 286 c 0,41,42
 488 234 488 234 488 175.5 c 128,-1,43
 488 117 488 117 454 75 c 0,44,45
 395 0 395 0 284 -9 c 1,46,-1
 281 -84 l 1,47,48
 272 -90 272 -90 253 -90 c 128,-1,49
 234 -90 234 -90 227 -80 c 1,50,-1
 233 -9 l 1,51,52
 169 -4 169 -4 118 23 c 0,53,54
 114 25 114 25 110.5 25 c 128,-1,55
 107 25 107 25 106 16 c 2,56,-1
 103 -6 l 1,57,58
 99 -10 99 -10 83.5 -10 c 128,-1,59
 68 -10 68 -10 65 -6 c 1,60,-1
 51 199 l 1,0,1
399 164 m 0,61,62
 399 198 399 198 372 223 c 128,-1,63
 345 248 345 248 293 276 c 1,64,65
 292 245 292 245 286 49 c 1,66,67
 331 52 331 52 365 82.5 c 128,-1,68
 399 113 399 113 399 164 c 0,61,62
185.5 612.5 m 128,-1,70
 158 579 158 579 158 541 c 128,-1,71
 158 503 158 503 182 475.5 c 128,-1,72
 206 448 206 448 251 420 c 1,73,-1
 258 652 l 1,74,69
 213 646 213 646 185.5 612.5 c 128,-1,70
EndSplineSet
EndChar

StartChar: percent
Encoding: 37 37 8
Width: 743
GlyphClass: 2
Flags: W
LayerCount: 2
Fore
SplineSet
76 484 m 128,-1,1
 34 536 34 536 34 600.5 c 128,-1,2
 34 665 34 665 76 721 c 128,-1,3
 118 777 118 777 185.5 777 c 128,-1,4
 253 777 253 777 294 721 c 128,-1,5
 335 665 335 665 335 600.5 c 128,-1,6
 335 536 335 536 294 484 c 128,-1,7
 253 432 253 432 185.5 432 c 128,-1,0
 118 432 118 432 76 484 c 128,-1,1
118.5 697.5 m 128,-1,9
 94 657 94 657 94 603.5 c 128,-1,10
 94 550 94 550 119 510.5 c 128,-1,11
 144 471 144 471 187.5 471 c 128,-1,12
 231 471 231 471 253 509.5 c 128,-1,13
 275 548 275 548 275 604 c 128,-1,14
 275 660 275 660 255 699 c 128,-1,15
 235 738 235 738 189 738 c 128,-1,8
 143 738 143 738 118.5 697.5 c 128,-1,9
450 52 m 128,-1,17
 408 104 408 104 408 168.5 c 128,-1,18
 408 233 408 233 450 289 c 128,-1,19
 492 345 492 345 559.5 345 c 128,-1,20
 627 345 627 345 668 289 c 128,-1,21
 709 233 709 233 709 168.5 c 128,-1,22
 709 104 709 104 668 52 c 128,-1,23
 627 0 627 0 559.5 0 c 128,-1,16
 492 0 492 0 450 52 c 128,-1,17
492.5 265.5 m 128,-1,25
 468 225 468 225 468 171.5 c 128,-1,26
 468 118 468 118 493 78.5 c 128,-1,27
 518 39 518 39 561.5 39 c 128,-1,28
 605 39 605 39 627 77.5 c 128,-1,29
 649 116 649 116 649 172 c 128,-1,30
 649 228 649 228 629 267 c 128,-1,31
 609 306 609 306 563 306 c 128,-1,24
 517 306 517 306 492.5 265.5 c 128,-1,25
650 752 m 1,32,33
 576 649 576 649 398 376 c 128,-1,34
 220 103 220 103 159 -1 c 1,35,36
 108 2 108 2 98 33 c 1,37,38
 172 138 172 138 352 413 c 128,-1,39
 532 688 532 688 593 791 c 1,40,41
 609 791 609 791 628 779.5 c 128,-1,42
 647 768 647 768 650 752 c 1,32,33
EndSplineSet
EndChar

StartChar: ampersand
Encoding: 38 38 9
Width: 779
GlyphClass: 2
Flags: W
LayerCount: 2
Fore
SplineSet
174 281 m 128,-1,1
 146 236 146 236 146 175.5 c 128,-1,2
 146 115 146 115 187.5 78.5 c 128,-1,3
 229 42 229 42 287 42 c 128,-1,4
 345 42 345 42 385.5 73 c 128,-1,5
 426 104 426 104 463 158 c 1,6,-1
 258 367 l 1,7,0
 202 326 202 326 174 281 c 128,-1,1
350.5 632 m 128,-1,9
 326 661 326 661 285 661 c 128,-1,10
 244 661 244 661 221 634.5 c 128,-1,11
 198 608 198 608 198 570 c 0,12,13
 198 513 198 513 278 448 c 1,14,15
 375 514 375 514 375 564 c 0,16,8
 375 603 375 603 350.5 632 c 128,-1,9
633 419 m 1,17,-1
 733 429 l 1,18,19
 735 427 735 427 735 413 c 128,-1,20
 735 399 735 399 727 391 c 1,21,-1
 716 391 l 2,22,23
 661 391 661 391 634 344 c 2,24,-1
 530 168 l 1,25,-1
 572 121 l 2,26,27
 619 69 619 69 644 54 c 128,-1,28
 669 39 669 39 703 39 c 128,-1,29
 737 39 737 39 760 57 c 1,30,31
 768 48 768 48 768 33 c 128,-1,32
 768 18 768 18 744.5 4 c 128,-1,33
 721 -10 721 -10 693 -10 c 0,34,35
 631 -10 631 -10 555 64 c 1,36,-1
 500 120 l 1,37,38
 453 55 453 55 402.5 22.5 c 128,-1,39
 352 -10 352 -10 274.5 -10 c 128,-1,40
 197 -10 197 -10 129.5 42 c 128,-1,41
 62 94 62 94 62 174 c 0,42,43
 62 248 62 248 114 310 c 0,44,45
 157 361 157 361 213 407 c 1,46,47
 116 481 116 481 116 563 c 0,48,49
 116 627 116 627 166 670 c 128,-1,50
 216 713 216 713 283 713 c 128,-1,51
 350 713 350 713 392.5 675.5 c 128,-1,52
 435 638 435 638 435 581 c 128,-1,53
 435 524 435 524 407 486 c 128,-1,54
 379 448 379 448 321 408 c 1,55,-1
 493 210 l 1,56,-1
 569 344 l 2,57,58
 576 357 576 357 576 366 c 0,59,60
 576 391 576 391 508 391 c 1,61,62
 501 396 501 396 501 411.5 c 128,-1,63
 501 427 501 427 503 429 c 1,64,-1
 633 419 l 1,17,-1
EndSplineSet
EndChar

StartChar: quotesingle
Encoding: 39 39 10
Width: 157
GlyphClass: 2
Flags: W
LayerCount: 2
Fore
SplineSet
96 765.5 m 128,-1,1
 111 761 111 761 114.5 757.5 c 128,-1,2
 118 754 118 754 118 736 c 0,3,4
 118 694 118 694 90 554 c 1,5,6
 86 550 86 550 80 550 c 1,7,-1
 58 557 l 1,8,9
 55 567 55 567 55 616 c 0,10,11
 55 739 55 739 34 755 c 1,12,13
 44 770 44 770 62.5 770 c 128,-1,0
 81 770 81 770 96 765.5 c 128,-1,1
EndSplineSet
EndChar

StartChar: parenleft
Encoding: 40 40 11
Width: 331
GlyphClass: 2
Flags: W
LayerCount: 2
Fore
SplineSet
330 752 m 1,0,1
 125 555 125 555 125 240 c 128,-1,2
 125 -75 125 -75 330 -272 c 1,3,4
 328 -286 328 -286 296 -290 c 1,5,6
 178 -215 178 -215 106.5 -72 c 128,-1,7
 35 71 35 71 35 239.5 c 128,-1,8
 35 408 35 408 106.5 551.5 c 128,-1,9
 178 695 178 695 296 770 c 1,10,11
 324 766 324 766 328 756 c 2,12,-1
 330 752 l 1,0,1
EndSplineSet
EndChar

StartChar: parenright
Encoding: 41 41 12
Width: 331
GlyphClass: 2
Flags: W
LayerCount: 2
Fore
SplineSet
1 -272 m 1,0,1
 206 -75 206 -75 206 240 c 128,-1,2
 206 555 206 555 1 752 c 1,3,4
 3 766 3 766 35 770 c 1,5,6
 153 695 153 695 224.5 551.5 c 128,-1,7
 296 408 296 408 296 239.5 c 128,-1,8
 296 71 296 71 224.5 -72 c 128,-1,9
 153 -215 153 -215 35 -290 c 1,10,11
 7 -286 7 -286 2 -276 c 1,12,-1
 1 -272 l 1,0,1
EndSplineSet
EndChar

StartChar: asterisk
Encoding: 42 42 13
Width: 436
GlyphClass: 2
Flags: W
LayerCount: 2
Fore
SplineSet
342 449 m 0,0,1
 319 449 319 449 233 526 c 1,2,3
 232 510 232 510 232 476 c 0,4,5
 232 402 232 402 249 387 c 1,6,7
 240 372 240 372 219 372 c 0,8,9
 170 372 170 372 170 400 c 0,10,11
 170 437 170 437 191 534 c 1,12,13
 96 483 96 483 91 456 c 1,14,15
 77 456 77 456 64 475.5 c 128,-1,16
 51 495 51 495 51 509.5 c 128,-1,17
 51 524 51 524 63 532 c 0,18,19
 96 553 96 553 178 577 c 1,20,21
 105 623 105 623 85 627.5 c 128,-1,22
 65 632 65 632 55 630 c 1,23,24
 51 638 51 638 51 646 c 128,-1,25
 51 654 51 654 56 662 c 0,26,27
 77 698 77 698 92.5 698 c 128,-1,28
 108 698 108 698 198 618 c 1,29,30
 199 634 199 634 199 669 c 0,31,32
 199 742 199 742 183 757 c 1,33,34
 191 770 191 770 214.5 770 c 128,-1,35
 238 770 238 770 250.5 762 c 128,-1,36
 263 754 263 754 263 744 c 0,37,38
 263 714 263 714 240 610 c 1,39,40
 336 659 336 659 341 688 c 1,41,42
 357 688 357 688 368.5 671.5 c 128,-1,43
 380 655 380 655 380 636.5 c 128,-1,44
 380 618 380 618 370 613 c 0,45,46
 332 592 332 592 253 566 c 1,47,48
 259 563 259 563 272 554.5 c 128,-1,49
 285 546 285 546 290.5 542.5 c 128,-1,50
 296 539 296 539 309 532 c 128,-1,51
 322 525 322 525 327.5 523 c 128,-1,52
 333 521 333 521 345.5 516.5 c 128,-1,53
 358 512 358 512 362.5 513.5 c 128,-1,54
 367 515 367 515 378 515 c 1,55,56
 381 509 381 509 381 495.5 c 128,-1,57
 381 482 381 482 368 465.5 c 128,-1,58
 355 449 355 449 342 449 c 0,0,1
EndSplineSet
EndChar

StartChar: plus
Encoding: 43 43 14
Width: 472
GlyphClass: 2
Flags: W
LayerCount: 2
Fore
SplineSet
265 280 m 1,0,1
 410 280 410 280 430 282 c 1,2,3
 435 264 435 264 435 245.5 c 128,-1,4
 435 227 435 227 427 219 c 1,5,6
 387 221 387 221 265 221 c 1,7,8
 265 73 265 73 267 54 c 1,9,10
 245 45 245 45 227.5 45 c 128,-1,11
 210 45 210 45 204 51 c 1,12,13
 206 89 206 89 206 221 c 1,14,15
 82 221 82 221 46 219 c 1,16,17
 37 241 37 241 37 258 c 128,-1,18
 37 275 37 275 43 282 c 1,19,20
 61 280 61 280 206 280 c 1,21,22
 206 397 206 397 204 435 c 1,23,24
 226 444 226 444 243.5 444 c 128,-1,25
 261 444 261 444 267 438 c 1,26,27
 265 419 265 419 265 280 c 1,0,1
EndSplineSet
EndChar

StartChar: comma
Encoding: 44 44 15
Width: 225
GlyphClass: 2
Flags: W
LayerCount: 2
Fore
SplineSet
154 94 m 128,-1,1
 173 74 173 74 173 31.5 c 128,-1,2
 173 -11 173 -11 155 -52 c 0,3,4
 118 -137 118 -137 82 -137 c 0,5,6
 79 -137 79 -137 70 -129 c 0,7,8
 45 -107 45 -107 55 -97 c 1,9,10
 111 -49 111 -49 116 -31 c 0,11,12
 118 -24 118 -24 118 -15 c 128,-1,13
 118 -6 118 -6 101.5 0.5 c 128,-1,14
 85 7 85 7 68.5 19.5 c 128,-1,15
 52 32 52 32 52 56.5 c 128,-1,16
 52 81 52 81 67.5 97.5 c 128,-1,17
 83 114 83 114 109 114 c 128,-1,0
 135 114 135 114 154 94 c 128,-1,1
EndSplineSet
EndChar

StartChar: hyphen
Encoding: 45 45 16
Width: 452
GlyphClass: 2
Flags: W
LayerCount: 2
Fore
SplineSet
372 219 m 1,0,1
 334 221 334 221 225.5 221 c 128,-1,2
 117 221 117 221 81 219 c 1,3,4
 72 241 72 241 72 258 c 128,-1,5
 72 275 72 275 78 282 c 1,6,7
 96 280 96 280 226 280 c 128,-1,8
 356 280 356 280 375 282 c 1,9,10
 380 264 380 264 380 245.5 c 128,-1,11
 380 227 380 227 372 219 c 1,0,1
EndSplineSet
EndChar

StartChar: period
Encoding: 46 46 17
Width: 216
GlyphClass: 2
Flags: W
LayerCount: 2
Fore
SplineSet
149 14.5 m 128,-1,1
 133 0 133 0 107.5 0 c 128,-1,2
 82 0 82 0 67 16 c 128,-1,3
 52 32 52 32 52 56.5 c 128,-1,4
 52 81 52 81 67 97.5 c 128,-1,5
 82 114 82 114 106 114 c 128,-1,6
 130 114 130 114 147.5 97 c 128,-1,7
 165 80 165 80 165 54.5 c 128,-1,0
 165 29 165 29 149 14.5 c 128,-1,1
EndSplineSet
EndChar

StartChar: slash
Encoding: 47 47 18
Width: 396
GlyphClass: 2
Flags: W
LayerCount: 2
Fore
SplineSet
361 768 m 1,0,1
 320 661 320 661 225.5 378 c 128,-1,2
 131 95 131 95 102 -10 c 1,3,4
 48 -10 48 -10 35 8 c 1,5,6
 75 113 75 113 170 399 c 128,-1,7
 265 685 265 685 295 791 c 1,8,9
 349 791 349 791 361 768 c 1,0,1
EndSplineSet
EndChar

StartChar: zero
Encoding: 48 48 19
Width: 588
GlyphClass: 2
Flags: W
LayerCount: 2
Fore
SplineSet
57 351 m 128,-1,1
 57 426 57 426 69.5 489 c 128,-1,2
 82 552 82 552 108.5 604 c 128,-1,3
 135 656 135 656 182.5 685 c 128,-1,4
 230 714 230 714 294 714 c 128,-1,5
 358 714 358 714 405.5 685 c 128,-1,6
 453 656 453 656 479.5 604 c 128,-1,7
 506 552 506 552 518.5 489 c 128,-1,8
 531 426 531 426 531 351 c 128,-1,9
 531 276 531 276 518.5 213 c 128,-1,10
 506 150 506 150 479.5 99 c 128,-1,11
 453 48 453 48 405.5 19 c 128,-1,12
 358 -10 358 -10 294 -10 c 128,-1,13
 230 -10 230 -10 182.5 19 c 128,-1,14
 135 48 135 48 108.5 99 c 128,-1,15
 82 150 82 150 69.5 213 c 128,-1,0
 57 276 57 276 57 351 c 128,-1,1
141 351 m 0,16,17
 141 227 141 227 181 134.5 c 128,-1,18
 221 42 221 42 294 42 c 0,19,20
 343 42 343 42 379 88 c 0,21,22
 447 176 447 176 447 351 c 0,23,24
 447 523 447 523 379 614 c 0,25,26
 343 662 343 662 294 662 c 128,-1,27
 245 662 245 662 209 614 c 0,28,29
 141 522 141 522 141 351 c 0,16,17
EndSplineSet
EndChar

StartChar: one
Encoding: 49 49 20
Width: 423
GlyphClass: 2
Flags: W
LayerCount: 2
Fore
SplineSet
240 8 m 1,0,-1
 52 0 l 1,1,2
 48 3 48 3 48 17 c 128,-1,3
 48 31 48 31 56 36 c 1,4,5
 129 36 129 36 159.5 54 c 128,-1,6
 190 72 190 72 191 127 c 2,7,-1
 194 511 l 2,8,9
 195 570 195 570 165 584 c 128,-1,10
 135 598 135 598 39 598 c 1,11,12
 36 601 36 601 36 614.5 c 128,-1,13
 36 628 36 628 43 634 c 1,14,15
 171 642 171 642 226 703 c 0,16,17
 230 707 230 707 243 707 c 128,-1,18
 256 707 256 707 262 703 c 1,19,-1
 283 127 l 2,20,21
 285 71 285 71 314.5 53.5 c 128,-1,22
 344 36 344 36 416 36 c 1,23,24
 424 30 424 30 424 17 c 128,-1,25
 424 4 424 4 420 0 c 1,26,-1
 240 8 l 1,0,-1
EndSplineSet
EndChar

StartChar: two
Encoding: 50 50 21
Width: 518
GlyphClass: 2
Flags: W
LayerCount: 2
Fore
SplineSet
37 0 m 2,0,1
 32 1 32 1 32 10 c 0,2,3
 32 31 32 31 40.5 57 c 128,-1,4
 49 83 49 83 83.5 126.5 c 128,-1,5
 118 170 118 170 161 219 c 128,-1,6
 204 268 204 268 246.5 321.5 c 128,-1,7
 289 375 289 375 317.5 434 c 128,-1,8
 346 493 346 493 346 547.5 c 128,-1,9
 346 602 346 602 312.5 631.5 c 128,-1,10
 279 661 279 661 233 661 c 128,-1,11
 187 661 187 661 159 648 c 128,-1,12
 131 635 131 635 131 614 c 0,13,14
 131 608 131 608 143 594.5 c 128,-1,15
 155 581 155 581 155 565 c 0,16,17
 155 531 155 531 106 531 c 0,18,19
 83 531 83 531 70 544 c 128,-1,20
 57 557 57 557 57 580 c 0,21,22
 57 623 57 623 86 654 c 0,23,24
 141 713 141 713 247 713 c 0,25,26
 326 713 326 713 379 672 c 128,-1,27
 432 631 432 631 432 549 c 0,28,29
 432 487 432 487 397 420 c 0,30,31
 356 341 356 341 318 290 c 128,-1,32
 280 239 280 239 260.5 214.5 c 128,-1,33
 241 190 241 190 200.5 140 c 128,-1,34
 160 90 160 90 148.5 76 c 128,-1,35
 137 62 137 62 137 54 c 0,36,37
 137 53 137 53 180 53 c 2,38,-1
 251 53 l 2,39,40
 298 53 298 53 321.5 53.5 c 128,-1,41
 345 54 345 54 368.5 60 c 128,-1,42
 392 66 392 66 400.5 73 c 128,-1,43
 409 80 409 80 417 98.5 c 128,-1,44
 425 117 425 117 427 137.5 c 128,-1,45
 429 158 429 158 430 196 c 1,46,47
 433 199 433 199 448.5 199 c 128,-1,48
 464 199 464 199 480 186 c 1,49,-1
 451 -10 l 1,50,51
 372 -1 372 -1 215 -1 c 2,52,-1
 37 0 l 2,0,1
EndSplineSet
EndChar

StartChar: three
Encoding: 51 51 22
Width: 486
GlyphClass: 2
Flags: W
LayerCount: 2
Fore
SplineSet
151 342 m 2,0,1
 147 342 147 342 140 356 c 128,-1,2
 133 370 133 370 133 376 c 128,-1,3
 133 382 133 382 134 383 c 0,4,5
 212 405 212 405 263 446 c 128,-1,6
 314 487 314 487 314 543.5 c 128,-1,7
 314 600 314 600 286.5 630.5 c 128,-1,8
 259 661 259 661 218.5 661 c 128,-1,9
 178 661 178 661 152.5 646.5 c 128,-1,10
 127 632 127 632 127 613 c 0,11,12
 127 604 127 604 138.5 591 c 128,-1,13
 150 578 150 578 150 558 c 0,14,15
 150 524 150 524 101 524 c 0,16,17
 78 524 78 524 65 537 c 128,-1,18
 52 550 52 550 52 573 c 0,19,20
 52 633 52 633 107.5 673 c 128,-1,21
 163 713 163 713 232 713 c 128,-1,22
 301 713 301 713 349.5 667.5 c 128,-1,23
 398 622 398 622 398 544 c 0,24,25
 398 488 398 488 358 449.5 c 128,-1,26
 318 411 318 411 261 392 c 1,27,28
 336 383 336 383 386.5 331.5 c 128,-1,29
 437 280 437 280 437 198.5 c 128,-1,30
 437 117 437 117 369.5 53.5 c 128,-1,31
 302 -10 302 -10 213 -10 c 0,32,33
 150 -10 150 -10 99.5 21.5 c 128,-1,34
 49 53 49 53 49 113 c 0,35,36
 49 136 49 136 62.5 149 c 128,-1,37
 76 162 76 162 98 162 c 0,38,39
 147 162 147 162 147 128 c 0,40,41
 147 112 147 112 135 98.5 c 128,-1,42
 123 85 123 85 123 79 c 0,43,44
 123 63 123 63 151.5 51.5 c 128,-1,45
 180 40 180 40 208 40 c 0,46,47
 273 40 273 40 313 84 c 128,-1,48
 353 128 353 128 353 198.5 c 128,-1,49
 353 269 353 269 317.5 315.5 c 128,-1,50
 282 362 282 362 226 362 c 0,51,52
 189 362 189 362 152 342 c 1,53,-1
 151 342 l 2,0,1
EndSplineSet
EndChar

StartChar: four
Encoding: 52 52 23
Width: 506
GlyphClass: 2
Flags: W
LayerCount: 2
Fore
SplineSet
347 4 m 1,0,-1
 220 0 l 1,1,2
 217 3 217 3 217 16.5 c 128,-1,3
 217 30 217 30 223 36 c 1,4,5
 263 36 263 36 281 47.5 c 128,-1,6
 299 59 299 59 300 87 c 1,7,-1
 298 193 l 1,8,-1
 19 193 l 1,9,10
 14 196 14 196 14 219.5 c 128,-1,11
 14 243 14 243 19 248 c 1,12,-1
 322 703 l 1,13,14
 326 707 326 707 339 707 c 128,-1,15
 352 707 352 707 358 703 c 1,16,-1
 374 248 l 1,17,-1
 472 248 l 1,18,19
 477 233 477 233 477 217 c 128,-1,20
 477 201 477 201 469 193 c 1,21,-1
 376 193 l 1,22,-1
 380 87 l 2,23,24
 381 59 381 59 398.5 47.5 c 128,-1,25
 416 36 416 36 456 36 c 1,26,27
 461 31 461 31 461 16.5 c 128,-1,28
 461 2 461 2 459 0 c 1,29,-1
 347 4 l 1,0,-1
300 592 m 0,30,31
 98 251 98 251 98 249.5 c 128,-1,32
 98 248 98 248 101 248 c 2,33,-1
 291 248 l 2,34,35
 298 248 298 248 298 255 c 2,36,-1
 305 591 l 2,37,38
 305 594 305 594 303 594 c 128,-1,39
 301 594 301 594 300 592 c 0,30,31
EndSplineSet
EndChar

StartChar: five
Encoding: 53 53 24
Width: 465
GlyphClass: 2
Flags: W
LayerCount: 2
Fore
SplineSet
189 385 m 0,0,1
 154 385 154 385 125.5 374.5 c 128,-1,2
 97 364 97 364 96 364 c 0,3,4
 91 364 91 364 85 380 c 128,-1,5
 79 396 79 396 79 408 c 2,6,-1
 87 685 l 2,7,8
 87 703 87 703 105 703 c 2,9,-1
 262 703 l 2,10,11
 312 703 312 703 329 711.5 c 128,-1,12
 346 720 346 720 359 756 c 1,13,14
 361 758 361 758 373.5 758 c 128,-1,15
 386 758 386 758 395 751 c 1,16,-1
 361 648 l 1,17,-1
 154 648 l 2,18,19
 143 648 143 648 143 631 c 1,20,-1
 128 422 l 1,21,22
 168 431 168 431 199 431 c 0,23,24
 298 431 298 431 362 370.5 c 128,-1,25
 426 310 426 310 426 227 c 0,26,27
 426 127 426 127 368.5 58.5 c 128,-1,28
 311 -10 311 -10 209 -10 c 0,29,30
 147 -10 147 -10 96.5 22 c 128,-1,31
 46 54 46 54 46 113 c 0,32,33
 46 136 46 136 59 149 c 128,-1,34
 72 162 72 162 95 162 c 0,35,36
 144 162 144 162 144 128 c 0,37,38
 144 112 144 112 132 98.5 c 128,-1,39
 120 85 120 85 120 79 c 0,40,41
 120 63 120 63 148.5 51.5 c 128,-1,42
 177 40 177 40 204 40 c 0,43,44
 269 40 269 40 306 91.5 c 128,-1,45
 343 143 343 143 343 218.5 c 128,-1,46
 343 294 343 294 300 339.5 c 128,-1,47
 257 385 257 385 189 385 c 0,0,1
EndSplineSet
EndChar

StartChar: six
Encoding: 54 54 25
Width: 538
GlyphClass: 2
Flags: W
LayerCount: 2
Fore
SplineSet
285 40 m 0,0,1
 346 40 346 40 378 91.5 c 128,-1,2
 410 143 410 143 410 220.5 c 128,-1,3
 410 298 410 298 368 342 c 128,-1,4
 326 386 326 386 276 386 c 128,-1,5
 226 386 226 386 190 355.5 c 128,-1,6
 154 325 154 325 135 284 c 1,7,8
 137 40 137 40 285 40 c 0,0,1
386 634 m 0,9,10
 386 651 386 651 365.5 660.5 c 128,-1,11
 345 670 345 670 317 670 c 0,12,13
 223 670 223 670 171 551 c 0,14,15
 160 525 160 525 150.5 475.5 c 128,-1,16
 141 426 141 426 134 353 c 1,17,18
 194 430 194 430 298 430 c 0,19,20
 378 430 378 430 435.5 365 c 128,-1,21
 493 300 493 300 493 216 c 0,22,23
 493 112 493 112 435.5 51 c 128,-1,24
 378 -10 378 -10 278.5 -10 c 128,-1,25
 179 -10 179 -10 116 74.5 c 128,-1,26
 53 159 53 159 53 271.5 c 128,-1,27
 53 384 53 384 81.5 484 c 128,-1,28
 110 584 110 584 169.5 648.5 c 128,-1,29
 229 713 229 713 303 713 c 128,-1,30
 377 713 377 713 418.5 685.5 c 128,-1,31
 460 658 460 658 460 605 c 0,32,33
 460 582 460 582 447 569 c 128,-1,34
 434 556 434 556 411 556 c 0,35,36
 362 556 362 556 362 590 c 0,37,38
 362 604 362 604 374 617.5 c 128,-1,39
 386 631 386 631 386 634 c 0,9,10
EndSplineSet
EndChar

StartChar: seven
Encoding: 55 55 26
Width: 456
GlyphClass: 2
Flags: W
LayerCount: 2
Fore
SplineSet
54 713 m 1,0,1
 184 700 184 700 267.5 700 c 128,-1,2
 351 700 351 700 435 703 c 1,3,4
 443 694 443 694 443 675 c 1,5,-1
 439 646 l 1,6,-1
 209 0 l 1,7,8
 205 -4 205 -4 162 -4 c 128,-1,9
 119 -4 119 -4 116 0 c 1,10,-1
 373 617 l 1,11,-1
 374 633 l 1,12,13
 370 640 370 640 345 640 c 2,14,-1
 128 640 l 2,15,16
 95 640 95 640 76 623 c 128,-1,17
 57 606 57 606 51 556 c 1,18,19
 49 554 49 554 34.5 554 c 128,-1,20
 20 554 20 554 15 561 c 1,21,-1
 54 713 l 1,0,1
EndSplineSet
EndChar

StartChar: eight
Encoding: 56 56 27
Width: 538
GlyphClass: 2
Flags: W
LayerCount: 2
Fore
SplineSet
267 713 m 128,-1,1
 350 713 350 713 401 669 c 128,-1,2
 452 625 452 625 452 546 c 0,3,4
 452 457 452 457 332 385 c 1,5,6
 394 356 394 356 442 304.5 c 128,-1,7
 490 253 490 253 490 177 c 128,-1,8
 490 101 490 101 423.5 45.5 c 128,-1,9
 357 -10 357 -10 271.5 -10 c 128,-1,10
 186 -10 186 -10 118.5 42 c 128,-1,11
 51 94 51 94 51 168 c 128,-1,12
 51 242 51 242 94 296 c 128,-1,13
 137 350 137 350 193 376 c 1,14,15
 153 400 153 400 117 445.5 c 128,-1,16
 81 491 81 491 81 544 c 0,17,18
 81 623 81 623 132.5 668 c 128,-1,0
 184 713 184 713 267 713 c 128,-1,1
369.5 78 m 128,-1,20
 406 114 406 114 406 174.5 c 128,-1,21
 406 235 406 235 368.5 273.5 c 128,-1,22
 331 312 331 312 243 342 c 1,23,24
 187 314 187 314 161 275 c 128,-1,25
 135 236 135 236 135 175.5 c 128,-1,26
 135 115 135 115 176.5 78.5 c 128,-1,27
 218 42 218 42 275.5 42 c 128,-1,19
 333 42 333 42 369.5 78 c 128,-1,20
193 636 m 128,-1,29
 165 611 165 611 165 564 c 128,-1,30
 165 517 165 517 195 474 c 128,-1,31
 225 431 225 431 280 414 c 1,32,33
 368 464 368 464 368 570 c 0,34,35
 368 611 368 611 337.5 636 c 128,-1,36
 307 661 307 661 264 661 c 128,-1,28
 221 661 221 661 193 636 c 128,-1,29
EndSplineSet
EndChar

StartChar: nine
Encoding: 57 57 28
Width: 522
GlyphClass: 2
Flags: W
LayerCount: 2
Fore
SplineSet
243 663 m 0,0,1
 187 663 187 663 157.5 614.5 c 128,-1,2
 128 566 128 566 128 489 c 128,-1,3
 128 412 128 412 164 367 c 128,-1,4
 200 322 200 322 246 322 c 128,-1,5
 292 322 292 322 328 351 c 128,-1,6
 364 380 364 380 383 419 c 1,7,8
 381 663 381 663 243 663 c 0,0,1
147 69 m 0,9,10
 147 52 147 52 168.5 42.5 c 128,-1,11
 190 33 190 33 221 33 c 0,12,13
 384 33 384 33 384 350 c 1,14,15
 324 278 324 278 220 278 c 0,16,17
 148 278 148 278 96.5 340.5 c 128,-1,18
 45 403 45 403 45 487.5 c 128,-1,19
 45 572 45 572 99.5 642.5 c 128,-1,20
 154 713 154 713 245 713 c 0,21,22
 373 713 373 713 422 620 c 1,23,24
 465 535 465 535 465 395 c 0,25,26
 465 243 465 243 417 124 c 0,27,28
 392 63 392 63 343.5 26.5 c 128,-1,29
 295 -10 295 -10 231 -10 c 128,-1,30
 167 -10 167 -10 122.5 16 c 128,-1,31
 78 42 78 42 78 93 c 0,32,33
 78 118 78 118 90 132.5 c 128,-1,34
 102 147 102 147 122 147 c 0,35,36
 171 147 171 147 171 113 c 0,37,38
 171 99 171 99 159 85.5 c 128,-1,39
 147 72 147 72 147 69 c 0,9,10
EndSplineSet
EndChar

StartChar: colon
Encoding: 58 58 29
Width: 248
GlyphClass: 2
Flags: W
LayerCount: 2
Fore
SplineSet
165 380.5 m 128,-1,1
 149 366 149 366 123.5 366 c 128,-1,2
 98 366 98 366 83 382 c 128,-1,3
 68 398 68 398 68 422.5 c 128,-1,4
 68 447 68 447 83 463.5 c 128,-1,5
 98 480 98 480 122 480 c 128,-1,6
 146 480 146 480 163.5 463 c 128,-1,7
 181 446 181 446 181 420.5 c 128,-1,0
 181 395 181 395 165 380.5 c 128,-1,1
165 14.5 m 128,-1,9
 149 0 149 0 123.5 0 c 128,-1,10
 98 0 98 0 83 16 c 128,-1,11
 68 32 68 32 68 56.5 c 128,-1,12
 68 81 68 81 83 97.5 c 128,-1,13
 98 114 98 114 122 114 c 128,-1,14
 146 114 146 114 163.5 97 c 128,-1,15
 181 80 181 80 181 54.5 c 128,-1,8
 181 29 181 29 165 14.5 c 128,-1,9
EndSplineSet
EndChar

StartChar: semicolon
Encoding: 59 59 30
Width: 252
GlyphClass: 2
Flags: W
LayerCount: 2
Fore
SplineSet
165 380.5 m 128,-1,1
 149 366 149 366 123.5 366 c 128,-1,2
 98 366 98 366 83 382 c 128,-1,3
 68 398 68 398 68 422.5 c 128,-1,4
 68 447 68 447 83 463.5 c 128,-1,5
 98 480 98 480 122 480 c 128,-1,6
 146 480 146 480 163.5 463 c 128,-1,7
 181 446 181 446 181 420.5 c 128,-1,0
 181 395 181 395 165 380.5 c 128,-1,1
165.5 89.5 m 128,-1,9
 184 71 184 71 184 30 c 128,-1,10
 184 -11 184 -11 166 -52 c 0,11,12
 129 -137 129 -137 93 -137 c 0,13,14
 90 -137 90 -137 81.5 -128.5 c 128,-1,15
 73 -120 73 -120 69.5 -113.5 c 128,-1,16
 66 -107 66 -107 66 -103.5 c 128,-1,17
 66 -100 66 -100 71 -95.5 c 128,-1,18
 76 -91 76 -91 88 -80.5 c 128,-1,19
 100 -70 100 -70 105 -65.5 c 128,-1,20
 110 -61 110 -61 117.5 -54 c 128,-1,21
 125 -47 125 -47 128 -42 c 0,22,23
 135 -25 135 -25 135 -15.5 c 128,-1,24
 135 -6 135 -6 118.5 0.5 c 128,-1,25
 102 7 102 7 85.5 19.5 c 128,-1,26
 69 32 69 32 69 55 c 128,-1,27
 69 78 69 78 84 93 c 128,-1,28
 99 108 99 108 123 108 c 128,-1,8
 147 108 147 108 165.5 89.5 c 128,-1,9
EndSplineSet
EndChar

StartChar: less
Encoding: 60 60 31
Width: 463
GlyphClass: 2
Flags: W
LayerCount: 2
Fore
SplineSet
35 221 m 2,0,1
 31 224 31 224 31 238.5 c 128,-1,2
 31 253 31 253 35 257 c 1,3,-1
 402 465 l 1,4,5
 407 447 407 447 407 428.5 c 128,-1,6
 407 410 407 410 399 402 c 1,7,-1
 133 239 l 1,8,-1
 402 76 l 1,9,10
 407 58 407 58 407 39.5 c 128,-1,11
 407 21 407 21 399 13 c 1,12,-1
 35 221 l 2,0,1
EndSplineSet
EndChar

StartChar: equal
Encoding: 61 61 32
Width: 568
GlyphClass: 2
Flags: W
LayerCount: 2
Fore
SplineSet
475 283 m 1,0,1
 431 285 431 285 283.5 285 c 128,-1,2
 136 285 136 285 94 283 c 1,3,4
 85 305 85 305 85 322 c 128,-1,5
 85 339 85 339 91 346 c 1,6,7
 112 344 112 344 284 344 c 128,-1,8
 456 344 456 344 478 346 c 1,9,10
 483 328 483 328 483 309.5 c 128,-1,11
 483 291 483 291 475 283 c 1,0,1
475 155 m 1,12,13
 431 157 431 157 283.5 157 c 128,-1,14
 136 157 136 157 94 155 c 1,15,16
 85 177 85 177 85 194 c 128,-1,17
 85 211 85 211 91 218 c 1,18,19
 112 216 112 216 284 216 c 128,-1,20
 456 216 456 216 478 218 c 1,21,22
 483 200 483 200 483 181.5 c 128,-1,23
 483 163 483 163 475 155 c 1,12,13
EndSplineSet
EndChar

StartChar: greater
Encoding: 62 62 33
Width: 463
GlyphClass: 2
Flags: W
LayerCount: 2
Fore
SplineSet
428 257 m 1,0,1
 432 251 432 251 432 238 c 128,-1,2
 432 225 432 225 428 221 c 1,3,-1
 64 13 l 1,4,5
 56 21 56 21 56 41 c 1,6,-1
 61 76 l 1,7,-1
 330 239 l 1,8,-1
 64 402 l 1,9,10
 56 410 56 410 56 430 c 1,11,-1
 61 465 l 1,12,-1
 428 257 l 1,0,1
EndSplineSet
EndChar

StartChar: question
Encoding: 63 63 34
Width: 427
GlyphClass: 2
Flags: W
LayerCount: 2
Fore
SplineSet
233 14.5 m 128,-1,1
 217 0 217 0 191.5 0 c 128,-1,2
 166 0 166 0 151 16 c 128,-1,3
 136 32 136 32 136 56.5 c 128,-1,4
 136 81 136 81 151 97.5 c 128,-1,5
 166 114 166 114 190 114 c 128,-1,6
 214 114 214 114 231.5 97 c 128,-1,7
 249 80 249 80 249 54.5 c 128,-1,0
 249 29 249 29 233 14.5 c 128,-1,1
151.5 249 m 128,-1,9
 148 279 148 279 148 306 c 128,-1,10
 148 333 148 333 151.5 347.5 c 128,-1,11
 155 362 155 362 168 379 c 128,-1,12
 181 396 181 396 187 403 c 128,-1,13
 193 410 193 410 216.5 431.5 c 128,-1,14
 240 453 240 453 246 459 c 0,15,16
 307 518 307 518 307 598 c 0,17,18
 307 652 307 652 274 685.5 c 128,-1,19
 241 719 241 719 199 719 c 0,20,21
 108 719 108 719 108 681 c 0,22,23
 108 675 108 675 119.5 661 c 128,-1,24
 131 647 131 647 131 631 c 0,25,26
 131 597 131 597 84 597 c 0,27,28
 61 597 61 597 47 609.5 c 128,-1,29
 33 622 33 622 33 643 c 0,30,31
 33 700 33 700 86.5 735 c 128,-1,32
 140 770 140 770 213 770 c 128,-1,33
 286 770 286 770 338.5 718.5 c 128,-1,34
 391 667 391 667 391 580 c 0,35,36
 391 508 391 508 320 441 c 0,37,38
 305 426 305 426 276 402.5 c 128,-1,39
 247 379 247 379 239 369 c 0,40,41
 213 337 213 337 210 274 c 2,42,-1
 205 194 l 1,43,44
 184 189 184 189 173.5 189 c 128,-1,45
 163 189 163 189 162 191 c 128,-1,46
 161 193 161 193 158 206 c 128,-1,8
 155 219 155 219 151.5 249 c 128,-1,9
EndSplineSet
EndChar

StartChar: at
Encoding: 64 64 35
Width: 747
GlyphClass: 2
Flags: W
LayerCount: 2
Fore
SplineSet
305 137 m 128,-1,1
 305 112 305 112 319 96.5 c 128,-1,2
 333 81 333 81 362 81 c 128,-1,3
 391 81 391 81 443 108 c 1,4,-1
 441 215 l 1,5,6
 344 190 344 190 324.5 176 c 128,-1,0
 305 162 305 162 305 137 c 128,-1,1
711 279 m 0,7,8
 711 183 711 183 662 110 c 128,-1,9
 613 37 613 37 527 37 c 0,10,11
 463 37 463 37 443 78 c 1,12,13
 396 37 396 37 335 37 c 0,14,15
 294 37 294 37 265.5 64 c 128,-1,16
 237 91 237 91 237 132 c 128,-1,17
 237 173 237 173 272 201 c 128,-1,18
 307 229 307 229 388 244 c 2,19,-1
 440 254 l 1,20,21
 440 263 440 263 440 271 c 0,22,23
 440 318 440 318 425 345.5 c 128,-1,24
 410 373 410 373 358 373 c 128,-1,25
 306 373 306 373 306 350 c 0,26,27
 306 346 306 346 315.5 335.5 c 128,-1,28
 325 325 325 325 325 313 c 0,29,30
 325 288 325 288 287 288 c 0,31,32
 271 288 271 288 260.5 298 c 128,-1,33
 250 308 250 308 250 324 c 0,34,35
 250 363 250 363 287 387.5 c 128,-1,36
 324 412 324 412 368 412 c 0,37,38
 439 412 439 412 469 382.5 c 128,-1,39
 499 353 499 353 499 304 c 0,40,41
 499 303 499 303 495 144 c 0,42,43
 494 82 494 82 550 82 c 0,44,45
 589 82 589 82 615 133.5 c 128,-1,46
 641 185 641 185 641 273 c 0,47,48
 641 391 641 391 570 454.5 c 128,-1,49
 499 518 499 518 382 518 c 0,50,51
 304 518 304 518 242.5 470 c 128,-1,52
 181 422 181 422 151 354 c 128,-1,53
 121 286 121 286 121 215 c 0,54,55
 121 79 121 79 206.5 -4.5 c 128,-1,56
 292 -88 292 -88 428 -88 c 0,57,58
 500 -88 500 -88 583 -53 c 1,59,60
 592 -57 592 -57 592 -73 c 1,61,-1
 591 -82 l 1,62,63
 510 -133 510 -133 398 -133 c 0,64,65
 251 -133 251 -133 151 -33.5 c 128,-1,66
 51 66 51 66 51 208 c 128,-1,67
 51 350 51 350 149.5 454.5 c 128,-1,68
 248 559 248 559 385.5 559 c 128,-1,69
 523 559 523 559 617 483.5 c 128,-1,70
 711 408 711 408 711 279 c 0,7,8
EndSplineSet
EndChar

StartChar: A
Encoding: 65 65 36
Width: 671
GlyphClass: 2
Flags: W
LayerCount: 2
Fore
SplineSet
114 7 m 1,0,-1
 -3 0 l 1,1,2
 -5 1 -5 1 -5 16 c 128,-1,3
 -5 31 -5 31 2 38 c 1,4,5
 39 38 39 38 54 61 c 1,6,7
 66 77 66 77 85 125 c 2,8,-1
 312 703 l 1,9,10
 322 715 322 715 340 715 c 0,11,12
 343 715 343 715 351 713 c 1,13,-1
 587 125 l 2,14,15
 605 79 605 79 627.5 58.5 c 128,-1,16
 650 38 650 38 693 38 c 1,17,18
 700 29 700 29 700 15.5 c 128,-1,19
 700 2 700 2 698 0 c 1,20,-1
 561 7 l 1,21,-1
 415 0 l 1,22,23
 413 1 413 1 413 16 c 128,-1,24
 413 31 413 31 420 38 c 1,25,26
 496 38 496 38 496 85 c 0,27,28
 496 98 496 98 487 125 c 2,29,-1
 448 230 l 1,30,-1
 195 230 l 1,31,-1
 156 125 l 2,32,33
 145 97 145 97 145 80 c 0,34,35
 145 38 145 38 231 38 c 1,36,37
 238 29 238 29 238 15.5 c 128,-1,38
 238 2 238 2 236 0 c 1,39,-1
 114 7 l 1,0,-1
324 597 m 1,40,-1
 216 286 l 1,41,-1
 427 286 l 1,42,-1
 324 597 l 1,40,-1
EndSplineSet
EndChar

StartChar: B
Encoding: 66 66 37
Width: 588
GlyphClass: 2
Flags: W
LayerCount: 2
Fore
SplineSet
146 697 m 1,0,-1
 286 703 l 1,1,2
 379 703 379 703 437.5 659 c 128,-1,3
 496 615 496 615 496 538 c 0,4,5
 496 424 496 424 349 379 c 1,6,7
 431 379 431 379 486.5 328 c 128,-1,8
 542 277 542 277 542 197 c 0,9,10
 542 0 542 0 286 0 c 1,11,-1
 165 6 l 1,12,-1
 45 0 l 1,13,14
 42 3 42 3 42 17.5 c 128,-1,15
 42 32 42 32 48 38 c 1,16,17
 84 38 84 38 99.5 50.5 c 128,-1,18
 115 63 115 63 115 90 c 2,19,-1
 120 614 l 2,20,21
 120 641 120 641 105 653 c 128,-1,22
 90 665 90 665 53 665 c 1,23,24
 47 670 47 670 47 685.5 c 128,-1,25
 47 701 47 701 49 703 c 1,26,-1
 146 697 l 1,0,-1
238 389 m 2,27,28
 316 389 316 389 364.5 424.5 c 128,-1,29
 413 460 413 460 413 524 c 0,30,31
 413 652 413 652 249 652 c 0,32,33
 217 652 217 652 181 646 c 1,34,-1
 193 389 l 1,35,-1
 238 389 l 2,27,28
289 56 m 0,36,37
 362 56 362 56 407 92 c 128,-1,38
 452 128 452 128 452 196 c 128,-1,39
 452 264 452 264 397 299.5 c 128,-1,40
 342 335 342 335 263 335 c 0,41,42
 232 335 232 335 196 329 c 1,43,-1
 205 131 l 2,44,45
 207 87 207 87 225 71.5 c 128,-1,46
 243 56 243 56 289 56 c 0,36,37
EndSplineSet
EndChar

StartChar: C
Encoding: 67 67 38
Width: 612
GlyphClass: 2
Flags: W
LayerCount: 2
Fore
SplineSet
318 -10 m 0,0,1
 195 -10 195 -10 124 95 c 128,-1,2
 53 200 53 200 53 354 c 128,-1,3
 53 508 53 508 132 610.5 c 128,-1,4
 211 713 211 713 347 713 c 0,5,6
 428 713 428 713 489 680 c 0,7,8
 493 678 493 678 497 678 c 128,-1,9
 501 678 501 678 502 689 c 2,10,-1
 504 713 l 1,11,12
 508 717 508 717 522 717 c 128,-1,13
 536 717 536 717 542 713 c 1,14,-1
 556 504 l 1,15,16
 552 500 552 500 536.5 500 c 128,-1,17
 521 500 521 500 518 504 c 1,18,19
 509 573 509 573 458 613.5 c 128,-1,20
 407 654 407 654 340 654 c 0,21,22
 239 654 239 654 190.5 581 c 128,-1,23
 142 508 142 508 142 385 c 0,24,25
 142 204 142 204 234 110 c 0,26,27
 283 59 283 59 341.5 59 c 128,-1,28
 400 59 400 59 462 81 c 128,-1,29
 524 103 524 103 561 134 c 1,30,31
 565 130 565 130 571.5 117.5 c 128,-1,32
 578 105 578 105 578 101 c 128,-1,33
 578 97 578 97 575 94 c 0,34,35
 471 -10 471 -10 318 -10 c 0,0,1
EndSplineSet
EndChar

StartChar: D
Encoding: 68 68 39
Width: 659
GlyphClass: 2
Flags: W
LayerCount: 2
Fore
SplineSet
165 697 m 1,0,-1
 286 703 l 1,1,2
 438 703 438 703 522.5 607 c 128,-1,3
 607 511 607 511 607 355 c 128,-1,4
 607 199 607 199 520 99.5 c 128,-1,5
 433 0 433 0 286 0 c 1,6,-1
 165 6 l 1,7,-1
 45 0 l 1,8,9
 42 3 42 3 42 17.5 c 128,-1,10
 42 32 42 32 48 38 c 1,11,12
 115 38 115 38 115 90 c 2,13,-1
 120 614 l 2,14,15
 120 641 120 641 105 653 c 128,-1,16
 90 665 90 665 53 665 c 1,17,18
 47 670 47 670 47 685.5 c 128,-1,19
 47 701 47 701 49 703 c 1,20,21
 49 703 49 703 165 697 c 1,0,-1
289 56 m 0,22,23
 389 56 389 56 454 137 c 128,-1,24
 519 218 519 218 519 324 c 0,25,26
 519 471 519 471 451 561.5 c 128,-1,27
 383 652 383 652 249 652 c 0,28,29
 218 652 218 652 182 646 c 1,30,-1
 205 131 l 2,31,32
 207 88 207 88 226 72 c 128,-1,33
 245 56 245 56 289 56 c 0,22,23
EndSplineSet
EndChar

StartChar: E
Encoding: 69 69 40
Width: 611
GlyphClass: 2
Flags: W
LayerCount: 2
Fore
SplineSet
309 383 m 2,0,1
 352 383 352 383 364 422 c 0,2,3
 368 437 368 437 374 473 c 1,4,5
 378 477 378 477 392 477 c 128,-1,6
 406 477 406 477 412 473 c 1,7,8
 404 412 404 412 404 356.5 c 128,-1,9
 404 301 404 301 412 240 c 1,10,11
 408 236 408 236 392.5 236 c 128,-1,12
 377 236 377 236 374 240 c 1,13,14
 368 274 368 274 363.5 288.5 c 128,-1,15
 359 303 359 303 346 314.5 c 128,-1,16
 333 326 333 326 309 326 c 2,17,-1
 198 326 l 1,18,-1
 204 131 l 2,19,20
 206 89 206 89 219.5 72.5 c 128,-1,21
 233 56 233 56 270 56 c 2,22,-1
 405 56 l 2,23,24
 451 56 451 56 482.5 87.5 c 128,-1,25
 514 119 514 119 544 186 c 1,26,27
 546 188 546 188 559.5 188 c 128,-1,28
 573 188 573 188 582 179 c 1,29,-1
 530 -10 l 1,30,31
 403 3 403 3 264.5 3 c 128,-1,32
 126 3 126 3 43 0 c 1,33,34
 40 3 40 3 40 17.5 c 128,-1,35
 40 32 40 32 46 38 c 1,36,37
 82 38 82 38 97 50.5 c 128,-1,38
 112 63 112 63 113 90 c 2,39,-1
 122 613 l 2,40,41
 122 640 122 640 106.5 652.5 c 128,-1,42
 91 665 91 665 55 665 c 1,43,44
 48 670 48 670 48 685.5 c 128,-1,45
 48 701 48 701 50 703 c 1,46,47
 134 700 134 700 258 700 c 128,-1,48
 382 700 382 700 512 713 c 1,49,-1
 526 537 l 1,50,51
 522 533 522 533 506 533 c 128,-1,52
 490 533 490 533 487 537 c 1,53,54
 478 600 478 600 454 621.5 c 128,-1,55
 430 643 430 643 377 643 c 2,56,-1
 189 643 l 1,57,-1
 197 383 l 1,58,-1
 309 383 l 2,0,1
EndSplineSet
EndChar

StartChar: F
Encoding: 70 70 41
Width: 539
GlyphClass: 2
Flags: W
LayerCount: 2
Fore
SplineSet
165 4 m 1,0,-1
 45 0 l 1,1,2
 42 3 42 3 42 17.5 c 128,-1,3
 42 32 42 32 48 38 c 1,4,5
 115 38 115 38 115 90 c 2,6,-1
 120 613 l 2,7,8
 120 640 120 640 105 652.5 c 128,-1,9
 90 665 90 665 53 665 c 1,10,11
 45 673 45 673 45 687 c 128,-1,12
 45 701 45 701 47 703 c 1,13,14
 131 700 131 700 247.5 700 c 128,-1,15
 364 700 364 700 494 713 c 1,16,-1
 517 528 l 1,17,18
 513 524 513 524 497.5 524 c 128,-1,19
 482 524 482 524 479 528 c 1,20,21
 470 590 470 590 441 616.5 c 128,-1,22
 412 643 412 643 359 643 c 2,23,-1
 186 643 l 1,24,-1
 194 383 l 1,25,-1
 308 383 l 2,26,27
 351 383 351 383 362 422 c 0,28,29
 367 437 367 437 373 473 c 1,30,31
 377 477 377 477 391 477 c 128,-1,32
 405 477 405 477 411 473 c 1,33,34
 403 409 403 409 403 356.5 c 128,-1,35
 403 304 403 304 411 240 c 1,36,37
 407 236 407 236 391.5 236 c 128,-1,38
 376 236 376 236 373 240 c 1,39,40
 367 274 367 274 362.5 288.5 c 128,-1,41
 358 303 358 303 345 314.5 c 128,-1,42
 332 326 332 326 308 326 c 2,43,-1
 195 326 l 1,44,-1
 206 90 l 2,45,46
 208 62 208 62 221.5 50 c 128,-1,47
 235 38 235 38 272 38 c 1,48,49
 277 33 277 33 277 17.5 c 128,-1,50
 277 2 277 2 275 0 c 1,51,-1
 165 4 l 1,0,-1
EndSplineSet
EndChar

StartChar: G
Encoding: 71 71 42
Width: 700
GlyphClass: 2
Flags: W
LayerCount: 2
Fore
SplineSet
505 120 m 2,0,-1
 506 197 l 2,1,2
 506 247 506 247 483.5 262.5 c 128,-1,3
 461 278 461 278 371 285 c 1,4,5
 367 288 367 288 367 304 c 128,-1,6
 367 320 367 320 371 324 c 1,7,8
 427 320 427 320 521 320 c 128,-1,9
 615 320 615 320 672 324 c 1,10,11
 676 318 676 318 676 303.5 c 128,-1,12
 676 289 676 289 672 285 c 1,13,14
 618 279 618 279 606 265 c 128,-1,15
 594 251 594 251 594 211 c 2,16,-1
 594 68 l 1,17,18
 534 28 534 28 481.5 9 c 128,-1,19
 429 -10 429 -10 349 -10 c 0,20,21
 205 -10 205 -10 128.5 92.5 c 128,-1,22
 52 195 52 195 52 350 c 128,-1,23
 52 505 52 505 140 609 c 128,-1,24
 228 713 228 713 378 713 c 0,25,26
 465 713 465 713 529 680 c 0,27,28
 533 678 533 678 536.5 678 c 128,-1,29
 540 678 540 678 541 687 c 2,30,-1
 544 709 l 1,31,32
 548 713 548 713 562 713 c 128,-1,33
 576 713 576 713 582 709 c 1,34,-1
 596 513 l 1,35,36
 592 509 592 509 576.5 509 c 128,-1,37
 561 509 561 509 558 513 c 1,38,39
 549 582 549 582 499 618 c 128,-1,40
 449 654 449 654 380 654 c 0,41,42
 142 654 142 654 142 385 c 0,43,44
 142 309 142 309 167.5 236 c 128,-1,45
 193 163 193 163 246.5 111 c 128,-1,46
 300 59 300 59 370 59 c 128,-1,47
 440 59 440 59 504 85 c 1,48,49
 505 87 505 87 505 120 c 2,0,-1
EndSplineSet
EndChar

StartChar: H
Encoding: 72 72 43
Width: 743
GlyphClass: 2
Flags: W
LayerCount: 2
Fore
SplineSet
588 697 m 1,0,-1
 684 703 l 1,1,2
 687 700 687 700 687 685 c 128,-1,3
 687 670 687 670 682 665 c 1,4,5
 614 665 614 665 616 618 c 2,6,-1
 635 90 l 2,7,8
 636 63 636 63 650.5 50.5 c 128,-1,9
 665 38 665 38 701 38 c 1,10,11
 706 33 706 33 706 17.5 c 128,-1,12
 706 2 706 2 704 0 c 1,13,-1
 592 6 l 1,14,-1
 474 0 l 1,15,16
 471 3 471 3 471 17.5 c 128,-1,17
 471 32 471 32 477 38 c 1,18,19
 513 38 513 38 528.5 50.5 c 128,-1,20
 544 63 544 63 544 90 c 2,21,-1
 546 337 l 1,22,-1
 196 337 l 1,23,-1
 203 90 l 2,24,25
 204 63 204 63 218.5 50.5 c 128,-1,26
 233 38 233 38 269 38 c 1,27,28
 274 33 274 33 274 17.5 c 128,-1,29
 274 2 274 2 272 0 c 1,30,-1
 161 6 l 1,31,-1
 42 0 l 1,32,33
 39 3 39 3 39 17.5 c 128,-1,34
 39 32 39 32 45 38 c 1,35,36
 81 38 81 38 96 50.5 c 128,-1,37
 111 63 111 63 112 90 c 2,38,-1
 123 613 l 2,39,40
 124 640 124 640 108 652.5 c 128,-1,41
 92 665 92 665 56 665 c 1,42,43
 49 670 49 670 49 685.5 c 128,-1,44
 49 701 49 701 51 703 c 1,45,-1
 163 697 l 1,46,-1
 259 703 l 1,47,48
 262 700 262 700 262 685 c 128,-1,49
 262 670 262 670 257 665 c 1,50,51
 220 665 220 665 205 652.5 c 128,-1,52
 190 640 190 640 191 613 c 2,53,-1
 195 395 l 1,54,-1
 546 395 l 1,55,-1
 548 613 l 2,56,57
 548 640 548 640 532.5 652.5 c 128,-1,58
 517 665 517 665 481 665 c 1,59,60
 474 670 474 670 474 685.5 c 128,-1,61
 474 701 474 701 476 703 c 1,62,-1
 588 697 l 1,0,-1
EndSplineSet
EndChar

StartChar: I
Encoding: 73 73 44
Width: 316
GlyphClass: 2
Flags: W
LayerCount: 2
Fore
SplineSet
161 697 m 1,0,-1
 258 703 l 1,1,2
 260 701 260 701 260 685.5 c 128,-1,3
 260 670 260 670 255 665 c 1,4,5
 219 665 219 665 205 652.5 c 128,-1,6
 191 640 191 640 191 613 c 2,7,-1
 206 90 l 2,8,9
 207 63 207 63 221.5 50.5 c 128,-1,10
 236 38 236 38 272 38 c 1,11,12
 277 33 277 33 277 17.5 c 128,-1,13
 277 2 277 2 275 0 c 1,14,-1
 164 6 l 1,15,-1
 45 0 l 1,16,17
 42 3 42 3 42 17.5 c 128,-1,18
 42 32 42 32 48 38 c 1,19,20
 84 38 84 38 99.5 50.5 c 128,-1,21
 115 63 115 63 115 90 c 2,22,-1
 119 613 l 2,23,24
 119 640 119 640 104.5 652.5 c 128,-1,25
 90 665 90 665 54 665 c 1,26,27
 48 670 48 670 48 685.5 c 128,-1,28
 48 701 48 701 50 703 c 1,29,30
 50 703 50 703 161 697 c 1,0,-1
EndSplineSet
EndChar

StartChar: J
Encoding: 74 74 45
Width: 293
GlyphClass: 2
Flags: W
LayerCount: 2
Fore
SplineSet
147 697 m 1,0,-1
 248 703 l 1,1,2
 250 701 250 701 250 685.5 c 128,-1,3
 250 670 250 670 245 665 c 1,4,5
 209 665 209 665 193 652.5 c 128,-1,6
 177 640 177 640 178 613 c 2,7,-1
 190 50 l 1,8,-1
 190 21 l 2,9,10
 190 -60 190 -60 144.5 -108 c 128,-1,11
 99 -156 99 -156 24 -156 c 0,12,13
 -13 -156 -13 -156 -41.5 -134 c 128,-1,14
 -70 -112 -70 -112 -70 -82 c 128,-1,15
 -70 -52 -70 -52 -56 -36 c 128,-1,16
 -42 -20 -42 -20 -22.5 -20 c 128,-1,17
 -3 -20 -3 -20 9 -28.5 c 128,-1,18
 21 -37 21 -37 21 -50 c 128,-1,19
 21 -63 21 -63 16 -69.5 c 128,-1,20
 11 -76 11 -76 11 -80 c 0,21,22
 11 -96 11 -96 41 -96 c 0,23,24
 114 -96 114 -96 114 41 c 2,25,-1
 114 70 l 1,26,-1
 110 613 l 2,27,28
 110 665 110 665 43 665 c 1,29,30
 36 670 36 670 36 685.5 c 128,-1,31
 36 701 36 701 38 703 c 1,32,-1
 147 697 l 1,0,-1
EndSplineSet
EndChar

StartChar: K
Encoding: 75 75 46
Width: 657
GlyphClass: 2
Flags: W
LayerCount: 2
Fore
SplineSet
159 696 m 1,0,-1
 256 703 l 1,1,2
 258 701 258 701 258 685.5 c 128,-1,3
 258 670 258 670 253 665 c 1,4,5
 217 665 217 665 202 652.5 c 128,-1,6
 187 640 187 640 187 613 c 2,7,-1
 195 387 l 1,8,9
 213 388 213 388 225 394.5 c 128,-1,10
 237 401 237 401 261 426 c 0,11,12
 311 478 311 478 405 604 c 1,13,14
 419 621 419 621 419 636 c 0,15,16
 419 665 419 665 362 665 c 1,17,18
 355 670 355 670 355 685.5 c 128,-1,19
 355 701 355 701 357 703 c 1,20,-1
 489 695 l 1,21,22
 517 695 517 695 553.5 699 c 128,-1,23
 590 703 590 703 607 703 c 1,24,25
 609 699 609 699 609 685 c 128,-1,26
 609 671 609 671 603 665 c 1,27,28
 549 665 549 665 519 638 c 0,29,30
 508 628 508 628 487 603 c 2,31,-1
 291 369 l 1,32,33
 507 133 507 133 535 105 c 0,34,35
 604 38 604 38 666 38 c 1,36,37
 673 29 673 29 673 15.5 c 128,-1,38
 673 2 673 2 671 0 c 1,39,-1
 535 7 l 1,40,-1
 393 0 l 1,41,42
 391 1 391 1 391 16.5 c 128,-1,43
 391 32 391 32 397 38 c 1,44,45
 445 38 445 38 445 56.5 c 128,-1,46
 445 75 445 75 385.5 155 c 128,-1,47
 326 235 326 235 263 302 c 0,48,49
 246 321 246 321 233 326.5 c 128,-1,50
 220 332 220 332 196 333 c 1,51,-1
 206 90 l 2,52,53
 207 63 207 63 221.5 50.5 c 128,-1,54
 236 38 236 38 272 38 c 1,55,56
 277 33 277 33 277 17.5 c 128,-1,57
 277 2 277 2 275 0 c 1,58,-1
 164 6 l 1,59,-1
 45 0 l 1,60,61
 42 3 42 3 42 17.5 c 128,-1,62
 42 32 42 32 48 38 c 1,63,64
 83 38 83 38 99.5 50.5 c 128,-1,65
 116 63 116 63 119 90 c 1,66,-1
 119 613 l 2,67,68
 119 640 119 640 104 652.5 c 128,-1,69
 89 665 89 665 52 665 c 1,70,71
 46 670 46 670 46 685.5 c 128,-1,72
 46 701 46 701 48 703 c 1,73,-1
 159 696 l 1,0,-1
EndSplineSet
EndChar

StartChar: L
Encoding: 76 76 47
Width: 539
GlyphClass: 2
Flags: W
LayerCount: 2
Fore
SplineSet
159 697 m 1,0,-1
 259 703 l 1,1,2
 261 701 261 701 261 685.5 c 128,-1,3
 261 670 261 670 256 665 c 1,4,5
 220 665 220 665 205 652.5 c 128,-1,6
 190 640 190 640 190 613 c 2,7,-1
 206 131 l 2,8,9
 208 89 208 89 221.5 72.5 c 128,-1,10
 235 56 235 56 272 56 c 2,11,-1
 354 56 l 2,12,13
 401 56 401 56 432.5 87 c 128,-1,14
 464 118 464 118 494 186 c 1,15,16
 496 188 496 188 509.5 188 c 128,-1,17
 523 188 523 188 532 179 c 1,18,-1
 480 -10 l 1,19,20
 355 3 355 3 240.5 3 c 128,-1,21
 126 3 126 3 45 0 c 1,22,23
 42 3 42 3 42 17.5 c 128,-1,24
 42 32 42 32 48 38 c 1,25,26
 115 38 115 38 115 90 c 2,27,-1
 121 613 l 2,28,29
 121 640 121 640 105.5 652.5 c 128,-1,30
 90 665 90 665 54 665 c 1,31,32
 47 670 47 670 47 685.5 c 128,-1,33
 47 701 47 701 49 703 c 1,34,-1
 159 697 l 1,0,-1
EndSplineSet
EndChar

StartChar: M
Encoding: 77 77 48
Width: 872
GlyphClass: 2
Flags: W
LayerCount: 2
Fore
SplineSet
733 6 m 1,0,-1
 614 0 l 1,1,2
 611 3 611 3 611 17.5 c 128,-1,3
 611 32 611 32 617 38 c 1,4,5
 647 38 647 38 666 49 c 128,-1,6
 685 60 685 60 684 90 c 2,7,-1
 663 530 l 1,8,-1
 450 0 l 1,9,10
 446 -4 446 -4 428 -4 c 128,-1,11
 410 -4 410 -4 407 0 c 1,12,-1
 198 530 l 1,13,14
 171 86 171 86 171 84 c 0,15,16
 171 38 171 38 238 38 c 1,17,18
 245 29 245 29 245 15.5 c 128,-1,19
 245 2 245 2 243 0 c 1,20,-1
 129 6 l 1,21,-1
 29 0 l 1,22,23
 26 3 26 3 26 17.5 c 128,-1,24
 26 32 26 32 32 38 c 1,25,26
 67 38 67 38 81.5 50 c 128,-1,27
 96 62 96 62 98 90 c 2,28,-1
 142 613 l 1,29,30
 142 647 142 647 132 655.5 c 128,-1,31
 122 664 122 664 82 665 c 1,32,33
 76 670 76 670 76 685.5 c 128,-1,34
 76 701 76 701 78 703 c 1,35,36
 120 697 120 697 149 697 c 128,-1,37
 178 697 178 697 226 703 c 1,38,-1
 437 128 l 1,39,-1
 662 703 l 1,40,41
 710 697 710 697 732.5 697 c 128,-1,42
 755 697 755 697 797 703 c 1,43,44
 800 700 800 700 800 685 c 128,-1,45
 800 670 800 670 795 665 c 1,46,47
 757 665 757 665 743 653 c 128,-1,48
 729 641 729 641 729 619 c 0,49,50
 729 616 729 616 775 90 c 0,51,52
 777 62 777 62 791.5 50 c 128,-1,53
 806 38 806 38 841 38 c 1,54,55
 846 33 846 33 846 17.5 c 128,-1,56
 846 2 846 2 844 0 c 1,57,-1
 733 6 l 1,0,-1
EndSplineSet
EndChar

StartChar: N
Encoding: 78 78 49
Width: 739
GlyphClass: 2
Flags: W
LayerCount: 2
Fore
SplineSet
599 697 m 1,0,-1
 702 703 l 1,1,2
 704 699 704 699 704 685.5 c 128,-1,3
 704 672 704 672 697 665 c 1,4,5
 660 665 660 665 645.5 653 c 128,-1,6
 631 641 631 641 631 613 c 2,7,-1
 623 0 l 1,8,9
 619 -4 619 -4 598.5 -4 c 128,-1,10
 578 -4 578 -4 575 0 c 2,11,-1
 181 597 l 1,12,-1
 199 90 l 2,13,14
 200 62 200 62 214.5 50 c 128,-1,15
 229 38 229 38 266 38 c 1,16,17
 273 29 273 29 273 15.5 c 128,-1,18
 273 2 273 2 271 0 c 1,19,-1
 147 6 l 1,20,-1
 43 0 l 1,21,22
 40 3 40 3 40 17.5 c 128,-1,23
 40 32 40 32 46 38 c 1,24,25
 82 38 82 38 96.5 50.5 c 128,-1,26
 111 63 111 63 112 90 c 2,27,-1
 123 613 l 2,28,29
 124 640 124 640 108 652.5 c 128,-1,30
 92 665 92 665 56 665 c 1,31,32
 49 670 49 670 49 685.5 c 128,-1,33
 49 701 49 701 51 703 c 1,34,35
 93 697 93 697 133 697 c 128,-1,36
 173 697 173 697 215 703 c 1,37,-1
 571 135 l 1,38,-1
 554 613 l 2,39,40
 553 640 553 640 538 652.5 c 128,-1,41
 523 665 523 665 488 665 c 1,42,43
 482 671 482 671 482 685.5 c 128,-1,44
 482 700 482 700 485 703 c 1,45,-1
 599 697 l 1,0,-1
EndSplineSet
EndChar

StartChar: O
Encoding: 79 79 50
Width: 703
GlyphClass: 2
Flags: W
LayerCount: 2
Fore
SplineSet
53 352 m 0,0,1
 53 568 53 568 182 663 c 0,2,3
 249 713 249 713 344 713 c 0,4,5
 490 713 490 713 570.5 610.5 c 128,-1,6
 651 508 651 508 651 352.5 c 128,-1,7
 651 197 651 197 570.5 93.5 c 128,-1,8
 490 -10 490 -10 346.5 -10 c 128,-1,9
 203 -10 203 -10 128 93 c 128,-1,10
 53 196 53 196 53 352 c 0,0,1
361 49 m 0,11,12
 564 49 564 49 564 321 c 0,13,14
 564 458 564 458 517 550 c 0,15,16
 492 599 492 599 446.5 626.5 c 128,-1,17
 401 654 401 654 338 654 c 0,18,19
 234 654 234 654 187 580 c 128,-1,20
 140 506 140 506 140 388 c 0,21,22
 140 215 140 215 212 120 c 0,23,24
 236 88 236 88 274.5 68.5 c 128,-1,25
 313 49 313 49 361 49 c 0,11,12
EndSplineSet
EndChar

StartChar: P
Encoding: 80 80 51
Width: 548
GlyphClass: 2
Flags: W
LayerCount: 2
Fore
SplineSet
145 697 m 1,0,-1
 294 703 l 1,1,2
 389 703 389 703 453 652.5 c 128,-1,3
 517 602 517 602 517 514 c 0,4,5
 517 411 517 411 439.5 351 c 128,-1,6
 362 291 362 291 249 289 c 1,7,8
 245 293 245 293 238 305.5 c 128,-1,9
 231 318 231 318 231 322 c 128,-1,10
 231 326 231 326 232 327 c 1,11,12
 427 327 427 327 427 500 c 0,13,14
 427 580 427 580 383.5 616 c 128,-1,15
 340 652 340 652 255 652 c 0,16,17
 214 652 214 652 180 645 c 1,18,-1
 206 90 l 2,19,20
 208 62 208 62 222 50 c 128,-1,21
 236 38 236 38 272 38 c 1,22,23
 277 33 277 33 277 17.5 c 128,-1,24
 277 2 277 2 275 0 c 1,25,-1
 165 6 l 1,26,-1
 45 0 l 1,27,28
 42 3 42 3 42 17.5 c 128,-1,29
 42 32 42 32 48 38 c 1,30,31
 115 38 115 38 115 90 c 2,32,-1
 119 614 l 2,33,34
 119 641 119 641 104 653 c 128,-1,35
 89 665 89 665 52 665 c 1,36,37
 46 670 46 670 46 685.5 c 128,-1,38
 46 701 46 701 48 703 c 1,39,-1
 145 697 l 1,0,-1
EndSplineSet
EndChar

StartChar: Q
Encoding: 81 81 52
Width: 703
GlyphClass: 2
Flags: W
LayerCount: 2
Fore
SplineSet
418 0 m 1,0,1
 585 -91 585 -91 649 -91 c 0,2,3
 691 -91 691 -91 737 -72 c 128,-1,4
 783 -53 783 -53 816 -27 c 1,5,6
 824 -29 824 -29 830 -64 c 1,7,8
 794 -95 794 -95 729 -125 c 128,-1,9
 664 -155 664 -155 605 -155 c 128,-1,10
 546 -155 546 -155 444 -107.5 c 128,-1,11
 342 -60 342 -60 319 -60 c 128,-1,12
 296 -60 296 -60 281.5 -65 c 128,-1,13
 267 -70 267 -70 258.5 -76 c 128,-1,14
 250 -82 250 -82 230 -98 c 1,15,16
 226 -94 226 -94 220 -82 c 128,-1,17
 214 -70 214 -70 214 -64 c 0,18,19
 214 -54 214 -54 249.5 -31 c 128,-1,20
 285 -8 285 -8 313 -6 c 1,21,22
 228 2 228 2 168 54 c 0,23,24
 53 152 53 152 53 354 c 0,25,26
 53 512 53 512 127.5 612.5 c 128,-1,27
 202 713 202 713 346.5 713 c 128,-1,28
 491 713 491 713 571 612 c 128,-1,29
 651 511 651 511 651 354 c 0,30,31
 651 221 651 221 590.5 123.5 c 128,-1,32
 530 26 530 26 418 0 c 1,0,1
361 51 m 0,33,34
 469 51 469 51 516.5 125 c 128,-1,35
 564 199 564 199 564 319 c 0,36,37
 564 458 564 458 518 551 c 0,38,39
 493 600 493 600 447 627 c 128,-1,40
 401 654 401 654 334 654 c 128,-1,41
 267 654 267 654 221 617 c 128,-1,42
 175 580 175 580 157.5 523.5 c 128,-1,43
 140 467 140 467 140 396 c 128,-1,44
 140 325 140 325 151.5 267.5 c 128,-1,45
 163 210 163 210 187.5 160 c 128,-1,46
 212 110 212 110 256.5 80.5 c 128,-1,47
 301 51 301 51 361 51 c 0,33,34
EndSplineSet
EndChar

StartChar: R
Encoding: 82 82 53
Width: 627
GlyphClass: 2
Flags: W
LayerCount: 2
Fore
SplineSet
255 652 m 0,0,1
 214 652 214 652 180 645 c 1,2,-1
 190 365 l 1,3,-1
 244 365 l 2,4,5
 319 365 319 365 367 403 c 128,-1,6
 415 441 415 441 415 509.5 c 128,-1,7
 415 578 415 578 373 615 c 128,-1,8
 331 652 331 652 255 652 c 0,0,1
145 697 m 1,9,-1
 294 703 l 1,10,11
 379 703 379 703 441.5 650.5 c 128,-1,12
 504 598 504 598 504 523.5 c 128,-1,13
 504 449 504 449 461.5 395 c 128,-1,14
 419 341 419 341 344 321 c 1,15,-1
 445 204 l 2,16,17
 531 104 531 104 570 71 c 128,-1,18
 609 38 609 38 650 38 c 1,19,20
 656 30 656 30 656 16 c 128,-1,21
 656 2 656 2 654 0 c 1,22,23
 639 0 639 0 601.5 4.5 c 128,-1,24
 564 9 564 9 537 9 c 128,-1,25
 510 9 510 9 462 4.5 c 128,-1,26
 414 0 414 0 396 0 c 1,27,28
 394 1 394 1 394 16 c 128,-1,29
 394 31 394 31 401 38 c 1,30,31
 448 38 448 38 448 58 c 0,32,33
 448 82 448 82 368.5 177.5 c 128,-1,34
 289 273 289 273 264.5 292 c 128,-1,35
 240 311 240 311 196 311 c 1,36,-1
 206 90 l 2,37,38
 207 63 207 63 221.5 50.5 c 128,-1,39
 236 38 236 38 272 38 c 1,40,41
 277 33 277 33 277 17.5 c 128,-1,42
 277 2 277 2 275 0 c 1,43,-1
 165 6 l 1,44,-1
 45 0 l 1,45,46
 42 3 42 3 42 17.5 c 128,-1,47
 42 32 42 32 48 38 c 1,48,49
 115 38 115 38 115 90 c 2,50,-1
 119 614 l 2,51,52
 119 641 119 641 104 653 c 128,-1,53
 89 665 89 665 52 665 c 1,54,55
 46 670 46 670 46 685.5 c 128,-1,56
 46 701 46 701 48 703 c 1,57,-1
 145 697 l 1,9,-1
EndSplineSet
EndChar

StartChar: S
Encoding: 83 83 54
Width: 534
GlyphClass: 2
Flags: W
LayerCount: 2
Fore
SplineSet
398 709 m 1,0,1
 402 713 402 713 416 713 c 128,-1,2
 430 713 430 713 436 709 c 1,3,-1
 450 504 l 1,4,5
 446 500 446 500 430.5 500 c 128,-1,6
 415 500 415 500 412 504 c 1,7,8
 404 570 404 570 382 609 c 1,9,10
 355 654 355 654 282 654 c 0,11,12
 227 654 227 654 193.5 619.5 c 128,-1,13
 160 585 160 585 160 542 c 128,-1,14
 160 499 160 499 194 466 c 128,-1,15
 228 433 228 433 276.5 406.5 c 128,-1,16
 325 380 325 380 373.5 351 c 128,-1,17
 422 322 422 322 456 277 c 128,-1,18
 490 232 490 232 490 173 c 128,-1,19
 490 114 490 114 452 70 c 0,20,21
 383 -10 383 -10 268 -10 c 0,22,23
 185 -10 185 -10 120 23 c 0,24,25
 116 25 116 25 112.5 25 c 128,-1,26
 109 25 109 25 108 16 c 2,27,-1
 105 -6 l 1,28,29
 101 -10 101 -10 85.5 -10 c 128,-1,30
 70 -10 70 -10 67 -6 c 1,31,-1
 53 199 l 1,32,33
 57 203 57 203 71 203 c 128,-1,34
 85 203 85 203 91 199 c 1,35,36
 100 130 100 130 154 89.5 c 128,-1,37
 208 49 208 49 279 49 c 0,38,39
 326 49 326 49 363.5 79.5 c 128,-1,40
 401 110 401 110 401 164 c 0,41,42
 401 199 401 199 367 228.5 c 128,-1,43
 333 258 333 258 285 282.5 c 128,-1,44
 237 307 237 307 189 335 c 128,-1,45
 141 363 141 363 107 410 c 128,-1,46
 73 457 73 457 73 518 c 0,47,48
 73 607 73 607 129.5 660.5 c 128,-1,49
 186 714 186 714 259 714 c 128,-1,50
 332 714 332 714 382 681 c 0,51,52
 386 678 386 678 390 678 c 128,-1,53
 394 678 394 678 395 687 c 2,54,-1
 398 709 l 1,0,1
EndSplineSet
EndChar

StartChar: T
Encoding: 84 84 55
Width: 572
GlyphClass: 2
Flags: W
LayerCount: 2
Fore
SplineSet
296 6 m 1,0,-1
 177 0 l 1,1,2
 174 3 174 3 174 18 c 128,-1,3
 174 33 174 33 179 38 c 1,4,5
 215 38 215 38 230.5 50.5 c 128,-1,6
 246 63 246 63 246 90 c 2,7,-1
 250 650 l 1,8,-1
 169 650 l 2,9,10
 109 650 109 650 86.5 625 c 128,-1,11
 64 600 64 600 54 543 c 1,12,13
 50 539 50 539 34.5 539 c 128,-1,14
 19 539 19 539 16 543 c 1,15,-1
 33 713 l 1,16,17
 144 702 144 702 285 702 c 128,-1,18
 426 702 426 702 539 713 c 1,19,-1
 554 543 l 1,20,21
 550 539 550 539 534.5 539 c 128,-1,22
 519 539 519 539 516 543 c 1,23,24
 506 600 506 600 484.5 625 c 128,-1,25
 463 650 463 650 403 650 c 2,26,-1
 320 650 l 1,27,-1
 338 90 l 2,28,29
 339 63 339 63 353.5 50.5 c 128,-1,30
 368 38 368 38 404 38 c 1,31,32
 409 33 409 33 409 18 c 128,-1,33
 409 3 409 3 406 0 c 1,34,-1
 296 6 l 1,0,-1
EndSplineSet
EndChar

StartChar: U
Encoding: 85 85 56
Width: 711
GlyphClass: 2
Flags: W
LayerCount: 2
Fore
SplineSet
570 697 m 1,0,-1
 699 703 l 1,1,2
 701 699 701 699 701 685 c 128,-1,3
 701 671 701 671 695 665 c 1,4,5
 651 665 651 665 632 652.5 c 128,-1,6
 613 640 613 640 613 613 c 2,7,-1
 611 248 l 2,8,9
 610 127 610 127 538 58.5 c 128,-1,10
 466 -10 466 -10 346 -10 c 128,-1,11
 226 -10 226 -10 163.5 58 c 128,-1,12
 101 126 101 126 102 248 c 2,13,-1
 103 613 l 2,14,15
 103 641 103 641 85.5 653 c 128,-1,16
 68 665 68 665 18 665 c 1,17,18
 12 671 12 671 12 685.5 c 128,-1,19
 12 700 12 700 15 703 c 1,20,-1
 152 697 l 1,21,-1
 282 703 l 1,22,23
 284 701 284 701 284 685.5 c 128,-1,24
 284 670 284 670 279 665 c 1,25,26
 230 665 230 665 210.5 652.5 c 128,-1,27
 191 640 191 640 192 613 c 2,28,-1
 201 259 l 2,29,30
 204 156 204 156 237.5 102.5 c 128,-1,31
 271 49 271 49 361 49 c 128,-1,32
 451 49 451 49 497.5 105 c 128,-1,33
 544 161 544 161 543 259 c 2,34,-1
 539 613 l 2,35,36
 539 638 539 638 513.5 651.5 c 128,-1,37
 488 665 488 665 448 665 c 1,38,39
 442 671 442 671 442 685.5 c 128,-1,40
 442 700 442 700 445 703 c 1,41,-1
 570 697 l 1,0,-1
EndSplineSet
EndChar

StartChar: V
Encoding: 86 86 57
Width: 696
GlyphClass: 2
Flags: W
LayerCount: 2
Fore
SplineSet
564 694 m 1,0,-1
 702 703 l 1,1,2
 704 699 704 699 704 685.5 c 128,-1,3
 704 672 704 672 697 665 c 1,4,5
 663 665 663 665 642 644 c 128,-1,6
 621 623 621 623 603 578 c 2,7,-1
 373 0 l 1,8,9
 369 -4 369 -4 351 -4 c 128,-1,10
 333 -4 333 -4 330 0 c 1,11,-1
 88 578 l 2,12,13
 66 631 66 631 53 644 c 0,14,15
 31 665 31 665 -16 665 c 1,16,17
 -23 670 -23 670 -23 685.5 c 128,-1,18
 -23 701 -23 701 -21 703 c 1,19,-1
 127 694 l 1,20,-1
 271 703 l 1,21,22
 273 699 273 699 273 685.5 c 128,-1,23
 273 672 273 672 266 665 c 1,24,25
 180 665 180 665 180 615 c 0,26,27
 180 599 180 599 188 578 c 2,28,-1
 361 127 l 1,29,-1
 531 578 l 2,30,31
 538 599 538 599 538 612 c 0,32,33
 538 665 538 665 452 665 c 1,34,35
 445 670 445 670 445 685.5 c 128,-1,36
 445 701 445 701 447 703 c 1,37,-1
 564 694 l 1,0,-1
EndSplineSet
EndChar

StartChar: W
Encoding: 87 87 58
Width: 981
GlyphClass: 2
Flags: W
LayerCount: 2
Fore
SplineSet
856 694 m 1,0,-1
 985 703 l 1,1,2
 987 699 987 699 987 685.5 c 128,-1,3
 987 672 987 672 980 665 c 1,4,5
 947 665 947 665 927 644 c 128,-1,6
 907 623 907 623 891 578 c 2,7,-1
 679 0 l 1,8,9
 675 -4 675 -4 659.5 -4 c 128,-1,10
 644 -4 644 -4 641 0 c 1,11,-1
 490 392 l 1,12,-1
 347 0 l 1,13,14
 343 -4 343 -4 327.5 -4 c 128,-1,15
 312 -4 312 -4 309 0 c 1,16,17
 74 609 74 609 69.5 618 c 128,-1,18
 65 627 65 627 54 641 c 0,19,20
 34 665 34 665 -16 665 c 1,21,22
 -22 670 -22 670 -22 685.5 c 128,-1,23
 -22 701 -22 701 -20 703 c 1,24,-1
 121 694 l 1,25,26
 148 694 148 694 182 698.5 c 128,-1,27
 216 703 216 703 233 703 c 1,28,29
 235 699 235 699 235 685.5 c 128,-1,30
 235 672 235 672 228 665 c 1,31,32
 166 665 166 665 166 624 c 0,33,34
 166 606 166 606 177 578 c 1,35,-1
 337 127 l 1,36,-1
 458 476 l 1,37,38
 400 626 400 626 394.5 636.5 c 128,-1,39
 389 647 389 647 384.5 649.5 c 128,-1,40
 380 652 380 652 373 657 c 0,41,42
 362 665 362 665 335 665 c 1,43,44
 328 670 328 670 328 685.5 c 128,-1,45
 328 701 328 701 330 703 c 1,46,47
 346 703 346 703 388 698.5 c 128,-1,48
 430 694 430 694 457 694 c 128,-1,49
 484 694 484 694 530 698.5 c 128,-1,50
 576 703 576 703 592 703 c 1,51,52
 594 699 594 699 594 685 c 128,-1,53
 594 671 594 671 588 665 c 1,54,55
 500 665 500 665 500 617 c 0,56,57
 500 600 500 600 509 578 c 1,58,-1
 669 127 l 1,59,-1
 827 578 l 2,60,61
 833 596 833 596 833 610 c 0,62,63
 833 665 833 665 751 665 c 1,64,65
 744 670 744 670 744 685.5 c 128,-1,66
 744 701 744 701 746 703 c 1,67,68
 746 703 746 703 856 694 c 1,0,-1
EndSplineSet
EndChar

StartChar: X
Encoding: 88 88 59
Width: 720
GlyphClass: 2
Flags: W
LayerCount: 2
Fore
SplineSet
142 694 m 1,0,-1
 284 703 l 1,1,2
 286 699 286 699 286 685.5 c 128,-1,3
 286 672 286 672 279 665 c 1,4,5
 226 665 226 665 226 639 c 0,6,7
 226 616 226 616 268 557 c 2,8,-1
 365 421 l 1,9,-1
 503 604 l 2,10,11
 516 621 516 621 516 634 c 0,12,13
 516 665 516 665 447 665 c 1,14,15
 441 669 441 669 441 685 c 128,-1,16
 441 701 441 701 443 703 c 1,17,18
 460 703 460 703 504.5 698.5 c 128,-1,19
 549 694 549 694 576.5 694 c 128,-1,20
 604 694 604 694 648 698.5 c 128,-1,21
 692 703 692 703 709 703 c 1,22,23
 711 701 711 701 711 687 c 128,-1,24
 711 673 711 673 703 665 c 1,25,26
 655 665 655 665 638 656 c 128,-1,27
 621 647 621 647 585 599 c 2,28,-1
 407 361 l 1,29,30
 578 119 578 119 587.5 108.5 c 128,-1,31
 597 98 597 98 608.5 85 c 128,-1,32
 620 72 620 72 627.5 67 c 128,-1,33
 635 62 635 62 645.5 54.5 c 128,-1,34
 656 47 656 47 666 44 c 0,35,36
 690 38 690 38 710 38 c 1,37,38
 717 29 717 29 717 15.5 c 128,-1,39
 717 2 717 2 715 0 c 1,40,41
 698 0 698 0 659 4 c 128,-1,42
 620 8 620 8 591 8 c 1,43,-1
 436 0 l 1,44,45
 434 1 434 1 434 16 c 128,-1,46
 434 31 434 31 441 38 c 1,47,48
 491 38 491 38 491 63 c 0,49,50
 491 85 491 85 447 149 c 2,51,-1
 352 286 l 1,52,-1
 213 97 l 2,53,54
 194 71 194 71 194 58 c 0,55,56
 194 38 194 38 254 38 c 1,57,58
 261 31 261 31 261 16.5 c 128,-1,59
 261 2 261 2 259 0 c 1,60,61
 242 0 242 0 204 4 c 128,-1,62
 166 8 166 8 138 8 c 1,63,-1
 6 0 l 1,64,65
 4 2 4 2 4 16 c 128,-1,66
 4 30 4 30 12 38 c 1,67,68
 50 38 50 38 75 50 c 128,-1,69
 100 62 100 62 131 104 c 2,70,-1
 311 347 l 1,71,72
 224 469 224 469 196.5 508 c 128,-1,73
 169 547 169 547 160.5 559 c 128,-1,74
 152 571 152 571 136.5 591 c 128,-1,75
 121 611 121 611 113 619 c 128,-1,76
 105 627 105 627 91.5 638.5 c 128,-1,77
 78 650 78 650 68 654 c 0,78,79
 39 665 39 665 13 665 c 1,80,81
 7 670 7 670 7 685.5 c 128,-1,82
 7 701 7 701 9 703 c 1,83,84
 25 703 25 703 69.5 698.5 c 128,-1,85
 114 694 114 694 142 694 c 1,0,-1
EndSplineSet
EndChar

StartChar: Y
Encoding: 89 89 60
Width: 640
GlyphClass: 2
Flags: W
LayerCount: 2
Fore
SplineSet
332 6 m 1,0,-1
 213 0 l 1,1,2
 210 3 210 3 210 17.5 c 128,-1,3
 210 32 210 32 216 38 c 1,4,5
 252 38 252 38 267 50.5 c 128,-1,6
 282 63 282 63 283 90 c 2,7,-1
 288 256 l 1,8,9
 92 601 92 601 83.5 612.5 c 128,-1,10
 75 624 75 624 60 638 c 0,11,12
 33 665 33 665 -25 665 c 1,13,14
 -32 670 -32 670 -32 685.5 c 128,-1,15
 -32 701 -32 701 -30 703 c 1,16,17
 -12 703 -12 703 33 698.5 c 128,-1,18
 78 694 78 694 109 694 c 128,-1,19
 140 694 140 694 183 698.5 c 128,-1,20
 226 703 226 703 245 703 c 1,21,22
 247 699 247 699 247 685.5 c 128,-1,23
 247 672 247 672 240 665 c 1,24,25
 178 665 178 665 178 630 c 0,26,27
 178 608 178 608 198 575 c 2,28,-1
 335 348 l 1,29,-1
 453 575 l 2,30,31
 478 623 478 623 478 641 c 0,32,33
 478 665 478 665 435 665 c 1,34,35
 428 672 428 672 428 686.5 c 128,-1,36
 428 701 428 701 430 703 c 1,37,38
 446 703 446 703 481.5 698.5 c 128,-1,39
 517 694 517 694 542.5 694 c 128,-1,40
 568 694 568 694 599.5 698.5 c 128,-1,41
 631 703 631 703 647 703 c 1,42,43
 649 699 649 699 649 685 c 128,-1,44
 649 671 649 671 643 665 c 1,45,46
 596 665 596 665 571 643 c 128,-1,47
 546 621 546 621 521 575 c 2,48,-1
 362 275 l 1,49,-1
 374 90 l 2,50,51
 376 63 376 63 390 50.5 c 128,-1,52
 404 38 404 38 440 38 c 1,53,54
 446 32 446 32 446 17.5 c 128,-1,55
 446 3 446 3 443 0 c 1,56,-1
 332 6 l 1,0,-1
EndSplineSet
EndChar

StartChar: Z
Encoding: 90 90 61
Width: 588
GlyphClass: 2
Flags: W
LayerCount: 2
Fore
SplineSet
137 72 m 2,0,1
 130 62 130 62 130 57 c 128,-1,2
 130 52 130 52 133 51 c 1,3,-1
 403 60 l 2,4,5
 450 61 450 61 466 100.5 c 128,-1,6
 482 140 482 140 484 224 c 0,7,8
 485 225 485 225 492.5 225 c 128,-1,9
 500 225 500 225 517 221 c 128,-1,10
 534 217 534 217 537 214 c 1,11,-1
 525 -10 l 1,12,13
 395 3 395 3 260.5 3 c 128,-1,14
 126 3 126 3 42 0 c 1,15,16
 37 1 37 1 37 15 c 1,17,-1
 45 67 l 1,18,-1
 422 626 l 2,19,20
 426 633 426 633 425 640 c 0,21,22
 424 645 424 645 406 645 c 1,23,-1
 212 634 l 1,24,25
 144 629 144 629 126 609 c 128,-1,26
 108 589 108 589 98 527 c 1,27,28
 94 523 94 523 78 523 c 128,-1,29
 62 523 62 523 59 527 c 1,30,-1
 76 713 l 1,31,32
 206 700 206 700 322.5 700 c 128,-1,33
 439 700 439 700 523 703 c 1,34,35
 533 699 533 699 533 673 c 1,36,-1
 532 651 l 1,37,-1
 137 72 l 2,0,1
EndSplineSet
EndChar

StartChar: bracketleft
Encoding: 91 91 62
Width: 376
GlyphClass: 2
Flags: W
LayerCount: 2
Fore
SplineSet
361 770 m 1,0,1
 367 761 367 761 367 747.5 c 128,-1,2
 367 734 367 734 358 707 c 1,3,4
 314 711 314 711 179 711 c 2,5,-1
 145 711 l 1,6,-1
 150 -229 l 1,7,8
 335 -229 335 -229 360 -227 c 1,9,10
 369 -249 369 -249 369 -265.5 c 128,-1,11
 369 -282 369 -282 363 -290 c 1,12,13
 256 -280 256 -280 181 -280 c 128,-1,14
 106 -280 106 -280 78 -281 c 1,15,-1
 88 760 l 1,16,17
 113 759 113 759 182.5 759 c 128,-1,18
 252 759 252 759 361 770 c 1,0,1
EndSplineSet
EndChar

StartChar: backslash
Encoding: 92 92 63
Width: 395
GlyphClass: 2
Flags: W
LayerCount: 2
Fore
SplineSet
34 763 m 1,0,1
 39 773 39 773 55.5 779 c 128,-1,2
 72 785 72 785 100 786 c 1,3,4
 130 680 130 680 225 394 c 128,-1,5
 320 108 320 108 360 3 c 1,6,7
 346 -15 346 -15 293 -15 c 1,8,9
 264 90 264 90 169.5 373 c 128,-1,10
 75 656 75 656 34 763 c 1,0,1
EndSplineSet
EndChar

StartChar: bracketright
Encoding: 93 93 64
Width: 376
GlyphClass: 2
Flags: W
LayerCount: 2
Fore
SplineSet
13 -290 m 1,0,1
 7 -284 7 -284 7 -266.5 c 128,-1,2
 7 -249 7 -249 16 -227 c 1,3,4
 41 -229 41 -229 226 -229 c 1,5,-1
 231 711 l 1,6,-1
 197 711 l 2,7,8
 62 711 62 711 18 707 c 1,9,10
 9 729 9 729 9 746 c 128,-1,11
 9 763 9 763 15 770 c 1,12,13
 124 759 124 759 193.5 759 c 128,-1,14
 263 759 263 759 288 760 c 1,15,-1
 298 -281 l 1,16,17
 270 -280 270 -280 195 -280 c 128,-1,18
 120 -280 120 -280 13 -290 c 1,0,1
EndSplineSet
EndChar

StartChar: asciicircum
Encoding: 94 94 65
Width: 456
GlyphClass: 2
Flags: W
LayerCount: 2
Fore
SplineSet
210 703 m 1,0,1
 214 707 214 707 227 707 c 128,-1,2
 240 707 240 707 246 703 c 1,3,-1
 434 359 l 1,4,5
 429 355 429 355 405.5 355 c 128,-1,6
 382 355 382 355 378 359 c 1,7,-1
 228 605 l 1,8,-1
 78 359 l 1,9,10
 73 355 73 355 49.5 355 c 128,-1,11
 26 355 26 355 22 359 c 1,12,-1
 210 703 l 1,0,1
EndSplineSet
EndChar

StartChar: underscore
Encoding: 95 95 66
Width: 631
GlyphClass: 2
Flags: W
LayerCount: 2
Fore
SplineSet
562 0 m 1,0,1
 472 2 472 2 315.5 2 c 128,-1,2
 159 2 159 2 71 0 c 1,3,4
 62 22 62 22 62 39 c 128,-1,5
 62 56 62 56 68 63 c 1,6,7
 112 61 112 61 316 61 c 128,-1,8
 520 61 520 61 565 63 c 1,9,10
 570 45 570 45 570 26.5 c 128,-1,11
 570 8 570 8 562 0 c 1,0,1
EndSplineSet
EndChar

StartChar: grave
Encoding: 96 96 67
Width: 242
GlyphClass: 2
Flags: W
LayerCount: 2
Fore
SplineSet
34 692 m 0,0,1
 34 706 34 706 49.5 735.5 c 128,-1,2
 65 765 65 765 88 765 c 1,3,4
 125 693 125 693 226 607 c 1,5,6
 224 592 224 592 217 581.5 c 128,-1,7
 210 571 210 571 204.5 571 c 128,-1,8
 199 571 199 571 116.5 625.5 c 128,-1,9
 34 680 34 680 34 692 c 0,0,1
EndSplineSet
EndChar

StartChar: a
Encoding: 97 97 68
Width: 480
GlyphClass: 2
Flags: W
LayerCount: 2
Fore
SplineSet
77 25.5 m 128,-1,1
 39 61 39 61 39 116 c 128,-1,2
 39 171 39 171 85.5 207.5 c 128,-1,3
 132 244 132 244 240 266 c 2,4,-1
 309 280 l 1,5,-1
 309 305 l 2,6,7
 309 375 309 375 285.5 406.5 c 128,-1,8
 262 438 262 438 207 438 c 0,9,10
 131 438 131 438 131 407 c 0,11,12
 131 401 131 401 143 387.5 c 128,-1,13
 155 374 155 374 155 358.5 c 128,-1,14
 155 343 155 343 141.5 333.5 c 128,-1,15
 128 324 128 324 106 324 c 128,-1,16
 84 324 84 324 70.5 337 c 128,-1,17
 57 350 57 350 57 373 c 0,18,19
 57 424 57 424 106.5 457 c 128,-1,20
 156 490 156 490 214 490 c 0,21,22
 308 490 308 490 348 450.5 c 128,-1,23
 388 411 388 411 388 345 c 0,24,25
 388 343 388 343 384 108 c 0,26,27
 383 44 383 44 427 44 c 0,28,29
 445 44 445 44 468 54 c 1,30,31
 475 42 475 42 475 31.5 c 128,-1,32
 475 21 475 21 473 19 c 0,33,34
 463 9 463 9 438 -0.5 c 128,-1,35
 413 -10 413 -10 385 -10 c 0,36,37
 342 -10 342 -10 313 44 c 1,38,39
 250 -10 250 -10 170 -10 c 0,40,0
 115 -10 115 -10 77 25.5 c 128,-1,1
155.5 176.5 m 128,-1,42
 130 157 130 157 130 123.5 c 128,-1,43
 130 90 130 90 148 69 c 128,-1,44
 166 48 166 48 192 48 c 128,-1,45
 218 48 218 48 252.5 59.5 c 128,-1,46
 287 71 287 71 312 86 c 1,47,-1
 310 228 l 1,48,-1
 258 215 l 2,49,41
 181 196 181 196 155.5 176.5 c 128,-1,42
EndSplineSet
EndChar

StartChar: b
Encoding: 98 98 69
Width: 546
GlyphClass: 2
Flags: W
LayerCount: 2
Fore
SplineSet
415 235 m 0,0,1
 415 442 415 442 278 442 c 0,2,3
 236 442 236 442 195 408 c 128,-1,4
 154 374 154 374 155 334 c 2,5,-1
 161 123 l 1,6,7
 179 90 179 90 212 66.5 c 128,-1,8
 245 43 245 43 277 43 c 0,9,10
 344 43 344 43 379.5 99.5 c 128,-1,11
 415 156 415 156 415 235 c 0,0,1
110 -6 m 1,12,13
 106 -10 106 -10 91.5 -10 c 128,-1,14
 77 -10 77 -10 74 -6 c 1,15,-1
 79 637 l 2,16,17
 79 688 79 688 -4 688 c 1,18,19
 -7 691 -7 691 -7 704.5 c 128,-1,20
 -7 718 -7 718 -1 724 c 1,21,22
 37 727 37 727 61.5 733.5 c 128,-1,23
 86 740 86 740 106 760 c 0,24,25
 110 764 110 764 123 764 c 128,-1,26
 136 764 136 764 142 760 c 1,27,-1
 152 431 l 1,28,29
 211 490 211 490 300 490 c 128,-1,30
 389 490 389 490 445.5 415.5 c 128,-1,31
 502 341 502 341 502 234.5 c 128,-1,32
 502 128 502 128 448.5 59 c 128,-1,33
 395 -10 395 -10 299 -10 c 0,34,35
 255 -10 255 -10 213.5 13 c 128,-1,36
 172 36 172 36 145 71 c 1,37,-1
 110 -6 l 1,12,13
EndSplineSet
EndChar

StartChar: c
Encoding: 99 99 70
Width: 451
GlyphClass: 2
Flags: W
LayerCount: 2
Fore
SplineSet
412 59 m 0,0,1
 348 -10 348 -10 247.5 -10 c 128,-1,2
 147 -10 147 -10 95.5 59 c 128,-1,3
 44 128 44 128 44 237 c 128,-1,4
 44 346 44 346 103 418 c 128,-1,5
 162 490 162 490 265 490 c 0,6,7
 330 490 330 490 371 457 c 128,-1,8
 412 424 412 424 412 375 c 0,9,10
 412 352 412 352 399 339 c 128,-1,11
 386 326 386 326 363.5 326 c 128,-1,12
 341 326 341 326 327.5 335.5 c 128,-1,13
 314 345 314 345 314 360.5 c 128,-1,14
 314 376 314 376 326 389.5 c 128,-1,15
 338 403 338 403 338 409 c 0,16,17
 338 422 338 422 313 432 c 128,-1,18
 288 442 288 442 264 442 c 0,19,20
 205 442 205 442 168 394 c 128,-1,21
 131 346 131 346 131 262 c 0,22,23
 131 53 131 53 259 53 c 0,24,25
 296 53 296 53 336 65.5 c 128,-1,26
 376 78 376 78 401 98 c 1,27,28
 405 95 405 95 411 84 c 128,-1,29
 417 73 417 73 417 68.5 c 128,-1,30
 417 64 417 64 412 59 c 0,0,1
EndSplineSet
EndChar

StartChar: d
Encoding: 100 100 71
Width: 570
GlyphClass: 2
Flags: W
LayerCount: 2
Fore
SplineSet
131 225 m 0,0,1
 131 147 131 147 166 95 c 128,-1,2
 201 43 201 43 269 43 c 0,3,4
 301 43 301 43 334.5 67 c 128,-1,5
 368 91 368 91 386 123 c 1,6,-1
 388 334 l 2,7,8
 388 374 388 374 348 408 c 128,-1,9
 308 442 308 442 268 442 c 0,10,11
 131 442 131 442 131 225 c 0,0,1
537 3 m 128,-1,13
 512 -10 512 -10 478.5 -10 c 128,-1,14
 445 -10 445 -10 425 10 c 128,-1,15
 405 30 405 30 400 50 c 1,16,-1
 396 71 l 1,17,18
 332 -10 332 -10 241.5 -10 c 128,-1,19
 151 -10 151 -10 97.5 54.5 c 128,-1,20
 44 119 44 119 44 225.5 c 128,-1,21
 44 332 44 332 101 411 c 128,-1,22
 158 490 158 490 253 490 c 0,23,24
 330 490 330 490 389 431 c 1,25,-1
 391 637 l 2,26,27
 391 688 391 688 293 688 c 1,28,29
 290 691 290 691 290 704.5 c 128,-1,30
 290 718 290 718 296 724 c 1,31,32
 365 728 365 728 418 760 c 1,33,34
 422 764 422 764 435 764 c 128,-1,35
 448 764 448 764 454 760 c 1,36,-1
 473 115 l 2,37,38
 475 45 475 45 518 45 c 0,39,40
 534 45 534 45 555 54 c 1,41,42
 562 45 562 45 562 27 c 0,43,12
 562 16 562 16 537 3 c 128,-1,13
EndSplineSet
EndChar

StartChar: e
Encoding: 101 101 72
Width: 485
GlyphClass: 2
Flags: W
LayerCount: 2
Fore
SplineSet
432 59 m 0,0,1
 363 -10 363 -10 259.5 -10 c 128,-1,2
 156 -10 156 -10 100 60.5 c 128,-1,3
 44 131 44 131 44 239.5 c 128,-1,4
 44 348 44 348 99.5 419 c 128,-1,5
 155 490 155 490 252.5 490 c 128,-1,6
 350 490 350 490 396.5 421.5 c 128,-1,7
 443 353 443 353 443 245 c 1,8,-1
 132 245 l 1,9,10
 132 164 132 164 167.5 108.5 c 128,-1,11
 203 53 203 53 269 53 c 0,12,13
 359 53 359 53 421 98 c 1,14,15
 425 95 425 95 431 84 c 128,-1,16
 437 73 437 73 437 68.5 c 128,-1,17
 437 64 437 64 432 59 c 0,0,1
133 297 m 1,18,-1
 274 296 l 2,19,20
 350 296 350 296 355 302 c 1,21,22
 356 307 356 307 356 319 c 0,23,24
 356 366 356 366 329 404 c 128,-1,25
 302 442 302 442 251.5 442 c 128,-1,26
 201 442 201 442 169.5 402.5 c 128,-1,27
 138 363 138 363 133 297 c 1,18,-1
EndSplineSet
EndChar

StartChar: f
Encoding: 102 102 73
Width: 339
GlyphClass: 2
Flags: W
LayerCount: 2
Fore
SplineSet
164 6 m 1,0,-1
 37 0 l 1,1,2
 34 3 34 3 34 16.5 c 128,-1,3
 34 30 34 30 40 36 c 1,4,5
 80 36 80 36 98 47.5 c 128,-1,6
 116 59 116 59 117 87 c 2,7,-1
 121 398 l 1,8,-1
 43 398 l 1,9,10
 34 414 34 414 34 428.5 c 128,-1,11
 34 443 34 443 40 450 c 1,12,-1
 121 450 l 1,13,-1
 123 556 l 2,14,15
 125 647 125 647 164.5 708.5 c 128,-1,16
 204 770 204 770 282 770 c 0,17,18
 325 770 325 770 355.5 751.5 c 128,-1,19
 386 733 386 733 386 705.5 c 128,-1,20
 386 678 386 678 372 664 c 128,-1,21
 358 650 358 650 335 650 c 0,22,23
 289 650 289 650 289 684 c 0,24,25
 289 694 289 694 293 701 c 128,-1,26
 297 708 297 708 297 711 c 0,27,28
 297 723 297 723 270 723 c 128,-1,29
 243 723 243 723 217.5 689.5 c 128,-1,30
 192 656 192 656 192 587 c 0,31,32
 192 584 192 584 195 450 c 1,33,-1
 309 450 l 1,34,35
 314 436 314 436 314 421 c 128,-1,36
 314 406 314 406 306 398 c 1,37,-1
 197 398 l 1,38,-1
 205 87 l 2,39,40
 206 59 206 59 223.5 47.5 c 128,-1,41
 241 36 241 36 281 36 c 1,42,43
 286 31 286 31 286 16.5 c 128,-1,44
 286 2 286 2 284 0 c 1,45,-1
 164 6 l 1,0,-1
EndSplineSet
EndChar

StartChar: g
Encoding: 103 103 74
Width: 500
GlyphClass: 2
Flags: W
LayerCount: 2
Fore
SplineSet
439 490 m 0,0,1
 462 490 462 490 477.5 475 c 128,-1,2
 493 460 493 460 493 439 c 128,-1,3
 493 418 493 418 481 405 c 128,-1,4
 469 392 469 392 450 392 c 0,5,6
 411 392 411 392 411 421 c 0,7,8
 411 429 411 429 415 435.5 c 128,-1,9
 419 442 419 442 419 445 c 128,-1,10
 419 448 419 448 413 448 c 0,11,12
 398 448 398 448 372 420 c 1,13,14
 410 369 410 369 410 296.5 c 128,-1,15
 410 224 410 224 360 169 c 128,-1,16
 310 114 310 114 228 114 c 0,17,18
 198 114 198 114 176 121 c 1,19,20
 139 107 139 107 139 89 c 0,21,22
 139 66 139 66 177 56 c 1,23,24
 211 46 211 46 249 41 c 0,25,26
 385 23 385 23 433 -11 c 128,-1,27
 481 -45 481 -45 481 -119.5 c 128,-1,28
 481 -194 481 -194 414 -242 c 128,-1,29
 347 -290 347 -290 256 -290 c 128,-1,30
 165 -290 165 -290 98 -250.5 c 128,-1,31
 31 -211 31 -211 31 -127 c 0,32,33
 31 -85 31 -85 54.5 -57 c 128,-1,34
 78 -29 78 -29 127 -2 c 1,35,36
 73 27 73 27 73 76 c 0,37,38
 73 115 73 115 132 140 c 1,39,40
 93 165 93 165 72 208 c 128,-1,41
 51 251 51 251 51 302 c 0,42,43
 51 381 51 381 99 435.5 c 128,-1,44
 147 490 147 490 223 490 c 128,-1,45
 299 490 299 490 347 447 c 1,46,47
 390 490 390 490 439 490 c 0,0,1
403 -138 m 0,48,49
 403 -79 403 -79 352 -62 c 0,50,51
 324 -52 324 -52 262.5 -42 c 128,-1,52
 201 -32 201 -32 175 -23 c 1,53,54
 119 -45 119 -45 119 -124 c 0,55,56
 119 -177 119 -177 155.5 -207.5 c 128,-1,57
 192 -238 192 -238 249.5 -238 c 128,-1,58
 307 -238 307 -238 355 -211.5 c 128,-1,59
 403 -185 403 -185 403 -138 c 0,48,49
159.5 212 m 128,-1,61
 189 168 189 168 237.5 168 c 128,-1,62
 286 168 286 168 308.5 203 c 128,-1,63
 331 238 331 238 331 294 c 128,-1,64
 331 350 331 350 301.5 396 c 128,-1,65
 272 442 272 442 223.5 442 c 128,-1,66
 175 442 175 442 152.5 405 c 128,-1,67
 130 368 130 368 130 312 c 128,-1,60
 130 256 130 256 159.5 212 c 128,-1,61
EndSplineSet
EndChar

StartChar: h
Encoding: 104 104 75
Width: 595
GlyphClass: 2
Flags: W
LayerCount: 2
Fore
SplineSet
176 403 m 1,0,1
 263 490 263 490 345 490 c 0,2,3
 413 490 413 490 454.5 447 c 128,-1,4
 496 404 496 404 498 334 c 2,5,-1
 505 87 l 2,6,7
 506 59 506 59 523 47.5 c 128,-1,8
 540 36 540 36 580 36 c 1,9,10
 585 31 585 31 585 16.5 c 128,-1,11
 585 2 585 2 583 0 c 1,12,-1
 464 6 l 1,13,-1
 342 0 l 1,14,15
 339 3 339 3 339 16.5 c 128,-1,16
 339 30 339 30 345 36 c 1,17,18
 383 36 383 36 399.5 47.5 c 128,-1,19
 416 59 416 59 417 87 c 2,20,-1
 421 316 l 2,21,22
 422 366 422 366 394 397 c 128,-1,23
 366 428 366 428 316 428 c 256,24,25
 266 428 266 428 204 371 c 0,26,27
 185 353 185 353 182 351 c 1,28,-1
 190 87 l 2,29,30
 191 59 191 59 207 47.5 c 128,-1,31
 223 36 223 36 261 36 c 1,32,33
 266 31 266 31 266 16.5 c 128,-1,34
 266 2 266 2 264 0 c 1,35,-1
 149 6 l 1,36,-1
 22 0 l 1,37,38
 19 3 19 3 19 16.5 c 128,-1,39
 19 30 19 30 25 36 c 1,40,41
 65 36 65 36 83.5 47.5 c 128,-1,42
 102 59 102 59 102 87 c 2,43,-1
 105 637 l 2,44,45
 105 688 105 688 22 688 c 1,46,47
 19 691 19 691 19 704.5 c 128,-1,48
 19 718 19 718 25 724 c 1,49,50
 63 727 63 727 87.5 733.5 c 128,-1,51
 112 740 112 740 132 760 c 0,52,53
 136 764 136 764 149 764 c 128,-1,54
 162 764 162 764 168 760 c 1,55,-1
 176 403 l 1,0,1
EndSplineSet
EndChar

StartChar: i
Encoding: 105 105 76
Width: 301
GlyphClass: 2
Flags: W
LayerCount: 2
Fore
SplineSet
193 572.5 m 128,-1,1
 177 558 177 558 151.5 558 c 128,-1,2
 126 558 126 558 111 574 c 128,-1,3
 96 590 96 590 96 614.5 c 128,-1,4
 96 639 96 639 111 655.5 c 128,-1,5
 126 672 126 672 150 672 c 128,-1,6
 174 672 174 672 191.5 655 c 128,-1,7
 209 638 209 638 209 612.5 c 128,-1,0
 209 587 209 587 193 572.5 c 128,-1,1
164 6 m 1,8,-1
 37 0 l 1,9,10
 34 3 34 3 34 16.5 c 128,-1,11
 34 30 34 30 40 36 c 1,12,13
 80 36 80 36 98.5 47.5 c 128,-1,14
 117 59 117 59 117 87 c 2,15,-1
 118 358 l 2,16,17
 118 409 118 409 35 409 c 1,18,19
 32 412 32 412 32 425.5 c 128,-1,20
 32 439 32 439 38 445 c 1,21,22
 69 445 69 445 97 452.5 c 128,-1,23
 125 460 125 460 134.5 465.5 c 128,-1,24
 144 471 144 471 150.5 477.5 c 128,-1,25
 157 484 157 484 170 484 c 128,-1,26
 183 484 183 484 189 480 c 1,27,-1
 205 87 l 2,28,29
 206 59 206 59 223.5 47.5 c 128,-1,30
 241 36 241 36 281 36 c 1,31,32
 286 31 286 31 286 16.5 c 128,-1,33
 286 2 286 2 284 0 c 1,34,-1
 164 6 l 1,8,-1
EndSplineSet
EndChar

StartChar: j
Encoding: 106 106 77
Width: 256
GlyphClass: 2
Flags: W
LayerCount: 2
Fore
SplineSet
177.5 573 m 128,-1,1
 161 558 161 558 136 558 c 128,-1,2
 111 558 111 558 96 574 c 128,-1,3
 81 590 81 590 81 614 c 128,-1,4
 81 638 81 638 96 655 c 128,-1,5
 111 672 111 672 135 672 c 128,-1,6
 159 672 159 672 176.5 655 c 128,-1,7
 194 638 194 638 194 613 c 128,-1,0
 194 588 194 588 177.5 573 c 128,-1,1
10 -231 m 0,8,9
 10 -243 10 -243 35.5 -243 c 128,-1,10
 61 -243 61 -243 86 -207 c 128,-1,11
 111 -171 111 -171 110 -107 c 2,12,-1
 103 358 l 2,13,14
 102 409 102 409 20 409 c 1,15,16
 17 412 17 412 17 425.5 c 128,-1,17
 17 439 17 439 23 445 c 1,18,19
 90 450 90 450 142 480 c 0,20,21
 150 484 150 484 161 484 c 128,-1,22
 172 484 172 484 178 480 c 1,23,-1
 181 -91 l 2,24,25
 182 -182 182 -182 138.5 -236 c 128,-1,26
 95 -290 95 -290 20 -290 c 0,27,28
 -22 -290 -22 -290 -50.5 -272 c 128,-1,29
 -79 -254 -79 -254 -79 -218 c 0,30,31
 -79 -196 -79 -196 -64.5 -181.5 c 128,-1,32
 -50 -167 -50 -167 -29.5 -167 c 128,-1,33
 -9 -167 -9 -167 4.5 -177 c 128,-1,34
 18 -187 18 -187 18 -200.5 c 128,-1,35
 18 -214 18 -214 14 -221 c 128,-1,36
 10 -228 10 -228 10 -231 c 0,8,9
EndSplineSet
EndChar

StartChar: k
Encoding: 107 107 78
Width: 538
GlyphClass: 2
Flags: W
LayerCount: 2
Fore
SplineSet
149 4 m 1,0,-1
 22 0 l 1,1,2
 19 3 19 3 19 16.5 c 128,-1,3
 19 30 19 30 25 36 c 1,4,5
 65 36 65 36 83.5 47.5 c 128,-1,6
 102 59 102 59 102 87 c 2,7,-1
 106 637 l 2,8,9
 106 688 106 688 23 688 c 1,10,11
 20 691 20 691 20 704.5 c 128,-1,12
 20 718 20 718 26 724 c 1,13,14
 78 728 78 728 133 760 c 0,15,16
 141 764 141 764 152 764 c 128,-1,17
 163 764 163 764 169 760 c 1,18,-1
 184 278 l 1,19,20
 199 278 199 278 222 301.5 c 128,-1,21
 245 325 245 325 268 348.5 c 128,-1,22
 291 372 291 372 302.5 383.5 c 128,-1,23
 314 395 314 395 324 406 c 0,24,25
 342 426 342 426 342 433 c 0,26,27
 342 444 342 444 302 444 c 1,28,29
 296 450 296 450 296 463.5 c 128,-1,30
 296 477 296 477 299 480 c 1,31,-1
 390 474 l 1,32,-1
 496 480 l 1,33,34
 498 478 498 478 498 463.5 c 128,-1,35
 498 449 498 449 493 444 c 1,36,37
 425 444 425 444 392 409 c 2,38,-1
 257 263 l 1,39,40
 447 70 447 70 469.5 53 c 128,-1,41
 492 36 492 36 531 36 c 1,42,43
 536 31 536 31 536 16.5 c 128,-1,44
 536 2 536 2 534 0 c 1,45,-1
 441 4 l 1,46,-1
 322 0 l 1,47,48
 319 3 319 3 319 16.5 c 128,-1,49
 319 30 319 30 325 36 c 1,50,51
 356 36 356 36 356 51.5 c 128,-1,52
 356 67 356 67 227 206 c 0,53,54
 208 226 208 226 185 226 c 1,55,-1
 190 87 l 2,56,57
 191 59 191 59 208.5 47.5 c 128,-1,58
 226 36 226 36 266 36 c 1,59,60
 271 31 271 31 271 16.5 c 128,-1,61
 271 2 271 2 269 0 c 1,62,-1
 149 4 l 1,0,-1
EndSplineSet
EndChar

StartChar: l
Encoding: 108 108 79
Width: 287
GlyphClass: 2
Flags: W
LayerCount: 2
Fore
SplineSet
146 6 m 1,0,-1
 19 0 l 1,1,2
 16 3 16 3 16 18 c 128,-1,3
 16 33 16 33 22 36 c 1,4,5
 63 36 63 36 81 47.5 c 128,-1,6
 99 59 99 59 99 87 c 2,7,-1
 109 637 l 2,8,9
 109 688 109 688 26 688 c 1,10,11
 23 691 23 691 23 704.5 c 128,-1,12
 23 718 23 718 29 724 c 1,13,14
 81 728 81 728 136 760 c 0,15,16
 144 764 144 764 155 764 c 128,-1,17
 166 764 166 764 172 760 c 1,18,-1
 187 87 l 2,19,20
 188 59 188 59 205 47.5 c 128,-1,21
 222 36 222 36 263 36 c 1,22,23
 268 33 268 33 268 17.5 c 128,-1,24
 268 2 268 2 266 0 c 1,25,-1
 146 6 l 1,0,-1
EndSplineSet
EndChar

StartChar: m
Encoding: 109 109 80
Width: 925
GlyphClass: 2
Flags: W
LayerCount: 2
Fore
SplineSet
160 6 m 1,0,-1
 33 0 l 1,1,2
 30 3 30 3 30 16.5 c 128,-1,3
 30 30 30 30 36 36 c 1,4,5
 77 36 77 36 95 47.5 c 128,-1,6
 113 59 113 59 113 87 c 2,7,-1
 116 367 l 2,8,9
 116 395 116 395 97.5 406.5 c 128,-1,10
 79 418 79 418 38 418 c 1,11,12
 35 421 35 421 35 434.5 c 128,-1,13
 35 448 35 448 41 454 c 1,14,15
 45 454 45 454 60 456 c 128,-1,16
 75 458 75 458 79 458.5 c 128,-1,17
 83 459 83 459 94.5 461.5 c 128,-1,18
 106 464 106 464 112 468 c 0,19,20
 132 479 132 479 139.5 486.5 c 128,-1,21
 147 494 147 494 160 494 c 128,-1,22
 173 494 173 494 179 490 c 1,23,-1
 187 403 l 1,24,25
 255 466 255 466 308 482 c 0,26,27
 333 490 333 490 358 490 c 0,28,29
 408 490 408 490 444.5 465.5 c 128,-1,30
 481 441 481 441 498 398 c 1,31,32
 590 490 590 490 674 490 c 0,33,34
 742 490 742 490 783 447 c 128,-1,35
 824 404 824 404 827 334 c 2,36,-1
 837 87 l 2,37,38
 838 59 838 59 855 47.5 c 128,-1,39
 872 36 872 36 912 36 c 1,40,41
 917 31 917 31 917 16.5 c 128,-1,42
 917 2 917 2 915 0 c 1,43,-1
 796 6 l 1,44,-1
 669 0 l 1,45,46
 666 3 666 3 666 16.5 c 128,-1,47
 666 30 666 30 672 36 c 1,48,49
 713 36 713 36 731 47.5 c 128,-1,50
 749 59 749 59 749 87 c 2,51,-1
 750 316 l 2,52,53
 750 366 750 366 722 397 c 128,-1,54
 694 428 694 428 640.5 428 c 128,-1,55
 587 428 587 428 510 351 c 1,56,-1
 518 87 l 2,57,58
 519 59 519 59 536 47.5 c 128,-1,59
 553 36 553 36 593 36 c 1,60,61
 598 31 598 31 598 16.5 c 128,-1,62
 598 2 598 2 596 0 c 1,63,-1
 477 6 l 1,64,-1
 350 0 l 1,65,66
 347 3 347 3 347 16.5 c 128,-1,67
 347 30 347 30 353 36 c 1,68,69
 393 36 393 36 411 47.5 c 128,-1,70
 429 59 429 59 430 87 c 2,71,-1
 434 316 l 2,72,73
 435 366 435 366 407 397 c 128,-1,74
 379 428 379 428 329 428 c 0,75,76
 309 428 309 428 286.5 418 c 128,-1,77
 264 408 264 408 250 398 c 0,78,79
 210 368 210 368 193 351 c 1,80,-1
 201 87 l 2,81,82
 202 59 202 59 219.5 47.5 c 128,-1,83
 237 36 237 36 277 36 c 1,84,85
 282 31 282 31 282 16.5 c 128,-1,86
 282 2 282 2 280 0 c 1,87,-1
 160 6 l 1,0,-1
EndSplineSet
EndChar

StartChar: n
Encoding: 110 110 81
Width: 601
GlyphClass: 2
Flags: W
LayerCount: 2
Fore
SplineSet
187 403 m 1,0,1
 274 490 274 490 346.5 490 c 128,-1,2
 419 490 419 490 460.5 447 c 128,-1,3
 502 404 502 404 504 334 c 2,4,-1
 511 87 l 2,5,6
 512 59 512 59 529 47.5 c 128,-1,7
 546 36 546 36 586 36 c 1,8,9
 591 31 591 31 591 16.5 c 128,-1,10
 591 2 591 2 589 0 c 1,11,-1
 470 6 l 1,12,-1
 348 0 l 1,13,14
 345 3 345 3 345 16.5 c 128,-1,15
 345 30 345 30 351 36 c 1,16,17
 389 36 389 36 405.5 47.5 c 128,-1,18
 422 59 422 59 423 87 c 2,19,-1
 427 316 l 2,20,21
 428 366 428 366 400 397 c 128,-1,22
 372 428 372 428 322 428 c 0,23,24
 286 428 286 428 247 398 c 0,25,26
 234 388 234 388 215.5 371 c 128,-1,27
 197 354 197 354 193 351 c 1,28,-1
 201 87 l 2,29,30
 202 59 202 59 218 47.5 c 128,-1,31
 234 36 234 36 272 36 c 1,32,33
 277 31 277 31 277 16.5 c 128,-1,34
 277 2 277 2 275 0 c 1,35,-1
 160 6 l 1,36,-1
 33 0 l 1,37,38
 30 3 30 3 30 16.5 c 128,-1,39
 30 30 30 30 36 36 c 1,40,41
 76 36 76 36 94.5 47.5 c 128,-1,42
 113 59 113 59 113 87 c 2,43,-1
 116 367 l 2,44,45
 116 395 116 395 97.5 406.5 c 128,-1,46
 79 418 79 418 38 418 c 1,47,48
 35 421 35 421 35 434.5 c 128,-1,49
 35 448 35 448 41 454 c 1,50,51
 45 454 45 454 60 456 c 128,-1,52
 75 458 75 458 79 458.5 c 128,-1,53
 83 459 83 459 94.5 461.5 c 128,-1,54
 106 464 106 464 112 468 c 0,55,56
 132 479 132 479 139.5 486.5 c 128,-1,57
 147 494 147 494 160 494 c 128,-1,58
 173 494 173 494 179 490 c 1,59,-1
 187 403 l 1,0,1
EndSplineSet
EndChar

StartChar: o
Encoding: 111 111 82
Width: 517
GlyphClass: 2
Flags: W
LayerCount: 2
Fore
SplineSet
45 240 m 128,-1,1
 45 349 45 349 97.5 419.5 c 128,-1,2
 150 490 150 490 256 490 c 128,-1,3
 362 490 362 490 417.5 419 c 128,-1,4
 473 348 473 348 473 240 c 128,-1,5
 473 132 473 132 417.5 61 c 128,-1,6
 362 -10 362 -10 256 -10 c 128,-1,7
 150 -10 150 -10 97.5 60.5 c 128,-1,0
 45 131 45 131 45 240 c 128,-1,1
366 98 m 0,8,9
 388 144 388 144 388 231 c 128,-1,10
 388 318 388 318 353.5 380 c 128,-1,11
 319 442 319 442 254 442 c 0,12,13
 166 442 166 442 142 363 c 0,14,15
 130 321 130 321 130 258 c 0,16,17
 130 163 130 163 164.5 103.5 c 128,-1,18
 199 44 199 44 270 44 c 128,-1,19
 341 44 341 44 366 98 c 0,8,9
EndSplineSet
EndChar

StartChar: p
Encoding: 112 112 83
Width: 568
GlyphClass: 2
Flags: W
LayerCount: 2
Fore
SplineSet
437 245 m 0,0,1
 437 324 437 324 402 380.5 c 128,-1,2
 367 437 367 437 299 437 c 0,3,4
 266 437 266 437 228 411 c 128,-1,5
 190 385 190 385 172 353 c 1,6,-1
 180 146 l 2,7,8
 181 106 181 106 220.5 72 c 128,-1,9
 260 38 260 38 300 38 c 0,10,11
 437 38 437 38 437 245 c 0,0,1
148 -274 m 1,12,-1
 21 -280 l 1,13,14
 18 -277 18 -277 18 -263.5 c 128,-1,15
 18 -250 18 -250 24 -244 c 1,16,17
 64 -244 64 -244 82.5 -232.5 c 128,-1,18
 101 -221 101 -221 101 -193 c 2,19,-1
 104 367 l 2,20,21
 104 395 104 395 84.5 406.5 c 128,-1,22
 65 418 65 418 22 418 c 1,23,24
 19 421 19 421 19 434.5 c 128,-1,25
 19 448 19 448 25 454 c 1,26,27
 80 461 80 461 125 486 c 0,28,29
 133 490 133 490 144 490 c 128,-1,30
 155 490 155 490 161 486 c 1,31,-1
 170 409 l 1,32,33
 234 490 234 490 321 490 c 0,34,35
 422 490 422 490 473 422.5 c 128,-1,36
 524 355 524 355 524 247 c 128,-1,37
 524 139 524 139 467.5 64.5 c 128,-1,38
 411 -10 411 -10 315 -10 c 0,39,40
 240 -10 240 -10 181 49 c 1,41,-1
 189 -193 l 2,42,43
 190 -221 190 -221 207.5 -232.5 c 128,-1,44
 225 -244 225 -244 265 -244 c 1,45,46
 270 -249 270 -249 270 -263.5 c 128,-1,47
 270 -278 270 -278 268 -280 c 1,48,-1
 148 -274 l 1,12,-1
EndSplineSet
EndChar

StartChar: q
Encoding: 113 113 84
Width: 544
GlyphClass: 2
Flags: W
LayerCount: 2
Fore
SplineSet
131 235 m 0,0,1
 131 158 131 158 166.5 98 c 128,-1,2
 202 38 202 38 269 38 c 0,3,4
 306 38 306 38 349 72.5 c 128,-1,5
 392 107 392 107 393 146 c 2,6,-1
 395 353 l 1,7,8
 376 386 376 386 340 411.5 c 128,-1,9
 304 437 304 437 268 437 c 0,10,11
 131 437 131 437 131 235 c 0,0,1
431 -274 m 1,12,-1
 311 -280 l 1,13,14
 308 -277 308 -277 308 -263.5 c 128,-1,15
 308 -250 308 -250 314 -244 c 1,16,17
 354 -244 354 -244 372 -232 c 128,-1,18
 390 -220 390 -220 390 -193 c 2,19,-1
 392 49 l 1,20,21
 333 -10 333 -10 239.5 -10 c 128,-1,22
 146 -10 146 -10 95 57.5 c 128,-1,23
 44 125 44 125 44 233 c 128,-1,24
 44 341 44 341 100.5 415.5 c 128,-1,25
 157 490 157 490 253 490 c 0,26,27
 334 490 334 490 393 431 c 1,28,-1
 434 486 l 2,29,30
 438 490 438 490 451 490 c 128,-1,31
 464 490 464 490 470 486 c 1,32,-1
 462 407 l 1,33,-1
 478 -193 l 2,34,35
 479 -221 479 -221 497 -232.5 c 128,-1,36
 515 -244 515 -244 555 -244 c 1,37,38
 560 -249 560 -249 560 -263.5 c 128,-1,39
 560 -278 560 -278 558 -280 c 1,40,-1
 431 -274 l 1,12,-1
EndSplineSet
EndChar

StartChar: r
Encoding: 114 114 85
Width: 410
GlyphClass: 2
Flags: W
LayerCount: 2
Fore
SplineSet
160 6 m 1,0,-1
 33 0 l 1,1,2
 30 3 30 3 30 16.5 c 128,-1,3
 30 30 30 30 36 36 c 1,4,5
 76 36 76 36 94.5 47.5 c 128,-1,6
 113 59 113 59 113 87 c 2,7,-1
 116 367 l 2,8,9
 116 395 116 395 97.5 406.5 c 128,-1,10
 79 418 79 418 38 418 c 1,11,12
 35 421 35 421 35 434.5 c 128,-1,13
 35 448 35 448 41 454 c 1,14,15
 45 454 45 454 60 456 c 128,-1,16
 75 458 75 458 79 458.5 c 128,-1,17
 83 459 83 459 94.5 461.5 c 128,-1,18
 106 464 106 464 112 468 c 0,19,20
 132 479 132 479 139.5 486.5 c 128,-1,21
 147 494 147 494 160 494 c 128,-1,22
 173 494 173 494 179 490 c 1,23,-1
 189 386 l 1,24,25
 207 426 207 426 247.5 458 c 128,-1,26
 288 490 288 490 334 490 c 0,27,28
 361 490 361 490 379.5 472.5 c 128,-1,29
 398 455 398 455 398 430.5 c 128,-1,30
 398 406 398 406 384 391.5 c 128,-1,31
 370 377 370 377 348 377 c 0,32,33
 300 377 300 377 300 411 c 0,34,35
 300 420 300 420 305 427 c 128,-1,36
 310 434 310 434 310 437 c 128,-1,37
 310 440 310 440 303 440 c 0,38,39
 278 440 278 440 235.5 384 c 128,-1,40
 193 328 193 328 194 282 c 2,41,-1
 201 87 l 2,42,43
 202 59 202 59 219.5 47.5 c 128,-1,44
 237 36 237 36 277 36 c 1,45,46
 282 31 282 31 282 16.5 c 128,-1,47
 282 2 282 2 280 0 c 1,48,-1
 160 6 l 1,0,-1
EndSplineSet
EndChar

StartChar: s
Encoding: 115 115 86
Width: 427
GlyphClass: 2
Flags: W
LayerCount: 2
Fore
SplineSet
236 490 m 0,0,1
 290 490 290 490 329 464.5 c 128,-1,2
 368 439 368 439 368 401 c 0,3,4
 368 378 368 378 354.5 364 c 128,-1,5
 341 350 341 350 320.5 350 c 128,-1,6
 300 350 300 350 286.5 359 c 128,-1,7
 273 368 273 368 273 382.5 c 128,-1,8
 273 397 273 397 277 406 c 128,-1,9
 281 415 281 415 281 421 c 0,10,11
 281 443 281 443 235 443 c 128,-1,12
 189 443 189 443 162.5 423 c 128,-1,13
 136 403 136 403 136 375 c 128,-1,14
 136 347 136 347 162 324 c 128,-1,15
 188 301 188 301 225 282 c 128,-1,16
 262 263 262 263 299 242.5 c 128,-1,17
 336 222 336 222 362 191 c 128,-1,18
 388 160 388 160 388 122 c 0,19,20
 388 58 388 58 334.5 24 c 128,-1,21
 281 -10 281 -10 210 -10 c 128,-1,22
 139 -10 139 -10 90.5 23 c 128,-1,23
 42 56 42 56 42 120 c 0,24,25
 42 142 42 142 55 155.5 c 128,-1,26
 68 169 68 169 91 169 c 0,27,28
 140 169 140 169 140 135 c 0,29,30
 140 119 140 119 128 105 c 128,-1,31
 116 91 116 91 116 86 c 0,32,33
 116 68 116 68 144.5 55 c 128,-1,34
 173 42 173 42 207 42 c 128,-1,35
 241 42 241 42 275 59.5 c 128,-1,36
 309 77 309 77 309 115 c 0,37,38
 309 154 309 154 221 194 c 0,39,40
 184 210 184 210 147 228.5 c 128,-1,41
 110 247 110 247 84.5 278.5 c 128,-1,42
 59 310 59 310 59 350 c 0,43,44
 59 416 59 416 107.5 453 c 128,-1,45
 156 490 156 490 236 490 c 0,0,1
EndSplineSet
EndChar

StartChar: t
Encoding: 116 116 87
Width: 358
GlyphClass: 2
Flags: W
LayerCount: 2
Fore
SplineSet
187.5 80.5 m 128,-1,1
 201 52 201 52 240.5 52 c 128,-1,2
 280 52 280 52 329 79 c 1,3,4
 333 75 333 75 339 64 c 128,-1,5
 345 53 345 53 345 49 c 128,-1,6
 345 45 345 45 344 44 c 0,7,8
 286 -10 286 -10 209 -10 c 0,9,10
 88 -10 88 -10 88 155 c 0,11,12
 88 160 88 160 93 418 c 1,13,-1
 30 418 l 1,14,15
 24 424 24 424 24 437.5 c 128,-1,16
 24 451 24 451 27 454 c 1,17,18
 79 466 79 466 100.5 492.5 c 128,-1,19
 122 519 122 519 131 566 c 1,20,21
 135 570 135 570 148 570 c 128,-1,22
 161 570 161 570 167 566 c 1,23,-1
 169 470 l 1,24,-1
 321 470 l 1,25,26
 326 456 326 456 326 441 c 128,-1,27
 326 426 326 426 318 418 c 1,28,-1
 169 418 l 1,29,-1
 173 174 l 2,30,0
 174 109 174 109 187.5 80.5 c 128,-1,1
EndSplineSet
EndChar

StartChar: u
Encoding: 117 117 88
Width: 586
GlyphClass: 2
Flags: W
LayerCount: 2
Fore
SplineSet
412 77 m 1,0,1
 325 -10 325 -10 252 -10 c 128,-1,2
 179 -10 179 -10 136.5 33.5 c 128,-1,3
 94 77 94 77 95 146 c 2,4,-1
 96 357 l 2,5,6
 96 386 96 386 79 397 c 128,-1,7
 62 408 62 408 21 408 c 1,8,9
 18 411 18 411 18 423 c 128,-1,10
 18 435 18 435 24 444 c 1,11,12
 60 448 60 448 80.5 454.5 c 128,-1,13
 101 461 101 461 126 480 c 0,14,15
 130 483 130 483 146 483 c 128,-1,16
 162 483 162 483 165 480 c 1,17,-1
 172 164 l 2,18,19
 173 113 173 113 200.5 82.5 c 128,-1,20
 228 52 228 52 277 52 c 0,21,22
 313 52 313 52 352 82 c 0,23,24
 365 92 365 92 383.5 109 c 128,-1,25
 402 126 402 126 406 129 c 1,26,-1
 406 357 l 2,27,28
 406 385 406 385 388.5 396.5 c 128,-1,29
 371 408 371 408 331 408 c 1,30,31
 328 411 328 411 328 424.5 c 128,-1,32
 328 438 328 438 334 444 c 1,33,34
 370 448 370 448 390.5 454.5 c 128,-1,35
 411 461 411 461 436 480 c 0,36,37
 440 483 440 483 456 483 c 128,-1,38
 472 483 472 483 475 480 c 1,39,-1
 485 113 l 2,40,41
 487 45 487 45 532 45 c 0,42,43
 548 45 548 45 570 54 c 1,44,45
 577 45 577 45 577 27 c 0,46,47
 577 16 577 16 552 3 c 128,-1,48
 527 -10 527 -10 499.5 -10 c 128,-1,49
 472 -10 472 -10 456.5 -1 c 128,-1,50
 441 8 441 8 433 21 c 0,51,52
 417 47 417 47 412 77 c 1,0,1
EndSplineSet
EndChar

StartChar: v
Encoding: 118 118 89
Width: 530
GlyphClass: 2
Flags: W
LayerCount: 2
Fore
SplineSet
439 474 m 1,0,-1
 530 480 l 1,1,2
 532 478 532 478 532 463.5 c 128,-1,3
 532 449 532 449 527 444 c 1,4,5
 496 444 496 444 482 435 c 128,-1,6
 468 426 468 426 459 401 c 2,7,-1
 308 0 l 1,8,9
 304 -4 304 -4 276 -4 c 128,-1,10
 248 -4 248 -4 245 0 c 1,11,-1
 77 401 l 2,12,13
 67 426 67 426 52.5 435 c 128,-1,14
 38 444 38 444 2 444 c 1,15,16
 -4 450 -4 450 -4 463.5 c 128,-1,17
 -4 477 -4 477 -1 480 c 1,18,-1
 113 474 l 1,19,-1
 233 480 l 1,20,21
 237 477 237 477 237 464 c 128,-1,22
 237 451 237 451 230 444 c 1,23,24
 166 444 166 444 166 419 c 0,25,26
 166 415 166 415 170 401 c 2,27,-1
 284 81 l 1,28,-1
 385 401 l 2,29,30
 388 411 388 411 388 417 c 0,31,32
 388 444 388 444 327 444 c 1,33,34
 321 450 321 450 321 463.5 c 128,-1,35
 321 477 321 477 324 480 c 1,36,-1
 439 474 l 1,0,-1
EndSplineSet
EndChar

StartChar: w
Encoding: 119 119 90
Width: 816
GlyphClass: 2
Flags: W
LayerCount: 2
Fore
SplineSet
725 475 m 1,0,-1
 816 480 l 1,1,2
 818 478 818 478 818 463.5 c 128,-1,3
 818 449 818 449 813 444 c 1,4,5
 782 444 782 444 768 435 c 128,-1,6
 754 426 754 426 745 401 c 2,7,-1
 594 0 l 1,8,9
 590 -4 590 -4 562 -4 c 128,-1,10
 534 -4 534 -4 531 0 c 1,11,-1
 415 283 l 1,12,-1
 308 0 l 1,13,14
 304 -4 304 -4 276 -4 c 128,-1,15
 248 -4 248 -4 245 0 c 1,16,-1
 77 401 l 2,17,18
 67 426 67 426 52.5 435 c 128,-1,19
 38 444 38 444 2 444 c 1,20,21
 -4 450 -4 450 -4 463.5 c 128,-1,22
 -4 477 -4 477 -1 480 c 1,23,-1
 113 475 l 1,24,-1
 233 480 l 1,25,26
 235 478 235 478 235 463.5 c 128,-1,27
 235 449 235 449 230 444 c 1,28,29
 166 444 166 444 166 419 c 0,30,31
 166 414 166 414 170 401 c 2,32,-1
 284 81 l 1,33,-1
 376 370 l 1,34,-1
 363 401 l 2,35,36
 352 427 352 427 340 435.5 c 128,-1,37
 328 444 328 444 297 444 c 1,38,39
 291 450 291 450 291 463.5 c 128,-1,40
 291 477 291 477 294 480 c 1,41,-1
 416 475 l 1,42,-1
 519 480 l 1,43,44
 521 478 521 478 521 463.5 c 128,-1,45
 521 449 521 449 516 444 c 1,46,47
 483 444 483 444 468 438.5 c 128,-1,48
 453 433 453 433 453 421 c 128,-1,49
 453 409 453 409 456 401 c 2,50,-1
 570 81 l 1,51,-1
 671 401 l 2,52,53
 674 410 674 410 674 417 c 0,54,55
 674 444 674 444 613 444 c 1,56,57
 607 450 607 450 607 463.5 c 128,-1,58
 607 477 607 477 610 480 c 1,59,-1
 725 475 l 1,0,-1
EndSplineSet
EndChar

StartChar: x
Encoding: 120 120 91
Width: 530
GlyphClass: 2
Flags: W
LayerCount: 2
Fore
SplineSet
432 6 m 1,0,-1
 313 0 l 1,1,2
 310 3 310 3 310 16.5 c 128,-1,3
 310 30 310 30 316 36 c 1,4,5
 350 36 350 36 350 49.5 c 128,-1,6
 350 63 350 63 321 101 c 2,7,-1
 251 195 l 1,8,-1
 160 66 l 2,9,10
 151 52 151 52 151 46 c 0,11,12
 151 36 151 36 188 36 c 1,13,14
 194 30 194 30 194 16.5 c 128,-1,15
 194 3 194 3 191 0 c 1,16,-1
 109 6 l 1,17,-1
 23 0 l 1,18,19
 20 3 20 3 20 16.5 c 128,-1,20
 20 30 20 30 26 36 c 1,21,22
 68 36 68 36 80 43 c 128,-1,23
 92 50 92 50 107 71 c 2,24,-1
 222 237 l 1,25,26
 100 403 100 403 78 423.5 c 128,-1,27
 56 444 56 444 19 444 c 0,28,29
 11 444 11 444 11 460.5 c 128,-1,30
 11 477 11 477 14 480 c 1,31,-1
 107 474 l 1,32,-1
 216 480 l 1,33,34
 219 477 219 477 219 463.5 c 128,-1,35
 219 450 219 450 213 444 c 1,36,37
 179 444 179 444 179 431.5 c 128,-1,38
 179 419 179 419 208 381 c 2,39,-1
 274 295 l 1,40,-1
 357 413 l 2,41,42
 364 423 364 423 364 429 c 0,43,44
 364 444 364 444 319 444 c 1,45,46
 313 450 313 450 313 463.5 c 128,-1,47
 313 477 313 477 316 480 c 1,48,-1
 407 474 l 1,49,-1
 493 480 l 1,50,51
 495 478 495 478 495 463.5 c 128,-1,52
 495 449 495 449 490 444 c 1,53,54
 448 444 448 444 435.5 436.5 c 128,-1,55
 423 429 423 429 409 409 c 2,56,-1
 303 258 l 1,57,58
 386 151 386 151 403.5 128 c 128,-1,59
 421 105 421 105 427.5 96.5 c 128,-1,60
 434 88 434 88 445.5 75 c 128,-1,61
 457 62 457 62 463.5 57 c 128,-1,62
 470 52 470 52 480 46 c 0,63,64
 497 36 497 36 522 36 c 1,65,66
 528 30 528 30 528 16.5 c 128,-1,67
 528 3 528 3 525 0 c 1,68,-1
 432 6 l 1,0,-1
EndSplineSet
EndChar

StartChar: y
Encoding: 121 121 92
Width: 538
GlyphClass: 2
Flags: W
LayerCount: 2
Fore
SplineSet
109 474 m 1,0,-1
 225 480 l 1,1,2
 227 478 227 478 227 463.5 c 128,-1,3
 227 449 227 449 222 444 c 1,4,5
 167 444 167 444 167 420 c 0,6,7
 167 413 167 413 172 401 c 2,8,-1
 299 93 l 1,9,-1
 391 401 l 2,10,11
 393 407 393 407 393 417 c 0,12,13
 393 444 393 444 343 444 c 1,14,15
 337 450 337 450 337 463.5 c 128,-1,16
 337 477 337 477 340 480 c 1,17,-1
 445 474 l 1,18,-1
 536 480 l 1,19,20
 538 478 538 478 538 463.5 c 128,-1,21
 538 449 538 449 533 444 c 1,22,23
 501 444 501 444 487 435 c 128,-1,24
 473 426 473 426 465 401 c 2,25,-1
 316 -42 l 2,26,27
 273 -169 273 -169 243 -217 c 0,28,29
 197 -290 197 -290 140 -290 c 0,30,31
 103 -290 103 -290 72.5 -268.5 c 128,-1,32
 42 -247 42 -247 42 -207 c 0,33,34
 42 -186 42 -186 57.5 -173 c 128,-1,35
 73 -160 73 -160 93.5 -160 c 128,-1,36
 114 -160 114 -160 126.5 -171.5 c 128,-1,37
 139 -183 139 -183 139 -197.5 c 128,-1,38
 139 -212 139 -212 132.5 -219 c 128,-1,39
 126 -226 126 -226 126 -230 c 0,40,41
 126 -243 126 -243 144.5 -243 c 128,-1,42
 163 -243 163 -243 192.5 -198.5 c 128,-1,43
 222 -154 222 -154 239 -107 c 128,-1,44
 256 -60 256 -60 271 -6 c 1,45,-1
 77 401 l 2,46,47
 65 425 65 425 50.5 434.5 c 128,-1,48
 36 444 36 444 2 444 c 1,49,50
 -4 450 -4 450 -4 463.5 c 128,-1,51
 -4 477 -4 477 -1 480 c 1,52,-1
 109 474 l 1,0,-1
EndSplineSet
EndChar

StartChar: z
Encoding: 122 122 93
Width: 444
GlyphClass: 2
Flags: W
LayerCount: 2
Fore
SplineSet
372 480 m 1,0,1
 377 478 377 478 377 462.5 c 128,-1,2
 377 447 377 447 375 444 c 2,3,-1
 145 66 l 2,4,5
 140 59 140 59 140 55.5 c 128,-1,6
 140 52 140 52 145 52 c 2,7,-1
 321 64 l 1,8,9
 355 68 355 68 362.5 83.5 c 128,-1,10
 370 99 370 99 372 154 c 1,11,12
 374 156 374 156 386.5 156 c 128,-1,13
 399 156 399 156 408 147 c 1,14,-1
 397 -10 l 1,15,16
 283 1 283 1 174.5 1 c 128,-1,17
 66 1 66 1 40 0 c 1,18,19
 37 1 37 1 37 8 c 1,20,-1
 43 39 l 1,21,-1
 269 418 l 2,22,23
 272 423 272 423 269 426 c 128,-1,24
 266 429 266 429 237 429 c 2,25,-1
 174 429 l 2,26,27
 121 429 121 429 105.5 419 c 128,-1,28
 90 409 90 409 80 366 c 1,29,30
 74 360 74 360 60.5 360 c 128,-1,31
 47 360 47 360 44 363 c 1,32,-1
 62 490 l 1,33,34
 176 479 176 479 261 479 c 128,-1,35
 346 479 346 479 372 480 c 1,0,1
EndSplineSet
EndChar

StartChar: braceleft
Encoding: 123 123 94
Width: 320
GlyphClass: 2
Flags: W
LayerCount: 2
Fore
SplineSet
307 -248 m 1,0,1
 309 -252 309 -252 309 -267.5 c 128,-1,2
 309 -283 309 -283 302 -290 c 1,3,4
 185 -290 185 -290 145.5 -242.5 c 128,-1,5
 106 -195 106 -195 106 -71 c 0,6,7
 106 71 106 71 99.5 121.5 c 128,-1,8
 93 172 93 172 83 188 c 0,9,10
 65 219 65 219 24 219 c 1,11,12
 20 222 20 222 20 239.5 c 128,-1,13
 20 257 20 257 24 261 c 1,14,15
 65 261 65 261 83 292 c 1,16,17
 100 319 100 319 103 396 c 128,-1,18
 106 473 106 473 106 551 c 0,19,20
 106 675 106 675 145.5 722.5 c 128,-1,21
 185 770 185 770 302 770 c 1,22,23
 309 761 309 761 309 745.5 c 128,-1,24
 309 730 309 730 307 728 c 1,25,26
 285 730 285 730 276 730 c 0,27,28
 213 730 213 730 194 690.5 c 128,-1,29
 175 651 175 651 175 567 c 1,30,31
 180 376 180 376 180 373 c 0,32,33
 180 315 180 315 146.5 279.5 c 128,-1,34
 113 244 113 244 82 240 c 1,35,36
 113 236 113 236 146.5 200 c 128,-1,37
 180 164 180 164 180 107 c 0,38,39
 180 104 180 104 175 -87 c 1,40,41
 175 -172 175 -172 194 -211 c 128,-1,42
 213 -250 213 -250 276 -250 c 0,43,44
 285 -250 285 -250 307 -248 c 1,0,1
EndSplineSet
EndChar

StartChar: bar
Encoding: 124 124 95
Width: 232
GlyphClass: 2
Flags: W
LayerCount: 2
Fore
SplineSet
146 327 m 1,0,-1
 151 -226 l 1,1,-1
 151 -277 l 1,2,3
 138 -290 138 -290 110 -290 c 128,-1,4
 82 -290 82 -290 72 -275 c 1,5,6
 86 -143 86 -143 86 139 c 1,7,-1
 81 676 l 2,8,9
 81 734 81 734 82 757 c 1,10,11
 95 770 95 770 123 770 c 128,-1,12
 151 770 151 770 161 755 c 1,13,14
 146 620 146 620 146 327 c 1,0,-1
EndSplineSet
EndChar

StartChar: braceright
Encoding: 125 125 96
Width: 320
GlyphClass: 2
Flags: W
LayerCount: 2
Fore
SplineSet
13 -248 m 1,0,1
 35 -250 35 -250 56 -250 c 128,-1,2
 77 -250 77 -250 98 -239 c 0,3,4
 145 -215 145 -215 145 -106 c 0,5,6
 145 -96 145 -96 142.5 3.5 c 128,-1,7
 140 103 140 103 140 107 c 0,8,9
 140 164 140 164 173.5 200 c 128,-1,10
 207 236 207 236 238 240 c 1,11,12
 207 244 207 244 173.5 279.5 c 128,-1,13
 140 315 140 315 140 373 c 0,14,15
 140 376 140 376 143 478 c 128,-1,16
 146 580 146 580 146 604.5 c 128,-1,17
 146 629 146 629 140.5 657.5 c 128,-1,18
 135 686 135 686 111.5 708 c 128,-1,19
 88 730 88 730 44 730 c 0,20,21
 35 730 35 730 13 728 c 1,22,23
 11 730 11 730 11 745.5 c 128,-1,24
 11 761 11 761 18 770 c 1,25,26
 135 770 135 770 174.5 722.5 c 128,-1,27
 214 675 214 675 214 551 c 0,28,29
 214 409 214 409 220.5 358.5 c 128,-1,30
 227 308 227 308 237 292 c 0,31,32
 255 261 255 261 296 261 c 1,33,34
 300 257 300 257 300 239.5 c 128,-1,35
 300 222 300 222 296 219 c 1,36,37
 255 219 255 219 237 188 c 1,38,39
 220 161 220 161 217 84 c 128,-1,40
 214 7 214 7 214 -71 c 0,41,42
 214 -195 214 -195 174.5 -242.5 c 128,-1,43
 135 -290 135 -290 18 -290 c 1,44,45
 11 -283 11 -283 11 -267.5 c 128,-1,46
 11 -252 11 -252 13 -248 c 1,0,1
EndSplineSet
EndChar

StartChar: asciitilde
Encoding: 126 126 97
Width: 568
GlyphClass: 2
Flags: W
LayerCount: 2
Fore
SplineSet
446 232 m 128,-1,1
 408 216 408 216 371.5 216 c 128,-1,2
 335 216 335 216 281 234.5 c 128,-1,3
 227 253 227 253 207 253 c 0,4,5
 152 253 152 253 82 218 c 1,6,7
 65 226 65 226 65 249 c 1,8,-1
 66 257 l 1,9,10
 86 274 86 274 134 292.5 c 128,-1,11
 182 311 182 311 221 311 c 128,-1,12
 260 311 260 311 316 292.5 c 128,-1,13
 372 274 372 274 389 274 c 128,-1,14
 406 274 406 274 416.5 275.5 c 128,-1,15
 427 277 427 277 438 281 c 0,16,17
 474 294 474 294 489 304 c 1,18,19
 506 294 506 294 506 273 c 1,20,-1
 505 265 l 1,21,0
 484 248 484 248 446 232 c 128,-1,1
EndSplineSet
EndChar

StartChar: exclamdown
Encoding: 161 161 98
Width: 244
GlyphClass: 2
Flags: W
LayerCount: 2
Fore
SplineSet
82 633 m 128,-1,1
 97 649 97 649 122.5 649 c 128,-1,2
 148 649 148 649 164 634.5 c 128,-1,3
 180 620 180 620 180 594.5 c 128,-1,4
 180 569 180 569 162.5 552 c 128,-1,5
 145 535 145 535 121 535 c 128,-1,6
 97 535 97 535 82 551.5 c 128,-1,7
 67 568 67 568 67 592.5 c 128,-1,0
 67 617 67 617 82 633 c 128,-1,1
82 -109 m 0,8,9
 79 -106 79 -106 79 -20 c 128,-1,10
 79 66 79 66 85.5 178.5 c 128,-1,11
 92 291 92 291 99 374 c 128,-1,12
 106 457 106 457 106.5 459 c 128,-1,13
 107 461 107 461 116 461 c 1,14,-1
 149 456 l 1,15,16
 152 24 152 24 158.5 -34 c 128,-1,17
 165 -92 165 -92 173 -107 c 1,18,19
 162 -122 162 -122 130 -122 c 128,-1,20
 98 -122 98 -122 82 -109 c 0,8,9
EndSplineSet
EndChar

StartChar: cent
Encoding: 162 162 99
Width: 460
GlyphClass: 2
Flags: W
LayerCount: 2
Fore
SplineSet
262 -116 m 1,0,1
 253 -122 253 -122 234 -122 c 128,-1,2
 215 -122 215 -122 208 -112 c 1,3,4
 211 -78 211 -78 215 -8 c 1,5,6
 133 3 133 3 90 70 c 128,-1,7
 47 137 47 137 47 236.5 c 128,-1,8
 47 336 47 336 95.5 405 c 128,-1,9
 144 474 144 474 231 487 c 1,10,11
 232 548 232 548 236 608 c 1,12,13
 244 614 244 614 263.5 614 c 128,-1,14
 283 614 283 614 290 604 c 1,15,16
 285 544 285 544 282 489 c 1,17,18
 341 485 341 485 378 453 c 128,-1,19
 415 421 415 421 415 375 c 0,20,21
 415 352 415 352 401.5 339 c 128,-1,22
 388 326 388 326 366 326 c 128,-1,23
 344 326 344 326 330.5 335.5 c 128,-1,24
 317 345 317 345 317 360.5 c 128,-1,25
 317 376 317 376 329 389.5 c 128,-1,26
 341 403 341 403 341 409 c 0,27,28
 341 420 341 420 321.5 429.5 c 128,-1,29
 302 439 302 439 279 441 c 1,30,31
 274 347 274 347 267 53 c 1,32,33
 351 55 351 55 404 98 c 1,34,35
 420 82 420 82 420 73 c 128,-1,36
 420 64 420 64 415 59 c 0,37,38
 347 -9 347 -9 266 -9 c 1,39,-1
 262 -116 l 1,0,1
134 262 m 0,40,41
 134 94 134 94 218 61 c 1,42,43
 221 139 221 139 229 436 c 1,44,45
 185 422 185 422 159.5 377 c 128,-1,46
 134 332 134 332 134 262 c 0,40,41
EndSplineSet
EndChar

StartChar: sterling
Encoding: 163 163 100
Width: 557
GlyphClass: 2
Flags: W
LayerCount: 2
Fore
SplineSet
160 409 m 2,0,-1
 162 515 l 1,1,2
 162 607 162 607 213 660.5 c 128,-1,3
 264 714 264 714 353 714 c 0,4,5
 395 714 395 714 423.5 696 c 128,-1,6
 452 678 452 678 452 642 c 0,7,8
 452 620 452 620 438 605.5 c 128,-1,9
 424 591 424 591 401 591 c 0,10,11
 355 591 355 591 355 625 c 0,12,13
 355 634 355 634 359.5 641 c 128,-1,14
 364 648 364 648 364 649 c 0,15,16
 364 659 364 659 331.5 659 c 128,-1,17
 299 659 299 659 266 628.5 c 128,-1,18
 233 598 233 598 233 538 c 0,19,20
 233 535 233 535 237 379 c 1,21,22
 381 379 381 379 401 381 c 1,23,24
 406 365 406 365 406 348 c 128,-1,25
 406 331 406 331 398 323 c 1,26,-1
 239 323 l 1,27,-1
 241 275 l 1,28,-1
 241 265 l 2,29,30
 241 160 241 160 179 106 c 1,31,32
 216 113 216 113 235 113 c 0,33,34
 277 113 277 113 331.5 85 c 128,-1,35
 386 57 386 57 403 57 c 0,36,37
 457 57 457 57 512 132 c 1,38,39
 525 119 525 119 525 104 c 0,40,41
 525 102 525 102 523 96 c 0,42,43
 509 61 509 61 460.5 25.5 c 128,-1,44
 412 -10 412 -10 372 -10 c 0,45,46
 353 -10 353 -10 297 18.5 c 128,-1,47
 241 47 241 47 207 47 c 128,-1,48
 173 47 173 47 129.5 27 c 128,-1,49
 86 7 86 7 63 -10 c 1,50,51
 61 -6 61 -6 61 14 c 128,-1,52
 61 34 61 34 70 45 c 1,53,54
 121 82 121 82 140 147 c 128,-1,55
 159 212 159 212 161 323 c 1,56,-1
 47 323 l 1,57,58
 38 343 38 343 38 359 c 128,-1,59
 38 375 38 375 44 381 c 1,60,61
 58 379 58 379 161 379 c 1,62,63
 160 391 160 391 160 409 c 2,0,-1
EndSplineSet
EndChar

StartChar: currency
Encoding: 164 164 101
Width: 549
GlyphClass: 2
Flags: W
LayerCount: 2
Fore
SplineSet
425 416 m 1,0,1
 467 361 467 361 467 292 c 128,-1,2
 467 223 467 223 425 170 c 1,3,4
 482 108 482 108 497 96 c 1,5,6
 492 83 492 83 477.5 68.5 c 128,-1,7
 463 54 463 54 451 54 c 1,8,9
 432 74 432 74 382 129 c 1,10,11
 332 97 332 97 274 97 c 128,-1,12
 216 97 216 97 168 131 c 1,13,-1
 98 54 l 1,14,15
 86 54 86 54 74.5 64.5 c 128,-1,16
 63 75 63 75 52 96 c 1,17,18
 69 111 69 111 125 172 c 1,19,20
 86 223 86 223 86 291.5 c 128,-1,21
 86 360 86 360 125 413 c 1,22,23
 91 450 91 450 55 486 c 1,24,25
 60 499 60 499 74.5 513.5 c 128,-1,26
 89 528 89 528 101 528 c 1,27,-1
 168 455 l 1,28,29
 216 490 216 490 274.5 490 c 128,-1,30
 333 490 333 490 382 457 c 1,31,-1
 447 528 l 1,32,33
 459 528 459 528 470.5 517.5 c 128,-1,34
 482 507 482 507 493 486 c 1,35,-1
 425 416 l 1,0,1
366.5 183 m 128,-1,37
 400 229 400 229 400 295 c 128,-1,38
 400 361 400 361 368 404.5 c 128,-1,39
 336 448 336 448 275.5 448 c 128,-1,40
 215 448 215 448 184 404.5 c 128,-1,41
 153 361 153 361 153 295.5 c 128,-1,42
 153 230 153 230 186.5 183.5 c 128,-1,43
 220 137 220 137 276.5 137 c 128,-1,36
 333 137 333 137 366.5 183 c 128,-1,37
EndSplineSet
EndChar

StartChar: yen
Encoding: 165 165 102
Width: 745
GlyphClass: 2
Flags: W
LayerCount: 2
Fore
SplineSet
644 417 m 1,0,1
 644 417 644 417 500 419 c 1,2,-1
 427 281 l 1,3,4
 621 281 621 281 647 283 c 1,5,6
 652 265 652 265 652 246.5 c 128,-1,7
 652 228 652 228 644 220 c 1,8,9
 592 222 592 222 427 222 c 1,10,-1
 436 90 l 2,11,12
 438 63 438 63 452 50.5 c 128,-1,13
 466 38 466 38 502 38 c 1,14,15
 507 33 507 33 507 17.5 c 128,-1,16
 507 2 507 2 505 0 c 1,17,-1
 394 6 l 1,18,-1
 275 0 l 1,19,20
 272 3 272 3 272 17.5 c 128,-1,21
 272 32 272 32 278 38 c 1,22,23
 314 38 314 38 329 50.5 c 128,-1,24
 344 63 344 63 345 90 c 2,25,-1
 349 222 l 1,26,27
 169 222 169 222 113 220 c 1,28,29
 104 242 104 242 104 259 c 128,-1,30
 104 276 104 276 110 283 c 1,31,32
 136 281 136 281 336 281 c 1,33,-1
 257 419 l 1,34,-1
 113 417 l 1,35,36
 104 439 104 439 104 456 c 128,-1,37
 104 473 104 473 110 480 c 1,38,39
 142 478 142 478 224 478 c 1,40,-1
 169 575 l 2,41,42
 143 622 143 622 117 643.5 c 128,-1,43
 91 665 91 665 37 665 c 1,44,45
 30 670 30 670 30 685.5 c 128,-1,46
 30 701 30 701 32 703 c 1,47,48
 50 703 50 703 95 698.5 c 128,-1,49
 140 694 140 694 171 694 c 128,-1,50
 202 694 202 694 245 698.5 c 128,-1,51
 288 703 288 703 307 703 c 1,52,53
 309 699 309 699 309 685.5 c 128,-1,54
 309 672 309 672 302 665 c 1,55,56
 240 665 240 665 240 630 c 0,57,58
 240 608 240 608 260 575 c 2,59,-1
 397 348 l 1,60,-1
 515 575 l 2,61,62
 540 623 540 623 540 641 c 0,63,64
 540 665 540 665 497 665 c 1,65,66
 490 670 490 670 490 685.5 c 128,-1,67
 490 701 490 701 492 703 c 1,68,69
 508 703 508 703 543.5 698.5 c 128,-1,70
 579 694 579 694 604.5 694 c 128,-1,71
 630 694 630 694 661.5 698.5 c 128,-1,72
 693 703 693 703 709 703 c 1,73,74
 711 699 711 699 711 685 c 128,-1,75
 711 671 711 671 705 665 c 1,76,77
 658 665 658 665 633 643 c 128,-1,78
 608 621 608 621 583 575 c 2,79,-1
 532 478 l 1,80,81
 613 478 613 478 647 480 c 1,82,83
 652 462 652 462 652 443.5 c 128,-1,84
 652 425 652 425 644 417 c 1,0,1
EndSplineSet
EndChar

StartChar: brokenbar
Encoding: 166 166 103
Width: 233
GlyphClass: 2
Flags: W
LayerCount: 2
Fore
SplineSet
85 356 m 2,0,-1
 81 716 l 2,1,2
 81 756 81 756 82 758 c 0,3,4
 95 771 95 771 123 771 c 128,-1,5
 151 771 151 771 161 756 c 1,6,7
 148 714 148 714 146 294 c 1,8,9
 112 289 112 289 99 289 c 128,-1,10
 86 289 86 289 86 291 c 0,11,12
 85 327 85 327 85 356 c 2,0,-1
151 -276 m 1,13,14
 138 -289 138 -289 110 -289 c 128,-1,15
 82 -289 82 -289 72 -274 c 1,16,17
 85 -243 85 -243 85 -43 c 2,18,-1
 85 71 l 2,19,20
 85 151 85 151 86 186 c 1,21,22
 117 191 117 191 130 191 c 128,-1,23
 143 191 143 191 146 188 c 1,24,25
 147 119 147 119 148 66.5 c 128,-1,26
 149 14 149 14 150 -44 c 0,27,28
 152 -158 152 -158 152 -204 c 2,29,-1
 152 -258 l 2,30,31
 152 -266 152 -266 151 -276 c 1,13,14
EndSplineSet
EndChar

StartChar: section
Encoding: 167 167 104
Width: 460
GlyphClass: 2
Flags: W
LayerCount: 2
Fore
SplineSet
341 710 m 0,0,1
 342 713 342 713 354.5 713 c 128,-1,2
 367 713 367 713 370 710 c 1,3,-1
 381 551 l 1,4,5
 378 548 378 548 366 548 c 128,-1,6
 354 548 354 548 351 551 c 1,7,8
 345 608 345 608 324.5 637.5 c 128,-1,9
 304 667 304 667 255.5 667 c 128,-1,10
 207 667 207 667 181 640 c 128,-1,11
 155 613 155 613 155 580 c 128,-1,12
 155 547 155 547 181.5 521 c 128,-1,13
 208 495 208 495 246 474.5 c 128,-1,14
 284 454 284 454 321.5 431.5 c 128,-1,15
 359 409 359 409 385.5 374 c 128,-1,16
 412 339 412 339 412 292.5 c 128,-1,17
 412 246 412 246 383 213 c 128,-1,18
 354 180 354 180 309 163 c 1,19,20
 389 107 389 107 389 36.5 c 128,-1,21
 389 -34 389 -34 333.5 -71.5 c 128,-1,22
 278 -109 278 -109 215 -109 c 128,-1,23
 152 -109 152 -109 101 -84 c 0,24,25
 97 -82 97 -82 95 -82 c 256,26,27
 93 -82 93 -82 89 -106 c 1,28,29
 86 -109 86 -109 74.5 -109 c 128,-1,30
 63 -109 63 -109 60 -106 c 1,31,-1
 49 53 l 1,32,33
 52 56 52 56 64 56 c 128,-1,34
 76 56 76 56 79 53 c 1,35,36
 86 -1 86 -1 128 -32 c 128,-1,37
 170 -63 170 -63 216 -63 c 128,-1,38
 262 -63 262 -63 291 -39.5 c 128,-1,39
 320 -16 320 -16 320 26 c 0,40,41
 320 72 320 72 230 118 c 0,42,43
 193 137 193 137 155.5 159 c 128,-1,44
 118 181 118 181 91.5 217.5 c 128,-1,45
 65 254 65 254 65 302.5 c 128,-1,46
 65 351 65 351 88.5 387 c 128,-1,47
 112 423 112 423 150 440 c 1,48,49
 88 490 88 490 88 560.5 c 128,-1,50
 88 631 88 631 132 672.5 c 128,-1,51
 176 714 176 714 231 714 c 128,-1,52
 286 714 286 714 319 694 c 0,53,54
 332 686 332 686 334 686 c 0,55,56
 337 686 337 686 341 710 c 0,0,1
250.5 379 m 128,-1,58
 216 397 216 397 204 404 c 1,59,60
 171 397 171 397 151.5 372.5 c 128,-1,61
 132 348 132 348 132 320.5 c 128,-1,62
 132 293 132 293 151 270 c 128,-1,63
 170 247 170 247 186 237 c 128,-1,64
 202 227 202 227 227 213 c 128,-1,65
 252 199 252 199 255 197 c 1,66,67
 290 199 290 199 316.5 223 c 128,-1,68
 343 247 343 247 343 282 c 128,-1,69
 343 317 343 317 314 339 c 128,-1,57
 285 361 285 361 250.5 379 c 128,-1,58
EndSplineSet
EndChar

StartChar: dieresis
Encoding: 168 168 105
Width: 346
GlyphClass: 2
Flags: W
LayerCount: 2
Fore
SplineSet
32 622 m 128,-1,1
 32 645 32 645 45 660.5 c 128,-1,2
 58 676 58 676 80 676 c 128,-1,3
 102 676 102 676 118.5 660.5 c 128,-1,4
 135 645 135 645 135 624 c 0,5,6
 135 573 135 573 83 571 c 0,7,8
 60 571 60 571 46 585 c 128,-1,0
 32 599 32 599 32 622 c 128,-1,1
211 622 m 128,-1,10
 211 645 211 645 224 660.5 c 128,-1,11
 237 676 237 676 259 676 c 128,-1,12
 281 676 281 676 297.5 660.5 c 128,-1,13
 314 645 314 645 314 624 c 0,14,15
 314 573 314 573 262 571 c 0,16,17
 239 571 239 571 225 585 c 128,-1,9
 211 599 211 599 211 622 c 128,-1,10
EndSplineSet
EndChar

StartChar: copyright
Encoding: 169 169 106
Width: 627
GlyphClass: 2
Flags: W
LayerCount: 2
Fore
SplineSet
492.5 635.5 m 128,-1,1
 567 558 567 558 567 451.5 c 128,-1,2
 567 345 567 345 492.5 268 c 128,-1,3
 418 191 418 191 313 191 c 128,-1,4
 208 191 208 191 134.5 267.5 c 128,-1,5
 61 344 61 344 61 451 c 128,-1,6
 61 558 61 558 134.5 635.5 c 128,-1,7
 208 713 208 713 313 713 c 128,-1,0
 418 713 418 713 492.5 635.5 c 128,-1,1
468 292 m 128,-1,9
 531 357 531 357 531 450.5 c 128,-1,10
 531 544 531 544 467.5 610.5 c 128,-1,11
 404 677 404 677 312 677 c 128,-1,12
 220 677 220 677 158.5 610.5 c 128,-1,13
 97 544 97 544 97 450 c 128,-1,14
 97 356 97 356 158.5 291.5 c 128,-1,15
 220 227 220 227 312.5 227 c 128,-1,8
 405 227 405 227 468 292 c 128,-1,9
417 350 m 1,16,17
 429 335 429 335 429 330.5 c 128,-1,18
 429 326 429 326 426 323 c 0,19,20
 378 275 378 275 309.5 275 c 128,-1,21
 241 275 241 275 205.5 323 c 128,-1,22
 170 371 170 371 170 446 c 128,-1,23
 170 521 170 521 211 571 c 128,-1,24
 252 621 252 621 323 621 c 0,25,26
 368 621 368 621 396.5 598 c 128,-1,27
 425 575 425 575 425 541 c 128,-1,28
 425 507 425 507 391 507 c 128,-1,29
 357 507 357 507 357 531 c 0,30,31
 357 542 357 542 365.5 551 c 128,-1,32
 374 560 374 560 374 565 c 0,33,34
 374 574 374 574 356.5 581 c 128,-1,35
 339 588 339 588 322 588 c 0,36,37
 281 588 281 588 255.5 554.5 c 128,-1,38
 230 521 230 521 230 463 c 0,39,40
 230 319 230 319 319 319 c 0,41,42
 381 319 381 319 417 350 c 1,16,17
EndSplineSet
EndChar

StartChar: ordfeminine
Encoding: 170 170 107
Width: 367
GlyphClass: 2
Flags: W
LayerCount: 2
Fore
SplineSet
68 467.5 m 128,-1,1
 43 491 43 491 43 526.5 c 128,-1,2
 43 562 43 562 73.5 586 c 128,-1,3
 104 610 104 610 175 625 c 2,4,-1
 220 634 l 1,5,-1
 220 650 l 2,6,7
 220 696 220 696 204.5 716.5 c 128,-1,8
 189 737 189 737 146.5 737 c 128,-1,9
 104 737 104 737 104 717 c 0,10,11
 104 713 104 713 111.5 704 c 128,-1,12
 119 695 119 695 119 685 c 0,13,14
 119 663 119 663 87 663 c 0,15,16
 73 663 73 663 64 671.5 c 128,-1,17
 55 680 55 680 55 695 c 0,18,19
 55 728 55 728 87.5 749.5 c 128,-1,20
 120 771 120 771 158 771 c 0,21,22
 274 771 274 771 272 672 c 2,23,-1
 269 522 l 2,24,25
 268 480 268 480 297 480 c 0,26,27
 308 480 308 480 324 486 c 1,28,29
 329 478 329 478 329 471.5 c 128,-1,30
 329 465 329 465 327 463 c 0,31,32
 308 444 308 444 275 444 c 128,-1,33
 242 444 242 444 223 480 c 1,34,35
 179 444 179 444 136 444 c 128,-1,0
 93 444 93 444 68 467.5 c 128,-1,1
103 531.5 m 128,-1,37
 103 509 103 509 115 495.5 c 128,-1,38
 127 482 127 482 152.5 482 c 128,-1,39
 178 482 178 482 222 507 c 1,40,-1
 221 600 l 1,41,42
 138 580 138 580 120.5 567 c 128,-1,36
 103 554 103 554 103 531.5 c 128,-1,37
EndSplineSet
EndChar

StartChar: guillemotleft
Encoding: 171 171 108
Width: 430
GlyphClass: 2
Flags: W
LayerCount: 2
Fore
SplineSet
46 236 m 0,0,1
 42 240 42 240 42 247.5 c 128,-1,2
 42 255 42 255 46 258 c 0,3,4
 109 322 109 322 119 333.5 c 128,-1,5
 129 345 129 345 141 358.5 c 128,-1,6
 153 372 153 372 160 382 c 0,7,8
 183 412 183 412 193 429 c 0,9,10
 195 431 195 431 199.5 431 c 128,-1,11
 204 431 204 431 210.5 429 c 128,-1,12
 217 427 217 427 222 424 c 1,13,14
 232 415 232 415 232 411.5 c 128,-1,15
 232 408 232 408 195.5 350.5 c 128,-1,16
 159 293 159 293 126 247 c 1,17,18
 157 207 157 207 194.5 146 c 128,-1,19
 232 85 232 85 232 81 c 128,-1,20
 232 77 232 77 229 74 c 0,21,22
 213 61 213 61 204 61 c 128,-1,23
 195 61 195 61 193 63 c 0,24,25
 155 127 155 127 46 236 c 0,0,1
191 236 m 0,26,27
 187 240 187 240 187 247.5 c 128,-1,28
 187 255 187 255 190 258 c 0,29,30
 254 322 254 322 264 333.5 c 128,-1,31
 274 345 274 345 286 358.5 c 128,-1,32
 298 372 298 372 306 382 c 0,33,34
 328 412 328 412 338 429 c 0,35,36
 340 431 340 431 344.5 431 c 128,-1,37
 349 431 349 431 355.5 429 c 128,-1,38
 362 427 362 427 366 424 c 0,39,40
 377 415 377 415 377 411.5 c 128,-1,41
 377 408 377 408 340.5 350.5 c 128,-1,42
 304 293 304 293 271 247 c 1,43,44
 302 207 302 207 339.5 146 c 128,-1,45
 377 85 377 85 377 81 c 128,-1,46
 377 77 377 77 374 74 c 0,47,48
 358 61 358 61 349 61 c 128,-1,49
 340 61 340 61 338 63 c 0,50,51
 300 127 300 127 191 236 c 0,26,27
EndSplineSet
EndChar

StartChar: logicalnot
Encoding: 172 172 109
Width: 542
GlyphClass: 2
Flags: W
LayerCount: 2
Fore
SplineSet
467 273 m 2,0,-1
 465 154 l 1,1,2
 465 93 465 93 467 57 c 1,3,4
 447 52 447 52 426.5 52 c 128,-1,5
 406 52 406 52 398 60 c 1,6,7
 406 86 406 86 406 148.5 c 128,-1,8
 406 211 406 211 405 224 c 1,9,10
 396 225 396 225 289 225 c 128,-1,11
 182 225 182 225 80 219 c 1,12,13
 71 241 71 241 71 258 c 128,-1,14
 71 275 71 275 77 282 c 1,15,16
 112 279 112 279 287 279 c 1,17,-1
 459 282 l 2,18,19
 467 282 467 282 467 273 c 2,0,-1
EndSplineSet
EndChar

StartChar: registered
Encoding: 174 174 110
Width: 627
GlyphClass: 2
Flags: W
LayerCount: 2
Fore
SplineSet
492.5 635.5 m 128,-1,1
 567 558 567 558 567 451.5 c 128,-1,2
 567 345 567 345 492.5 268 c 128,-1,3
 418 191 418 191 313 191 c 128,-1,4
 208 191 208 191 134.5 267.5 c 128,-1,5
 61 344 61 344 61 451 c 128,-1,6
 61 558 61 558 134.5 635.5 c 128,-1,7
 208 713 208 713 313 713 c 128,-1,0
 418 713 418 713 492.5 635.5 c 128,-1,1
468 292 m 128,-1,9
 531 357 531 357 531 450.5 c 128,-1,10
 531 544 531 544 467.5 610.5 c 128,-1,11
 404 677 404 677 312 677 c 128,-1,12
 220 677 220 677 158.5 610.5 c 128,-1,13
 97 544 97 544 97 450 c 128,-1,14
 97 356 97 356 158.5 291.5 c 128,-1,15
 220 227 220 227 312.5 227 c 128,-1,8
 405 227 405 227 468 292 c 128,-1,9
234 614 m 1,16,-1
 303 617 l 1,17,18
 346 617 346 617 377.5 593.5 c 128,-1,19
 409 570 409 570 409 535.5 c 128,-1,20
 409 501 409 501 384 476.5 c 128,-1,21
 359 452 359 452 315 442 c 1,22,23
 404 340 404 340 419 327 c 128,-1,24
 434 314 434 314 451 313 c 1,25,26
 454 310 454 310 454 302.5 c 128,-1,27
 454 295 454 295 453 294 c 1,28,-1
 400 299 l 1,29,-1
 337 294 l 1,30,31
 336 295 336 295 336 302.5 c 128,-1,32
 336 310 336 310 339 313 c 1,33,34
 360 313 360 313 360 320 c 0,35,36
 360 330 360 330 310 394 c 1,37,38
 289 423 289 423 281 430 c 128,-1,39
 273 437 273 437 258 437 c 1,40,-1
 262 336 l 2,41,42
 263 323 263 323 269 318 c 128,-1,43
 275 313 275 313 292 313 c 1,44,45
 295 310 295 310 295 302.5 c 128,-1,46
 295 295 295 295 294 294 c 1,47,-1
 242 297 l 1,48,-1
 188 294 l 1,49,50
 187 295 187 295 187 302.5 c 128,-1,51
 187 310 187 310 190 313 c 1,52,53
 218 313 218 313 218 336 c 2,54,-1
 220 575 l 2,55,56
 220 598 220 598 191 598 c 1,57,58
 188 604 188 604 188 609.5 c 128,-1,59
 188 615 188 615 190 617 c 1,60,-1
 234 614 l 1,16,-1
344 575 m 128,-1,62
 322 592 322 592 295 592 c 128,-1,63
 268 592 268 592 251 587 c 1,64,-1
 257 464 l 1,65,-1
 282 464 l 2,66,67
 320 464 320 464 343 481 c 128,-1,68
 366 498 366 498 366 528 c 128,-1,61
 366 558 366 558 344 575 c 128,-1,62
EndSplineSet
EndChar

StartChar: macron
Encoding: 175 175 111
Width: 432
GlyphClass: 2
Flags: W
LayerCount: 2
Fore
SplineSet
402 589 m 1,0,1
 354 591 354 591 216.5 591 c 128,-1,2
 79 591 79 591 31 589 c 1,3,4
 22 611 22 611 22 628 c 128,-1,5
 22 645 22 645 28 652 c 1,6,7
 52 650 52 650 216.5 650 c 128,-1,8
 381 650 381 650 405 652 c 1,9,10
 410 634 410 634 410 615.5 c 128,-1,11
 410 597 410 597 402 589 c 1,0,1
EndSplineSet
EndChar

StartChar: degree
Encoding: 176 176 112
Width: 341
GlyphClass: 2
Flags: W
LayerCount: 2
Fore
SplineSet
262 673 m 128,-1,1
 300 633 300 633 300 578 c 128,-1,2
 300 523 300 523 262.5 484.5 c 128,-1,3
 225 446 225 446 170 446 c 128,-1,4
 115 446 115 446 78 484.5 c 128,-1,5
 41 523 41 523 41 578 c 128,-1,6
 41 633 41 633 78.5 673 c 128,-1,7
 116 713 116 713 170 713 c 128,-1,0
 224 713 224 713 262 673 c 128,-1,1
227.5 520 m 128,-1,9
 251 544 251 544 251 580 c 128,-1,10
 251 616 251 616 228.5 639.5 c 128,-1,11
 206 663 206 663 170 663 c 128,-1,12
 134 663 134 663 112 639.5 c 128,-1,13
 90 616 90 616 90 580 c 128,-1,14
 90 544 90 544 113 520 c 128,-1,15
 136 496 136 496 170 496 c 128,-1,8
 204 496 204 496 227.5 520 c 128,-1,9
EndSplineSet
EndChar

StartChar: plusminus
Encoding: 177 177 113
Width: 495
GlyphClass: 2
Flags: W
LayerCount: 2
Fore
SplineSet
429 -2 m 1,0,1
 387 0 387 0 247.5 0 c 128,-1,2
 108 0 108 0 68 -2 c 1,3,4
 59 20 59 20 59 37 c 128,-1,5
 59 54 59 54 65 61 c 1,6,7
 85 59 85 59 248 59 c 128,-1,8
 411 59 411 59 432 61 c 1,9,10
 437 43 437 43 437 24.5 c 128,-1,11
 437 6 437 6 429 -2 c 1,0,1
276 356 m 1,12,13
 412 356 412 356 431 358 c 1,14,15
 436 340 436 340 436 321.5 c 128,-1,16
 436 303 436 303 428 295 c 1,17,18
 390 297 390 297 276 297 c 1,19,20
 276 158 276 158 278 140 c 1,21,22
 256 131 256 131 238.5 131 c 128,-1,23
 221 131 221 131 215 137 c 1,24,25
 217 173 217 173 217 297 c 1,26,27
 101 297 101 297 67 295 c 1,28,29
 58 317 58 317 58 334 c 128,-1,30
 58 351 58 351 64 358 c 1,31,32
 81 356 81 356 217 356 c 1,33,34
 217 465 217 465 215 501 c 1,35,36
 237 510 237 510 254.5 510 c 128,-1,37
 272 510 272 510 278 504 c 1,38,39
 276 486 276 486 276 356 c 1,12,13
EndSplineSet
EndChar

StartChar: twosuperior
Encoding: 178 178 114
Width: 372
GlyphClass: 2
Flags: W
LayerCount: 2
Fore
SplineSet
211.5 713.5 m 128,-1,1
 240 763 240 763 240 802.5 c 128,-1,2
 240 842 240 842 218 861 c 128,-1,3
 196 880 196 880 166 880 c 128,-1,4
 136 880 136 880 118 871.5 c 128,-1,5
 100 863 100 863 100 849 c 0,6,7
 100 846 100 846 108 837 c 128,-1,8
 116 828 116 828 116 818 c 0,9,10
 116 795 116 795 84 795 c 0,11,12
 69 795 69 795 60.5 804 c 128,-1,13
 52 813 52 813 52 827 c 0,14,15
 52 868 52 868 89.5 891 c 128,-1,16
 127 914 127 914 177 914 c 128,-1,17
 227 914 227 914 261.5 887.5 c 128,-1,18
 296 861 296 861 296 807 c 0,19,20
 296 766 296 766 278.5 732.5 c 128,-1,21
 261 699 261 699 250.5 681 c 128,-1,22
 240 663 240 663 218 634 c 128,-1,23
 196 605 196 605 184 590 c 0,24,25
 163 562 163 562 108 496 c 0,26,27
 104 492 104 492 104 486 c 0,28,29
 104 485 104 485 132 485 c 2,30,-1
 178 485 l 2,31,32
 258 485 258 485 275 498 c 128,-1,33
 292 511 292 511 294 578 c 1,34,35
 298 580 298 580 307 580 c 128,-1,36
 316 580 316 580 327 572 c 1,37,-1
 308 445 l 1,38,39
 262 450 262 450 155 450 c 2,40,-1
 39 451 l 2,41,42
 36 452 36 452 36 459 c 1,43,-1
 42 489 l 1,44,45
 52 519 52 519 148 626 c 0,46,0
 183 664 183 664 211.5 713.5 c 128,-1,1
EndSplineSet
EndChar

StartChar: threesuperior
Encoding: 179 179 115
Width: 327
GlyphClass: 2
Flags: W
LayerCount: 2
Fore
SplineSet
103 673 m 2,0,1
 100 673 100 673 95.5 682 c 128,-1,2
 91 691 91 691 91 695 c 128,-1,3
 91 699 91 699 92 699 c 0,4,5
 209 733 209 733 209 808 c 0,6,7
 209 840 209 840 191.5 860 c 128,-1,8
 174 880 174 880 147.5 880 c 128,-1,9
 121 880 121 880 104 870.5 c 128,-1,10
 87 861 87 861 87 852 c 128,-1,11
 87 843 87 843 94.5 834.5 c 128,-1,12
 102 826 102 826 102 813 c 0,13,14
 102 791 102 791 70.5 791 c 128,-1,15
 39 791 39 791 39 826 c 128,-1,16
 39 861 39 861 75 887.5 c 128,-1,17
 111 914 111 914 155.5 914 c 128,-1,18
 200 914 200 914 231.5 884.5 c 128,-1,19
 263 855 263 855 263 812 c 0,20,21
 263 736 263 736 175 705 c 1,22,23
 223 700 223 700 256 666 c 128,-1,24
 289 632 289 632 289 579.5 c 128,-1,25
 289 527 289 527 245 486 c 128,-1,26
 201 445 201 445 143 445 c 0,27,28
 102 445 102 445 69.5 465.5 c 128,-1,29
 37 486 37 486 37 521 c 128,-1,30
 37 556 37 556 68.5 556 c 128,-1,31
 100 556 100 556 100 534 c 0,32,33
 100 524 100 524 92.5 515 c 128,-1,34
 85 506 85 506 85 502 c 0,35,36
 85 492 85 492 103.5 484.5 c 128,-1,37
 122 477 122 477 140 477 c 0,38,39
 182 477 182 477 208 505.5 c 128,-1,40
 234 534 234 534 234 580 c 128,-1,41
 234 626 234 626 211 656 c 128,-1,42
 188 686 188 686 158.5 686 c 128,-1,43
 129 686 129 686 104 673 c 1,44,-1
 103 673 l 2,0,1
EndSplineSet
EndChar

StartChar: acute
Encoding: 180 180 116
Width: 242
GlyphClass: 2
Flags: W
LayerCount: 2
Fore
SplineSet
226 704 m 0,0,1
 226 692 226 692 143.5 637.5 c 128,-1,2
 61 583 61 583 55.5 583 c 128,-1,3
 50 583 50 583 45 590 c 0,4,5
 36 604 36 604 34 619 c 1,6,7
 135 705 135 705 172 777 c 1,8,9
 195 777 195 777 210.5 747.5 c 128,-1,10
 226 718 226 718 226 704 c 0,0,1
EndSplineSet
EndChar

StartChar: mu
Encoding: 181 181 117
AltUni2: 0003bc.ffffffff.0
Width: 623
GlyphClass: 2
Flags: W
LayerCount: 2
Fore
SplineSet
430 77 m 1,0,1
 343 -10 343 -10 266 -10 c 0,2,3
 213 -10 213 -10 178 15 c 1,4,-1
 178 -195 l 1,5,6
 175 -199 175 -199 162 -203.5 c 128,-1,7
 149 -208 149 -208 133 -208 c 128,-1,8
 117 -208 117 -208 110 -193 c 1,9,-1
 114 357 l 2,10,11
 114 384 114 384 97.5 396 c 128,-1,12
 81 408 81 408 44 408 c 0,13,14
 36 408 36 408 36 421.5 c 128,-1,15
 36 435 36 435 42 444 c 1,16,17
 103 451 103 451 144 480 c 0,18,19
 148 483 148 483 164 483 c 128,-1,20
 180 483 180 483 183 480 c 1,21,-1
 190 164 l 2,22,23
 191 113 191 113 218.5 82.5 c 128,-1,24
 246 52 246 52 295 52 c 0,25,26
 331 52 331 52 370 82 c 0,27,28
 383 92 383 92 401.5 109 c 128,-1,29
 420 126 420 126 424 129 c 1,30,-1
 424 357 l 2,31,32
 424 385 424 385 406.5 396.5 c 128,-1,33
 389 408 389 408 349 408 c 1,34,35
 346 411 346 411 346 424.5 c 128,-1,36
 346 438 346 438 352 444 c 1,37,38
 387 448 387 448 407.5 454.5 c 128,-1,39
 428 461 428 461 454 480 c 0,40,41
 458 483 458 483 474 483 c 128,-1,42
 490 483 490 483 493 480 c 1,43,-1
 503 113 l 2,44,45
 505 45 505 45 550 45 c 0,46,47
 566 45 566 45 588 54 c 1,48,49
 595 45 595 45 595 27 c 0,50,51
 595 16 595 16 570 3 c 128,-1,52
 545 -10 545 -10 517.5 -10 c 128,-1,53
 490 -10 490 -10 474.5 -1 c 128,-1,54
 459 8 459 8 451 21 c 0,55,56
 435 47 435 47 430 77 c 1,0,1
EndSplineSet
EndChar

StartChar: paragraph
Encoding: 182 182 118
Width: 529
GlyphClass: 2
Flags: W
LayerCount: 2
Fore
SplineSet
379 697 m 1,0,-1
 496 703 l 1,1,2
 498 699 498 699 498 685 c 128,-1,3
 498 671 498 671 492 665 c 1,4,5
 442 665 442 665 426 653.5 c 128,-1,6
 410 642 410 642 410 614 c 2,7,-1
 407 89 l 2,8,9
 406 -3 406 -3 364.5 -56.5 c 128,-1,10
 323 -110 323 -110 249 -110 c 0,11,12
 207 -110 207 -110 178.5 -91 c 128,-1,13
 150 -72 150 -72 150 -33 c 0,14,15
 150 -10 150 -10 164 4 c 128,-1,16
 178 18 178 18 199 18 c 128,-1,17
 220 18 220 18 233.5 8.5 c 128,-1,18
 247 -1 247 -1 247 -15 c 128,-1,19
 247 -29 247 -29 242.5 -37 c 128,-1,20
 238 -45 238 -45 238 -47 c 0,21,22
 238 -63 238 -63 264.5 -63 c 128,-1,23
 291 -63 291 -63 317 -21 c 128,-1,24
 343 21 343 21 343 105 c 0,25,26
 343 106 343 106 339 645 c 1,27,28
 319 652 319 652 292 652 c 0,29,30
 255 652 255 652 221 605.5 c 128,-1,31
 187 559 187 559 187 479.5 c 128,-1,32
 187 400 187 400 224 354 c 128,-1,33
 261 308 261 308 296 307 c 0,34,35
 299 307 299 307 299 302 c 128,-1,36
 299 297 299 297 291.5 285 c 128,-1,37
 284 273 284 273 280 269 c 1,38,39
 177 271 177 271 107 331 c 128,-1,40
 37 391 37 391 37 491 c 128,-1,41
 37 591 37 591 92 647 c 128,-1,42
 147 703 147 703 230 703 c 1,43,-1
 379 697 l 1,0,-1
EndSplineSet
EndChar

StartChar: periodcentered
Encoding: 183 183 119
Width: 235
GlyphClass: 2
Flags: W
LayerCount: 2
Fore
SplineSet
158 210.5 m 128,-1,1
 142 196 142 196 116.5 196 c 128,-1,2
 91 196 91 196 76 212 c 128,-1,3
 61 228 61 228 61 252.5 c 128,-1,4
 61 277 61 277 76 293.5 c 128,-1,5
 91 310 91 310 115 310 c 128,-1,6
 139 310 139 310 156.5 293 c 128,-1,7
 174 276 174 276 174 250.5 c 128,-1,0
 174 225 174 225 158 210.5 c 128,-1,1
EndSplineSet
EndChar

StartChar: cedilla
Encoding: 184 184 120
Width: 221
GlyphClass: 2
Flags: W
LayerCount: 2
Fore
SplineSet
136.5 -187 m 128,-1,1
 150 -168 150 -168 150 -152.5 c 128,-1,2
 150 -137 150 -137 148.5 -130.5 c 128,-1,3
 147 -124 147 -124 145.5 -119 c 128,-1,4
 144 -114 144 -114 139 -108 c 0,5,6
 129 -96 129 -96 121 -89.5 c 128,-1,7
 113 -83 113 -83 110 -80.5 c 128,-1,8
 107 -78 107 -78 96.5 -70.5 c 128,-1,9
 86 -63 86 -63 81.5 -60 c 128,-1,10
 77 -57 77 -57 77 -51 c 128,-1,11
 77 -45 77 -45 82 -35 c 2,12,-1
 113 29 l 1,13,-1
 148 29 l 1,14,15
 116 -35 116 -35 116 -38.5 c 128,-1,16
 116 -42 116 -42 121 -46 c 0,17,18
 196 -96 196 -96 196 -149 c 0,19,20
 196 -185 196 -185 170 -210 c 128,-1,21
 144 -235 144 -235 110 -235 c 128,-1,22
 76 -235 76 -235 51.5 -218.5 c 128,-1,23
 27 -202 27 -202 27 -171 c 0,24,25
 27 -159 27 -159 33.5 -151.5 c 128,-1,26
 40 -144 40 -144 51 -144 c 0,27,28
 78 -144 78 -144 78 -165 c 0,29,30
 78 -173 78 -173 72.5 -180 c 128,-1,31
 67 -187 67 -187 67 -188 c 0,32,33
 67 -196 67 -196 77.5 -201 c 128,-1,34
 88 -206 88 -206 105.5 -206 c 128,-1,0
 123 -206 123 -206 136.5 -187 c 128,-1,1
EndSplineSet
EndChar

StartChar: onesuperior
Encoding: 185 185 121
Width: 320
GlyphClass: 2
Flags: W
LayerCount: 2
Fore
SplineSet
163 456 m 1,0,-1
 41 451 l 1,1,2
 38 452 38 452 38 461.5 c 128,-1,3
 38 471 38 471 43 474 c 1,4,5
 90 474 90 474 110 485.5 c 128,-1,6
 130 497 130 497 131 533 c 2,7,-1
 133 783 l 2,8,9
 134 821 134 821 114.5 830 c 128,-1,10
 95 839 95 839 32 839 c 1,11,12
 30 843 30 843 30 850.5 c 128,-1,13
 30 858 30 858 35 863 c 1,14,15
 118 867 118 867 154 907 c 0,16,17
 156 910 156 910 165 910 c 128,-1,18
 174 910 174 910 177 907 c 1,19,-1
 191 533 l 2,20,21
 192 497 192 497 211.5 485.5 c 128,-1,22
 231 474 231 474 277 474 c 1,23,24
 282 471 282 471 282 462 c 128,-1,25
 282 453 282 453 280 451 c 1,26,-1
 163 456 l 1,0,-1
EndSplineSet
EndChar

StartChar: ordmasculine
Encoding: 186 186 122
Width: 366
GlyphClass: 2
Flags: W
LayerCount: 2
Fore
SplineSet
45 607 m 128,-1,1
 45 678 45 678 79.5 724 c 128,-1,2
 114 770 114 770 183 770 c 128,-1,3
 252 770 252 770 288 724 c 128,-1,4
 324 678 324 678 324 607.5 c 128,-1,5
 324 537 324 537 288 490.5 c 128,-1,6
 252 444 252 444 183 444 c 128,-1,7
 114 444 114 444 79.5 490 c 128,-1,0
 45 536 45 536 45 607 c 128,-1,1
123 518.5 m 128,-1,9
 145 480 145 480 190.5 480 c 128,-1,10
 236 480 236 480 252.5 510.5 c 128,-1,11
 269 541 269 541 269 599.5 c 128,-1,12
 269 658 269 658 246.5 698.5 c 128,-1,13
 224 739 224 739 179 739 c 128,-1,14
 134 739 134 739 117.5 707 c 128,-1,15
 101 675 101 675 101 616 c 128,-1,8
 101 557 101 557 123 518.5 c 128,-1,9
EndSplineSet
EndChar

StartChar: guillemotright
Encoding: 187 187 123
Width: 429
GlyphClass: 2
Flags: W
LayerCount: 2
Fore
SplineSet
92 63 m 0,0,1
 90 61 90 61 85.5 61 c 128,-1,2
 81 61 81 61 74.5 63 c 128,-1,3
 68 65 68 65 64 68 c 0,4,5
 53 77 53 77 53 81 c 128,-1,6
 53 85 53 85 90.5 146 c 128,-1,7
 128 207 128 207 159 247 c 1,8,9
 126 293 126 293 89.5 350.5 c 128,-1,10
 53 408 53 408 53 411.5 c 128,-1,11
 53 415 53 415 56 418 c 0,12,13
 72 431 72 431 81 431 c 128,-1,14
 90 431 90 431 92 429 c 0,15,16
 112 394 112 394 134 369.5 c 128,-1,17
 156 345 156 345 162.5 337.5 c 128,-1,18
 169 330 169 330 182.5 316 c 128,-1,19
 196 302 196 302 201 297 c 0,20,21
 220 278 220 278 239 259 c 0,22,23
 243 255 243 255 243 247.5 c 128,-1,24
 243 240 243 240 239 236 c 0,25,26
 130 127 130 127 92 63 c 0,0,1
237 63 m 0,27,28
 235 61 235 61 230.5 61 c 128,-1,29
 226 61 226 61 219.5 63 c 128,-1,30
 213 65 213 65 208 68 c 1,31,32
 198 77 198 77 198 81 c 128,-1,33
 198 85 198 85 235.5 146 c 128,-1,34
 273 207 273 207 304 247 c 1,35,36
 271 293 271 293 234.5 350.5 c 128,-1,37
 198 408 198 408 198 411.5 c 128,-1,38
 198 415 198 415 201 418 c 0,39,40
 217 431 217 431 226 431 c 128,-1,41
 235 431 235 431 237 429 c 0,42,43
 257 394 257 394 279 369.5 c 128,-1,44
 301 345 301 345 307.5 337.5 c 128,-1,45
 314 330 314 330 327.5 316 c 128,-1,46
 341 302 341 302 346 297 c 0,47,48
 365 278 365 278 384 259 c 0,49,50
 388 255 388 255 388 247.5 c 128,-1,51
 388 240 388 240 384 236 c 0,52,53
 275 127 275 127 237 63 c 0,27,28
EndSplineSet
EndChar

StartChar: onequarter
Encoding: 188 188 124
Width: 804
GlyphClass: 2
Flags: W
LayerCount: 2
Fore
SplineSet
167 348 m 1,0,-1
 45 343 l 1,1,2
 42 344 42 344 42 353.5 c 128,-1,3
 42 363 42 363 47 366 c 1,4,5
 94 366 94 366 114 377.5 c 128,-1,6
 134 389 134 389 135 425 c 2,7,-1
 137 675 l 2,8,9
 138 713 138 713 118.5 722 c 128,-1,10
 99 731 99 731 36 731 c 1,11,12
 34 735 34 735 34 742.5 c 128,-1,13
 34 750 34 750 39 755 c 1,14,15
 122 759 122 759 158 799 c 0,16,17
 160 802 160 802 169 802 c 128,-1,18
 178 802 178 802 181 799 c 1,19,-1
 195 425 l 2,20,21
 196 389 196 389 215.5 377.5 c 128,-1,22
 235 366 235 366 281 366 c 1,23,24
 286 363 286 363 286 354 c 128,-1,25
 286 345 286 345 284 343 c 1,26,-1
 167 348 l 1,0,-1
685 24 m 1,27,-1
 603 21 l 1,28,29
 601 22 601 22 601 30 c 128,-1,30
 601 38 601 38 604 44 c 1,31,32
 654 44 654 44 654 77 c 2,33,-1
 653 146 l 1,34,-1
 472 146 l 1,35,36
 469 149 469 149 469 164 c 128,-1,37
 469 179 469 179 472 182 c 2,38,-1
 669 477 l 2,39,40
 670 480 670 480 679.5 480 c 128,-1,41
 689 480 689 480 692 477 c 1,42,-1
 702 182 l 1,43,-1
 766 182 l 1,44,45
 769 172 769 172 769 161.5 c 128,-1,46
 769 151 769 151 764 146 c 1,47,-1
 704 146 l 1,48,-1
 706 77 l 2,49,50
 707 44 707 44 755 44 c 1,51,52
 759 40 759 40 759 31 c 128,-1,53
 759 22 759 22 757 21 c 1,54,-1
 685 24 l 1,27,-1
525 182 m 2,55,-1
 649 182 l 2,56,57
 653 182 653 182 653 187 c 2,58,-1
 658 405 l 2,59,60
 658 407 658 407 656.5 407 c 128,-1,61
 655 407 655 407 654 405 c 2,62,-1
 524 185 l 2,63,64
 522 182 522 182 525 182 c 2,55,-1
694 752 m 1,65,66
 620 649 620 649 442 376 c 128,-1,67
 264 103 264 103 203 -1 c 1,68,69
 152 2 152 2 142 33 c 1,70,71
 216 138 216 138 396 413 c 128,-1,72
 576 688 576 688 637 791 c 1,73,74
 653 791 653 791 672 779.5 c 128,-1,75
 691 768 691 768 694 752 c 1,65,66
EndSplineSet
EndChar

StartChar: onehalf
Encoding: 189 189 125
Width: 850
GlyphClass: 2
Flags: W
LayerCount: 2
Fore
SplineSet
694 752 m 1,0,1
 620 649 620 649 442 376 c 128,-1,2
 264 103 264 103 203 -1 c 1,3,4
 152 2 152 2 142 33 c 1,5,6
 216 138 216 138 396 413 c 128,-1,7
 576 688 576 688 637 791 c 1,8,9
 653 791 653 791 672 779.5 c 128,-1,10
 691 768 691 768 694 752 c 1,0,1
166 348 m 1,11,-1
 44 343 l 1,12,13
 41 344 41 344 41 353.5 c 128,-1,14
 41 363 41 363 46 366 c 1,15,16
 93 366 93 366 113 377.5 c 128,-1,17
 133 389 133 389 134 425 c 2,18,-1
 136 675 l 2,19,20
 137 713 137 713 117.5 722 c 128,-1,21
 98 731 98 731 35 731 c 1,22,23
 33 735 33 735 33 742.5 c 128,-1,24
 33 750 33 750 38 755 c 1,25,26
 121 759 121 759 157 799 c 1,27,28
 158 802 158 802 167.5 802 c 128,-1,29
 177 802 177 802 180 799 c 1,30,-1
 194 425 l 2,31,32
 195 389 195 389 214.5 377.5 c 128,-1,33
 234 366 234 366 280 366 c 1,34,35
 285 363 285 363 285 354 c 128,-1,36
 285 345 285 345 283 343 c 1,37,-1
 166 348 l 1,11,-1
699.5 282.5 m 128,-1,39
 728 332 728 332 728 371.5 c 128,-1,40
 728 411 728 411 706 430 c 128,-1,41
 684 449 684 449 654 449 c 128,-1,42
 624 449 624 449 606 440.5 c 128,-1,43
 588 432 588 432 588 418 c 0,44,45
 588 415 588 415 596 406 c 128,-1,46
 604 397 604 397 604 387 c 0,47,48
 604 364 604 364 572 364 c 0,49,50
 557 364 557 364 548.5 373 c 128,-1,51
 540 382 540 382 540 396 c 0,52,53
 540 437 540 437 577.5 460 c 128,-1,54
 615 483 615 483 665 483 c 128,-1,55
 715 483 715 483 749.5 456.5 c 128,-1,56
 784 430 784 430 784 376 c 0,57,58
 784 335 784 335 766.5 301.5 c 128,-1,59
 749 268 749 268 738.5 250 c 128,-1,60
 728 232 728 232 706 203 c 128,-1,61
 684 174 684 174 672 159 c 0,62,63
 651 132 651 132 596 65 c 0,64,65
 592 61 592 61 592 55 c 0,66,67
 592 54 592 54 620 54 c 2,68,-1
 666 54 l 2,69,70
 746 54 746 54 763 67 c 128,-1,71
 780 80 780 80 782 147 c 1,72,73
 786 149 786 149 795 149 c 128,-1,74
 804 149 804 149 815 141 c 1,75,-1
 796 14 l 1,76,77
 750 19 750 19 643 19 c 2,78,-1
 527 20 l 2,79,80
 524 21 524 21 524 28 c 1,81,-1
 530 58 l 1,82,83
 540 88 540 88 636 194 c 0,84,38
 671 233 671 233 699.5 282.5 c 128,-1,39
EndSplineSet
EndChar

StartChar: threequarters
Encoding: 190 190 126
Width: 810
GlyphClass: 2
Flags: W
LayerCount: 2
Fore
SplineSet
691 24 m 1,0,-1
 609 21 l 1,1,2
 607 22 607 22 607 30 c 128,-1,3
 607 38 607 38 610 44 c 1,4,5
 660 44 660 44 660 77 c 2,6,-1
 659 146 l 1,7,-1
 478 146 l 1,8,9
 475 149 475 149 475 164 c 128,-1,10
 475 179 475 179 478 182 c 2,11,-1
 675 477 l 2,12,13
 676 480 676 480 685.5 480 c 128,-1,14
 695 480 695 480 698 477 c 1,15,-1
 708 182 l 1,16,-1
 772 182 l 1,17,18
 775 172 775 172 775 161.5 c 128,-1,19
 775 151 775 151 770 146 c 1,20,-1
 710 146 l 1,21,-1
 712 77 l 2,22,23
 713 44 713 44 761 44 c 1,24,25
 765 40 765 40 765 31 c 128,-1,26
 765 22 765 22 763 21 c 1,27,-1
 691 24 l 1,0,-1
531 182 m 2,28,-1
 655 182 l 2,29,30
 659 182 659 182 659 187 c 2,31,-1
 664 405 l 2,32,33
 664 407 664 407 662.5 407 c 128,-1,34
 661 407 661 407 660 405 c 2,35,-1
 530 185 l 2,36,37
 528 182 528 182 531 182 c 2,28,-1
700 752 m 1,38,39
 626 649 626 649 448 376 c 128,-1,40
 270 103 270 103 209 -1 c 1,41,42
 158 2 158 2 148 33 c 1,43,44
 222 138 222 138 402 413 c 128,-1,45
 582 688 582 688 643 791 c 1,46,47
 659 791 659 791 678 779.5 c 128,-1,48
 697 768 697 768 700 752 c 1,38,39
106 571 m 2,49,50
 103 571 103 571 98.5 580 c 128,-1,51
 94 589 94 589 94 593 c 128,-1,52
 94 597 94 597 95 597 c 0,53,54
 212 631 212 631 212 706 c 0,55,56
 212 738 212 738 194.5 758 c 128,-1,57
 177 778 177 778 150.5 778 c 128,-1,58
 124 778 124 778 107 768.5 c 128,-1,59
 90 759 90 759 90 750 c 128,-1,60
 90 741 90 741 97.5 732.5 c 128,-1,61
 105 724 105 724 105 711 c 0,62,63
 105 689 105 689 73.5 689 c 128,-1,64
 42 689 42 689 42 724 c 128,-1,65
 42 759 42 759 78 785.5 c 128,-1,66
 114 812 114 812 158.5 812 c 128,-1,67
 203 812 203 812 234.5 782.5 c 128,-1,68
 266 753 266 753 266 710 c 0,69,70
 266 634 266 634 178 603 c 1,71,72
 226 598 226 598 259 564 c 128,-1,73
 292 530 292 530 292 477.5 c 128,-1,74
 292 425 292 425 248 384 c 128,-1,75
 204 343 204 343 146 343 c 0,76,77
 105 343 105 343 72.5 363.5 c 128,-1,78
 40 384 40 384 40 419 c 128,-1,79
 40 454 40 454 71.5 454 c 128,-1,80
 103 454 103 454 103 432 c 0,81,82
 103 422 103 422 95.5 413 c 128,-1,83
 88 404 88 404 88 400 c 0,84,85
 88 390 88 390 106.5 382.5 c 128,-1,86
 125 375 125 375 143 375 c 0,87,88
 185 375 185 375 211 403.5 c 128,-1,89
 237 432 237 432 237 478 c 128,-1,90
 237 524 237 524 214 554 c 128,-1,91
 191 584 191 584 161.5 584 c 128,-1,92
 132 584 132 584 107 571 c 1,93,-1
 106 571 l 2,49,50
EndSplineSet
EndChar

StartChar: questiondown
Encoding: 191 191 127
Width: 427
GlyphClass: 2
Flags: W
LayerCount: 2
Fore
SplineSet
194 645.5 m 128,-1,1
 210 660 210 660 235.5 660 c 128,-1,2
 261 660 261 660 276 644 c 128,-1,3
 291 628 291 628 291 603.5 c 128,-1,4
 291 579 291 579 276 562.5 c 128,-1,5
 261 546 261 546 237 546 c 128,-1,6
 213 546 213 546 195.5 563 c 128,-1,7
 178 580 178 580 178 605.5 c 128,-1,0
 178 631 178 631 194 645.5 c 128,-1,1
275.5 411 m 128,-1,9
 279 381 279 381 279 354 c 128,-1,10
 279 327 279 327 275.5 312.5 c 128,-1,11
 272 298 272 298 259 281 c 128,-1,12
 246 264 246 264 240 257 c 128,-1,13
 234 250 234 250 210.5 228.5 c 128,-1,14
 187 207 187 207 181 201 c 0,15,16
 120 142 120 142 120 62 c 0,17,18
 120 8 120 8 153 -25.5 c 128,-1,19
 186 -59 186 -59 228 -59 c 0,20,21
 319 -59 319 -59 319 -21 c 0,22,23
 319 -15 319 -15 307.5 -1 c 128,-1,24
 296 13 296 13 296 29 c 0,25,26
 296 63 296 63 343 63 c 0,27,28
 366 63 366 63 380 50.5 c 128,-1,29
 394 38 394 38 394 17 c 0,30,31
 394 -40 394 -40 340.5 -75 c 128,-1,32
 287 -110 287 -110 214 -110 c 128,-1,33
 141 -110 141 -110 88.5 -58.5 c 128,-1,34
 36 -7 36 -7 36 80 c 0,35,36
 36 152 36 152 107 219 c 0,37,38
 122 234 122 234 151 257.5 c 128,-1,39
 180 281 180 281 188 291 c 0,40,41
 214 323 214 323 217 386 c 2,42,-1
 222 466 l 1,43,44
 243 471 243 471 253.5 471 c 128,-1,45
 264 471 264 471 265 469 c 128,-1,46
 266 467 266 467 269 454 c 128,-1,8
 272 441 272 441 275.5 411 c 128,-1,9
EndSplineSet
EndChar

StartChar: Agrave
Encoding: 192 192 128
Width: 671
GlyphClass: 2
Flags: W
LayerCount: 2
Fore
SplineSet
188 875 m 0,0,1
 187 878 187 878 187 887 c 128,-1,2
 187 896 187 896 197 924 c 128,-1,3
 207 952 207 952 229 956 c 1,4,5
 279 890 279 890 392 825 c 1,6,7
 393 809 393 809 388 798 c 128,-1,8
 383 787 383 787 378 785 c 1,9,10
 371 785 371 785 281 824.5 c 128,-1,11
 191 864 191 864 188 875 c 0,0,1
114 7 m 1,12,-1
 -3 0 l 1,13,14
 -5 1 -5 1 -5 16 c 128,-1,15
 -5 31 -5 31 2 38 c 1,16,17
 39 38 39 38 54 61 c 1,18,19
 66 77 66 77 85 125 c 2,20,-1
 312 703 l 1,21,22
 322 715 322 715 340 715 c 0,23,24
 343 715 343 715 351 713 c 1,25,-1
 587 125 l 2,26,27
 605 79 605 79 627.5 58.5 c 128,-1,28
 650 38 650 38 693 38 c 1,29,30
 700 29 700 29 700 15.5 c 128,-1,31
 700 2 700 2 698 0 c 1,32,-1
 561 7 l 1,33,-1
 415 0 l 1,34,35
 413 1 413 1 413 16 c 128,-1,36
 413 31 413 31 420 38 c 1,37,38
 496 38 496 38 496 85 c 0,39,40
 496 98 496 98 487 125 c 2,41,-1
 448 230 l 1,42,-1
 195 230 l 1,43,-1
 156 125 l 2,44,45
 145 97 145 97 145 80 c 0,46,47
 145 38 145 38 231 38 c 1,48,49
 238 29 238 29 238 15.5 c 128,-1,50
 238 2 238 2 236 0 c 1,51,-1
 114 7 l 1,12,-1
324 597 m 1,52,-1
 216 286 l 1,53,-1
 427 286 l 1,54,-1
 324 597 l 1,52,-1
EndSplineSet
EndChar

StartChar: Aacute
Encoding: 193 193 129
Width: 671
GlyphClass: 2
Flags: W
LayerCount: 2
Fore
SplineSet
263 820 m 2,0,-1
 263 825 l 1,1,2
 376 890 376 890 426 956 c 1,3,4
 448 952 448 952 458 924 c 128,-1,5
 468 896 468 896 468 887 c 128,-1,6
 468 878 468 878 467 875 c 0,7,8
 464 864 464 864 374 824.5 c 128,-1,9
 284 785 284 785 277 785 c 1,10,11
 263 791 263 791 263 820 c 2,0,-1
114 7 m 1,12,-1
 -3 0 l 1,13,14
 -5 1 -5 1 -5 16 c 128,-1,15
 -5 31 -5 31 2 38 c 1,16,17
 39 38 39 38 54 61 c 1,18,19
 66 77 66 77 85 125 c 2,20,-1
 312 703 l 1,21,22
 322 715 322 715 340 715 c 0,23,24
 343 715 343 715 351 713 c 1,25,-1
 587 125 l 2,26,27
 605 79 605 79 627.5 58.5 c 128,-1,28
 650 38 650 38 693 38 c 1,29,30
 700 29 700 29 700 15.5 c 128,-1,31
 700 2 700 2 698 0 c 1,32,-1
 561 7 l 1,33,-1
 415 0 l 1,34,35
 413 1 413 1 413 16 c 128,-1,36
 413 31 413 31 420 38 c 1,37,38
 496 38 496 38 496 85 c 0,39,40
 496 98 496 98 487 125 c 2,41,-1
 448 230 l 1,42,-1
 195 230 l 1,43,-1
 156 125 l 2,44,45
 145 97 145 97 145 80 c 0,46,47
 145 38 145 38 231 38 c 1,48,49
 238 29 238 29 238 15.5 c 128,-1,50
 238 2 238 2 236 0 c 1,51,-1
 114 7 l 1,12,-1
324 597 m 1,52,-1
 216 286 l 1,53,-1
 427 286 l 1,54,-1
 324 597 l 1,52,-1
EndSplineSet
EndChar

StartChar: Atilde
Encoding: 195 195 131
Width: 671
GlyphClass: 2
Flags: W
LayerCount: 2
Fore
SplineSet
114 7 m 1,0,-1
 -3 0 l 1,1,2
 -5 1 -5 1 -5 16 c 128,-1,3
 -5 31 -5 31 2 38 c 1,4,5
 39 38 39 38 54 61 c 1,6,7
 66 77 66 77 85 125 c 2,8,-1
 312 703 l 1,9,10
 322 715 322 715 340 715 c 0,11,12
 343 715 343 715 351 713 c 1,13,-1
 587 125 l 2,14,15
 605 79 605 79 627.5 58.5 c 128,-1,16
 650 38 650 38 693 38 c 1,17,18
 700 29 700 29 700 15.5 c 128,-1,19
 700 2 700 2 698 0 c 1,20,-1
 561 7 l 1,21,-1
 415 0 l 1,22,23
 413 1 413 1 413 16 c 128,-1,24
 413 31 413 31 420 38 c 1,25,26
 496 38 496 38 496 85 c 0,27,28
 496 98 496 98 487 125 c 2,29,-1
 448 230 l 1,30,-1
 195 230 l 1,31,-1
 156 125 l 2,32,33
 145 97 145 97 145 80 c 0,34,35
 145 38 145 38 231 38 c 1,36,37
 238 29 238 29 238 15.5 c 128,-1,38
 238 2 238 2 236 0 c 1,39,-1
 114 7 l 1,0,-1
324 597 m 1,40,-1
 216 286 l 1,41,-1
 427 286 l 1,42,-1
 324 597 l 1,40,-1
449 819 m 128,-1,44
 417 801 417 801 389 801 c 128,-1,45
 361 801 361 801 318.5 823 c 128,-1,46
 276 845 276 845 259 845 c 0,47,48
 228 845 228 845 192 809 c 1,49,50
 177 812 177 812 177 842 c 1,51,-1
 178 848 l 1,52,53
 193 865 193 865 226.5 883 c 128,-1,54
 260 901 260 901 289 901 c 128,-1,55
 318 901 318 901 358 879.5 c 128,-1,56
 398 858 398 858 416 858 c 0,57,58
 447 858 447 858 483 894 c 1,59,60
 498 891 498 891 498 862 c 1,61,-1
 497 855 l 1,62,43
 481 837 481 837 449 819 c 128,-1,44
EndSplineSet
EndChar

StartChar: AE
Encoding: 198 198 134
Width: 932
GlyphClass: 2
Flags: W
LayerCount: 2
Fore
SplineSet
444 630 m 1,0,-1
 251 286 l 1,1,-1
 438 286 l 1,2,-1
 444 630 l 1,0,-1
89 7 m 1,3,-1
 -8 0 l 1,4,5
 -11 3 -11 3 -11 20.5 c 128,-1,6
 -11 38 -11 38 -3 38 c 0,7,8
 40 38 40 38 59.5 57.5 c 128,-1,9
 79 77 79 77 102 118 c 0,10,11
 115 140 115 140 403 658 c 1,12,13
 379 665 379 665 337 665 c 1,14,15
 330 670 330 670 330 685.5 c 128,-1,16
 330 701 330 701 332 703 c 1,17,18
 424 700 424 700 559 700 c 128,-1,19
 694 700 694 700 834 713 c 1,20,-1
 848 537 l 1,21,22
 844 533 844 533 828 533 c 128,-1,23
 812 533 812 533 809 537 c 1,24,25
 800 600 800 600 776 621.5 c 128,-1,26
 752 643 752 643 699 643 c 2,27,-1
 511 643 l 1,28,-1
 519 383 l 1,29,-1
 626 383 l 2,30,31
 661 383 661 383 677 407 c 128,-1,32
 693 431 693 431 701 483 c 1,33,34
 705 487 705 487 719 487 c 128,-1,35
 733 487 733 487 739 483 c 1,36,37
 731 419 731 419 731 356.5 c 128,-1,38
 731 294 731 294 739 230 c 1,39,40
 735 226 735 226 719.5 226 c 128,-1,41
 704 226 704 226 701 230 c 1,42,43
 693 280 693 280 677 303 c 128,-1,44
 661 326 661 326 626 326 c 2,45,-1
 520 326 l 1,46,-1
 526 131 l 2,47,48
 528 89 528 89 541.5 72.5 c 128,-1,49
 555 56 555 56 592 56 c 2,50,-1
 727 56 l 2,51,52
 773 56 773 56 804.5 87.5 c 128,-1,53
 836 119 836 119 866 186 c 1,54,55
 868 188 868 188 881.5 188 c 128,-1,56
 895 188 895 188 904 179 c 1,57,-1
 852 -10 l 1,58,59
 725 3 725 3 586.5 3 c 128,-1,60
 448 3 448 3 365 0 c 1,61,62
 362 3 362 3 362 17.5 c 128,-1,63
 362 32 362 32 368 38 c 1,64,65
 434 38 434 38 435 90 c 2,66,-1
 437 230 l 1,67,-1
 229 230 l 1,68,69
 201 174 201 174 194.5 162 c 128,-1,70
 188 150 188 150 181 135.5 c 128,-1,71
 174 121 174 121 169.5 112.5 c 128,-1,72
 165 104 165 104 160.5 94 c 128,-1,73
 156 84 156 84 153.5 78.5 c 128,-1,74
 151 73 151 73 149 67 c 0,75,76
 145 55 145 55 145 51 c 0,77,78
 145 38 145 38 182 38 c 2,79,-1
 206 38 l 1,80,81
 213 29 213 29 213 15.5 c 128,-1,82
 213 2 213 2 211 0 c 1,83,-1
 89 7 l 1,3,-1
EndSplineSet
EndChar

StartChar: Ccedilla
Encoding: 199 199 135
Width: 613
GlyphClass: 2
Flags: W
LayerCount: 2
Fore
SplineSet
318 -10 m 0,0,1
 195 -10 195 -10 124 95 c 128,-1,2
 53 200 53 200 53 354 c 128,-1,3
 53 508 53 508 132 610.5 c 128,-1,4
 211 713 211 713 347 713 c 0,5,6
 428 713 428 713 489 680 c 0,7,8
 493 678 493 678 497 678 c 128,-1,9
 501 678 501 678 502 689 c 2,10,-1
 504 713 l 1,11,12
 508 717 508 717 522 717 c 128,-1,13
 536 717 536 717 542 713 c 1,14,-1
 556 504 l 1,15,16
 552 500 552 500 536.5 500 c 128,-1,17
 521 500 521 500 518 504 c 1,18,19
 509 573 509 573 458 613.5 c 128,-1,20
 407 654 407 654 340 654 c 0,21,22
 239 654 239 654 190.5 581 c 128,-1,23
 142 508 142 508 142 385 c 0,24,25
 142 204 142 204 234 110 c 0,26,27
 283 59 283 59 341.5 59 c 128,-1,28
 400 59 400 59 462 81 c 128,-1,29
 524 103 524 103 561 134 c 1,30,31
 565 130 565 130 571.5 117.5 c 128,-1,32
 578 105 578 105 578 101 c 128,-1,33
 578 97 578 97 575 94 c 0,34,35
 471 -10 471 -10 318 -10 c 0,0,1
359.5 -187 m 128,-1,37
 373 -168 373 -168 373 -152.5 c 128,-1,38
 373 -137 373 -137 371.5 -130.5 c 128,-1,39
 370 -124 370 -124 368.5 -119 c 128,-1,40
 367 -114 367 -114 362 -108 c 0,41,42
 352 -96 352 -96 344 -89.5 c 128,-1,43
 336 -83 336 -83 333 -80.5 c 128,-1,44
 330 -78 330 -78 319.5 -70.5 c 128,-1,45
 309 -63 309 -63 304.5 -60 c 128,-1,46
 300 -57 300 -57 300 -51 c 128,-1,47
 300 -45 300 -45 305 -35 c 2,48,-1
 336 29 l 1,49,-1
 371 29 l 1,50,51
 339 -35 339 -35 339 -38.5 c 128,-1,52
 339 -42 339 -42 344 -46 c 0,53,54
 419 -96 419 -96 419 -149 c 0,55,56
 419 -185 419 -185 393 -210 c 128,-1,57
 367 -235 367 -235 333 -235 c 128,-1,58
 299 -235 299 -235 274.5 -218.5 c 128,-1,59
 250 -202 250 -202 250 -171 c 0,60,61
 250 -159 250 -159 256.5 -151.5 c 128,-1,62
 263 -144 263 -144 274 -144 c 0,63,64
 301 -144 301 -144 301 -165 c 0,65,66
 301 -173 301 -173 295.5 -180 c 128,-1,67
 290 -187 290 -187 290 -188 c 0,68,69
 290 -196 290 -196 300.5 -201 c 128,-1,70
 311 -206 311 -206 328.5 -206 c 128,-1,36
 346 -206 346 -206 359.5 -187 c 128,-1,37
EndSplineSet
EndChar

StartChar: Egrave
Encoding: 200 200 136
Width: 611
GlyphClass: 2
Flags: W
LayerCount: 2
Fore
SplineSet
148 875 m 0,0,1
 147 878 147 878 147 887 c 128,-1,2
 147 896 147 896 157 924 c 128,-1,3
 167 952 167 952 189 956 c 1,4,5
 239 890 239 890 352 825 c 1,6,7
 353 809 353 809 348 798 c 128,-1,8
 343 787 343 787 338 785 c 1,9,10
 331 785 331 785 241 824.5 c 128,-1,11
 151 864 151 864 148 875 c 0,0,1
309 383 m 2,12,13
 352 383 352 383 364 422 c 0,14,15
 368 437 368 437 374 473 c 1,16,17
 378 477 378 477 392 477 c 128,-1,18
 406 477 406 477 412 473 c 1,19,20
 404 412 404 412 404 356.5 c 128,-1,21
 404 301 404 301 412 240 c 1,22,23
 408 236 408 236 392.5 236 c 128,-1,24
 377 236 377 236 374 240 c 1,25,26
 368 274 368 274 363.5 288.5 c 128,-1,27
 359 303 359 303 346 314.5 c 128,-1,28
 333 326 333 326 309 326 c 2,29,-1
 198 326 l 1,30,-1
 204 131 l 2,31,32
 206 89 206 89 219.5 72.5 c 128,-1,33
 233 56 233 56 270 56 c 2,34,-1
 405 56 l 2,35,36
 451 56 451 56 482.5 87.5 c 128,-1,37
 514 119 514 119 544 186 c 1,38,39
 546 188 546 188 559.5 188 c 128,-1,40
 573 188 573 188 582 179 c 1,41,-1
 530 -10 l 1,42,43
 403 3 403 3 264.5 3 c 128,-1,44
 126 3 126 3 43 0 c 1,45,46
 40 3 40 3 40 17.5 c 128,-1,47
 40 32 40 32 46 38 c 1,48,49
 82 38 82 38 97 50.5 c 128,-1,50
 112 63 112 63 113 90 c 2,51,-1
 122 613 l 2,52,53
 122 640 122 640 106.5 652.5 c 128,-1,54
 91 665 91 665 55 665 c 1,55,56
 48 670 48 670 48 685.5 c 128,-1,57
 48 701 48 701 50 703 c 1,58,59
 134 700 134 700 258 700 c 128,-1,60
 382 700 382 700 512 713 c 1,61,-1
 526 537 l 1,62,63
 522 533 522 533 506 533 c 128,-1,64
 490 533 490 533 487 537 c 1,65,66
 478 600 478 600 454 621.5 c 128,-1,67
 430 643 430 643 377 643 c 2,68,-1
 189 643 l 1,69,-1
 197 383 l 1,70,-1
 309 383 l 2,12,13
EndSplineSet
EndChar

StartChar: Eacute
Encoding: 201 201 137
Width: 611
GlyphClass: 2
Flags: W
LayerCount: 2
Fore
SplineSet
224 820 m 2,0,-1
 224 825 l 1,1,2
 337 890 337 890 387 956 c 1,3,4
 409 952 409 952 419 924 c 128,-1,5
 429 896 429 896 429 887 c 128,-1,6
 429 878 429 878 428 875 c 0,7,8
 425 864 425 864 335 824.5 c 128,-1,9
 245 785 245 785 238 785 c 1,10,11
 224 791 224 791 224 820 c 2,0,-1
309 383 m 2,12,13
 352 383 352 383 364 422 c 0,14,15
 368 437 368 437 374 473 c 1,16,17
 378 477 378 477 392 477 c 128,-1,18
 406 477 406 477 412 473 c 1,19,20
 404 412 404 412 404 356.5 c 128,-1,21
 404 301 404 301 412 240 c 1,22,23
 408 236 408 236 392.5 236 c 128,-1,24
 377 236 377 236 374 240 c 1,25,26
 368 274 368 274 363.5 288.5 c 128,-1,27
 359 303 359 303 346 314.5 c 128,-1,28
 333 326 333 326 309 326 c 2,29,-1
 198 326 l 1,30,-1
 204 131 l 2,31,32
 206 89 206 89 219.5 72.5 c 128,-1,33
 233 56 233 56 270 56 c 2,34,-1
 405 56 l 2,35,36
 451 56 451 56 482.5 87.5 c 128,-1,37
 514 119 514 119 544 186 c 1,38,39
 546 188 546 188 559.5 188 c 128,-1,40
 573 188 573 188 582 179 c 1,41,-1
 530 -10 l 1,42,43
 403 3 403 3 264.5 3 c 128,-1,44
 126 3 126 3 43 0 c 1,45,46
 40 3 40 3 40 17.5 c 128,-1,47
 40 32 40 32 46 38 c 1,48,49
 82 38 82 38 97 50.5 c 128,-1,50
 112 63 112 63 113 90 c 2,51,-1
 122 613 l 2,52,53
 122 640 122 640 106.5 652.5 c 128,-1,54
 91 665 91 665 55 665 c 1,55,56
 48 670 48 670 48 685.5 c 128,-1,57
 48 701 48 701 50 703 c 1,58,59
 134 700 134 700 258 700 c 128,-1,60
 382 700 382 700 512 713 c 1,61,-1
 526 537 l 1,62,63
 522 533 522 533 506 533 c 128,-1,64
 490 533 490 533 487 537 c 1,65,66
 478 600 478 600 454 621.5 c 128,-1,67
 430 643 430 643 377 643 c 2,68,-1
 189 643 l 1,69,-1
 197 383 l 1,70,-1
 309 383 l 2,12,13
EndSplineSet
EndChar

StartChar: Edieresis
Encoding: 203 203 139
Width: 611
GlyphClass: 2
Flags: W
LayerCount: 2
Fore
SplineSet
309 383 m 2,0,1
 352 383 352 383 364 422 c 0,2,3
 368 437 368 437 374 473 c 1,4,5
 378 477 378 477 392 477 c 128,-1,6
 406 477 406 477 412 473 c 1,7,8
 404 412 404 412 404 356.5 c 128,-1,9
 404 301 404 301 412 240 c 1,10,11
 408 236 408 236 392.5 236 c 128,-1,12
 377 236 377 236 374 240 c 1,13,14
 368 274 368 274 363.5 288.5 c 128,-1,15
 359 303 359 303 346 314.5 c 128,-1,16
 333 326 333 326 309 326 c 2,17,-1
 198 326 l 1,18,-1
 204 131 l 2,19,20
 206 89 206 89 219.5 72.5 c 128,-1,21
 233 56 233 56 270 56 c 2,22,-1
 405 56 l 2,23,24
 451 56 451 56 482.5 87.5 c 128,-1,25
 514 119 514 119 544 186 c 1,26,27
 546 188 546 188 559.5 188 c 128,-1,28
 573 188 573 188 582 179 c 1,29,-1
 530 -10 l 1,30,31
 403 3 403 3 264.5 3 c 128,-1,32
 126 3 126 3 43 0 c 1,33,34
 40 3 40 3 40 17.5 c 128,-1,35
 40 32 40 32 46 38 c 1,36,37
 82 38 82 38 97 50.5 c 128,-1,38
 112 63 112 63 113 90 c 2,39,-1
 122 613 l 2,40,41
 122 640 122 640 106.5 652.5 c 128,-1,42
 91 665 91 665 55 665 c 1,43,44
 48 670 48 670 48 685.5 c 128,-1,45
 48 701 48 701 50 703 c 1,46,47
 134 700 134 700 258 700 c 128,-1,48
 382 700 382 700 512 713 c 1,49,-1
 526 537 l 1,50,51
 522 533 522 533 506 533 c 128,-1,52
 490 533 490 533 487 537 c 1,53,54
 478 600 478 600 454 621.5 c 128,-1,55
 430 643 430 643 377 643 c 2,56,-1
 189 643 l 1,57,-1
 197 383 l 1,58,-1
 309 383 l 2,0,1
155 856 m 128,-1,60
 155 879 155 879 168 894.5 c 128,-1,61
 181 910 181 910 203 910 c 128,-1,62
 225 910 225 910 241.5 894.5 c 128,-1,63
 258 879 258 879 258 858 c 0,64,65
 258 807 258 807 206 805 c 0,66,67
 183 805 183 805 169 819 c 128,-1,59
 155 833 155 833 155 856 c 128,-1,60
334 856 m 128,-1,69
 334 879 334 879 347 894.5 c 128,-1,70
 360 910 360 910 382 910 c 128,-1,71
 404 910 404 910 420.5 894.5 c 128,-1,72
 437 879 437 879 437 858 c 0,73,74
 437 807 437 807 385 805 c 0,75,76
 362 805 362 805 348 819 c 128,-1,68
 334 833 334 833 334 856 c 128,-1,69
EndSplineSet
EndChar

StartChar: Igrave
Encoding: 204 204 140
Width: 316
GlyphClass: 2
Flags: W
LayerCount: 2
Fore
SplineSet
-10 875 m 0,0,1
 -11 878 -11 878 -11 887 c 128,-1,2
 -11 896 -11 896 -1 924 c 128,-1,3
 9 952 9 952 31 956 c 1,4,5
 81 890 81 890 194 825 c 1,6,7
 195 809 195 809 190 798 c 128,-1,8
 185 787 185 787 180 785 c 1,9,10
 173 785 173 785 83 824.5 c 128,-1,11
 -7 864 -7 864 -10 875 c 0,0,1
161 697 m 1,12,-1
 258 703 l 1,13,14
 260 701 260 701 260 685.5 c 128,-1,15
 260 670 260 670 255 665 c 1,16,17
 219 665 219 665 205 652.5 c 128,-1,18
 191 640 191 640 191 613 c 2,19,-1
 206 90 l 2,20,21
 207 63 207 63 221.5 50.5 c 128,-1,22
 236 38 236 38 272 38 c 1,23,24
 277 33 277 33 277 17.5 c 128,-1,25
 277 2 277 2 275 0 c 1,26,-1
 164 6 l 1,27,-1
 45 0 l 1,28,29
 42 3 42 3 42 17.5 c 128,-1,30
 42 32 42 32 48 38 c 1,31,32
 84 38 84 38 99.5 50.5 c 128,-1,33
 115 63 115 63 115 90 c 2,34,-1
 119 613 l 2,35,36
 119 640 119 640 104.5 652.5 c 128,-1,37
 90 665 90 665 54 665 c 1,38,39
 48 670 48 670 48 685.5 c 128,-1,40
 48 701 48 701 50 703 c 1,41,42
 50 703 50 703 161 697 c 1,12,-1
EndSplineSet
EndChar

StartChar: Iacute
Encoding: 205 205 141
Width: 316
GlyphClass: 2
Flags: W
LayerCount: 2
Fore
SplineSet
96 820 m 2,0,-1
 96 825 l 1,1,2
 209 890 209 890 259 956 c 1,3,4
 281 952 281 952 291 924 c 128,-1,5
 301 896 301 896 301 887 c 128,-1,6
 301 878 301 878 300 875 c 0,7,8
 297 864 297 864 207 824.5 c 128,-1,9
 117 785 117 785 110 785 c 1,10,11
 96 791 96 791 96 820 c 2,0,-1
161 697 m 1,12,-1
 258 703 l 1,13,14
 260 701 260 701 260 685.5 c 128,-1,15
 260 670 260 670 255 665 c 1,16,17
 219 665 219 665 205 652.5 c 128,-1,18
 191 640 191 640 191 613 c 2,19,-1
 206 90 l 2,20,21
 207 63 207 63 221.5 50.5 c 128,-1,22
 236 38 236 38 272 38 c 1,23,24
 277 33 277 33 277 17.5 c 128,-1,25
 277 2 277 2 275 0 c 1,26,-1
 164 6 l 1,27,-1
 45 0 l 1,28,29
 42 3 42 3 42 17.5 c 128,-1,30
 42 32 42 32 48 38 c 1,31,32
 84 38 84 38 99.5 50.5 c 128,-1,33
 115 63 115 63 115 90 c 2,34,-1
 119 613 l 2,35,36
 119 640 119 640 104.5 652.5 c 128,-1,37
 90 665 90 665 54 665 c 1,38,39
 48 670 48 670 48 685.5 c 128,-1,40
 48 701 48 701 50 703 c 1,41,-1
 161 697 l 1,12,-1
EndSplineSet
EndChar

StartChar: Icircumflex
Encoding: 206 206 142
Width: 316
GlyphClass: 2
Flags: W
LayerCount: 2
Fore
SplineSet
161 697 m 1,0,-1
 258 703 l 1,1,2
 260 701 260 701 260 685.5 c 128,-1,3
 260 670 260 670 255 665 c 1,4,5
 219 665 219 665 205 652.5 c 128,-1,6
 191 640 191 640 191 613 c 2,7,-1
 206 90 l 2,8,9
 207 63 207 63 221.5 50.5 c 128,-1,10
 236 38 236 38 272 38 c 1,11,12
 277 33 277 33 277 17.5 c 128,-1,13
 277 2 277 2 275 0 c 1,14,-1
 164 6 l 1,15,-1
 45 0 l 1,16,17
 42 3 42 3 42 17.5 c 128,-1,18
 42 32 42 32 48 38 c 1,19,20
 84 38 84 38 99.5 50.5 c 128,-1,21
 115 63 115 63 115 90 c 2,22,-1
 119 613 l 2,23,24
 119 640 119 640 104.5 652.5 c 128,-1,25
 90 665 90 665 54 665 c 1,26,27
 48 670 48 670 48 685.5 c 128,-1,28
 48 701 48 701 50 703 c 1,29,30
 50 703 50 703 161 697 c 1,0,-1
138 980 m 1,31,32
 142 984 142 984 155 984 c 128,-1,33
 168 984 168 984 174 980 c 1,34,35
 196 938 196 938 235 898 c 0,36,37
 248 884 248 884 276 857 c 0,38,39
 313 821 313 821 313 817 c 128,-1,40
 313 813 313 813 309 806 c 128,-1,41
 305 799 305 799 302 795 c 0,42,43
 294 786 294 786 291.5 786 c 128,-1,44
 289 786 289 786 266 802 c 0,45,46
 203 849 203 849 156 892 c 1,47,48
 118 855 118 855 70.5 820.5 c 128,-1,49
 23 786 23 786 21.5 786 c 128,-1,50
 20 786 20 786 17 788 c 0,51,52
 10 794 10 794 4.5 803.5 c 128,-1,53
 -1 813 -1 813 -1 817 c 128,-1,54
 -1 821 -1 821 0 822 c 0,55,56
 101 908 101 908 138 980 c 1,31,32
EndSplineSet
EndChar

StartChar: Idieresis
Encoding: 207 207 143
Width: 316
GlyphClass: 2
Flags: W
LayerCount: 2
Fore
SplineSet
161 697 m 1,0,-1
 258 703 l 1,1,2
 260 701 260 701 260 685.5 c 128,-1,3
 260 670 260 670 255 665 c 1,4,5
 219 665 219 665 205 652.5 c 128,-1,6
 191 640 191 640 191 613 c 2,7,-1
 206 90 l 2,8,9
 207 63 207 63 221.5 50.5 c 128,-1,10
 236 38 236 38 272 38 c 1,11,12
 277 33 277 33 277 17.5 c 128,-1,13
 277 2 277 2 275 0 c 1,14,-1
 164 6 l 1,15,-1
 45 0 l 1,16,17
 42 3 42 3 42 17.5 c 128,-1,18
 42 32 42 32 48 38 c 1,19,20
 84 38 84 38 99.5 50.5 c 128,-1,21
 115 63 115 63 115 90 c 2,22,-1
 119 613 l 2,23,24
 119 640 119 640 104.5 652.5 c 128,-1,25
 90 665 90 665 54 665 c 1,26,27
 48 670 48 670 48 685.5 c 128,-1,28
 48 701 48 701 50 703 c 1,29,30
 50 703 50 703 161 697 c 1,0,-1
10 856 m 128,-1,32
 10 879 10 879 23 894.5 c 128,-1,33
 36 910 36 910 58 910 c 128,-1,34
 80 910 80 910 96.5 894.5 c 128,-1,35
 113 879 113 879 113 858 c 0,36,37
 113 807 113 807 61 805 c 0,38,39
 38 805 38 805 24 819 c 128,-1,31
 10 833 10 833 10 856 c 128,-1,32
189 856 m 128,-1,41
 189 879 189 879 202 894.5 c 128,-1,42
 215 910 215 910 237 910 c 128,-1,43
 259 910 259 910 275.5 894.5 c 128,-1,44
 292 879 292 879 292 858 c 0,45,46
 292 807 292 807 240 805 c 0,47,48
 217 805 217 805 203 819 c 128,-1,40
 189 833 189 833 189 856 c 128,-1,41
EndSplineSet
EndChar

StartChar: Eth
Encoding: 208 208 144
Width: 668
GlyphClass: 2
Flags: W
LayerCount: 2
Fore
SplineSet
174 697 m 1,0,-1
 295 703 l 1,1,2
 447 703 447 703 531.5 607 c 128,-1,3
 616 511 616 511 616 355 c 128,-1,4
 616 199 616 199 529 99.5 c 128,-1,5
 442 0 442 0 295 0 c 1,6,-1
 174 6 l 1,7,-1
 54 0 l 1,8,9
 51 3 51 3 51 17.5 c 128,-1,10
 51 32 51 32 57 38 c 1,11,12
 124 38 124 38 124 90 c 2,13,-1
 126 335 l 1,14,15
 30 333 30 333 23 333 c 1,16,17
 14 355 14 355 14 372 c 128,-1,18
 14 389 14 389 20 396 c 1,19,20
 34 394 34 394 127 394 c 1,21,-1
 129 614 l 2,22,23
 129 641 129 641 114 653 c 128,-1,24
 99 665 99 665 62 665 c 1,25,26
 56 670 56 670 56 685.5 c 128,-1,27
 56 701 56 701 58 703 c 1,28,-1
 174 697 l 1,0,-1
298 56 m 0,29,30
 398 56 398 56 463 137 c 128,-1,31
 528 218 528 218 528 324 c 0,32,33
 528 471 528 471 460 561.5 c 128,-1,34
 392 652 392 652 258 652 c 0,35,36
 227 652 227 652 191 646 c 1,37,-1
 202 394 l 1,38,39
 347 394 347 394 367 396 c 1,40,41
 372 378 372 378 372 359.5 c 128,-1,42
 372 341 372 341 364 333 c 1,43,44
 324 335 324 335 205 335 c 1,45,-1
 214 131 l 2,46,47
 215 89 215 89 234.5 72.5 c 128,-1,48
 254 56 254 56 298 56 c 0,29,30
EndSplineSet
EndChar

StartChar: Ograve
Encoding: 210 210 146
Width: 703
GlyphClass: 2
Flags: W
LayerCount: 2
Fore
SplineSet
192 875 m 0,0,1
 191 878 191 878 191 887 c 128,-1,2
 191 896 191 896 201 924 c 128,-1,3
 211 952 211 952 233 956 c 1,4,5
 283 890 283 890 396 825 c 1,6,7
 397 809 397 809 392 798 c 128,-1,8
 387 787 387 787 382 785 c 1,9,10
 375 785 375 785 285 824.5 c 128,-1,11
 195 864 195 864 192 875 c 0,0,1
53 352 m 0,12,13
 53 568 53 568 182 663 c 0,14,15
 249 713 249 713 344 713 c 0,16,17
 490 713 490 713 570.5 610.5 c 128,-1,18
 651 508 651 508 651 352.5 c 128,-1,19
 651 197 651 197 570.5 93.5 c 128,-1,20
 490 -10 490 -10 346.5 -10 c 128,-1,21
 203 -10 203 -10 128 93 c 128,-1,22
 53 196 53 196 53 352 c 0,12,13
361 49 m 0,23,24
 564 49 564 49 564 321 c 0,25,26
 564 458 564 458 517 550 c 0,27,28
 492 599 492 599 446.5 626.5 c 128,-1,29
 401 654 401 654 338 654 c 0,30,31
 234 654 234 654 187 580 c 128,-1,32
 140 506 140 506 140 388 c 0,33,34
 140 215 140 215 212 120 c 0,35,36
 236 88 236 88 274.5 68.5 c 128,-1,37
 313 49 313 49 361 49 c 0,23,24
EndSplineSet
EndChar

StartChar: Oacute
Encoding: 211 211 147
Width: 703
GlyphClass: 2
Flags: W
LayerCount: 2
Fore
SplineSet
301 820 m 2,0,-1
 301 825 l 1,1,2
 414 890 414 890 464 956 c 1,3,4
 486 952 486 952 496 924 c 128,-1,5
 506 896 506 896 506 887 c 128,-1,6
 506 878 506 878 505 875 c 0,7,8
 502 864 502 864 412 824.5 c 128,-1,9
 322 785 322 785 315 785 c 1,10,11
 301 791 301 791 301 820 c 2,0,-1
53 352 m 0,12,13
 53 568 53 568 182 663 c 0,14,15
 249 713 249 713 344 713 c 0,16,17
 490 713 490 713 570.5 610.5 c 128,-1,18
 651 508 651 508 651 352.5 c 128,-1,19
 651 197 651 197 570.5 93.5 c 128,-1,20
 490 -10 490 -10 346.5 -10 c 128,-1,21
 203 -10 203 -10 128 93 c 128,-1,22
 53 196 53 196 53 352 c 0,12,13
361 49 m 0,23,24
 564 49 564 49 564 321 c 0,25,26
 564 458 564 458 517 550 c 0,27,28
 492 599 492 599 446.5 626.5 c 128,-1,29
 401 654 401 654 338 654 c 0,30,31
 234 654 234 654 187 580 c 128,-1,32
 140 506 140 506 140 388 c 0,33,34
 140 215 140 215 212 120 c 0,35,36
 236 88 236 88 274.5 68.5 c 128,-1,37
 313 49 313 49 361 49 c 0,23,24
EndSplineSet
EndChar

StartChar: Otilde
Encoding: 213 213 149
Width: 703
GlyphClass: 2
Flags: W
LayerCount: 2
Fore
SplineSet
53 352 m 0,0,1
 53 568 53 568 182 663 c 0,2,3
 249 713 249 713 344 713 c 0,4,5
 490 713 490 713 570.5 610.5 c 128,-1,6
 651 508 651 508 651 352.5 c 128,-1,7
 651 197 651 197 570.5 93.5 c 128,-1,8
 490 -10 490 -10 346.5 -10 c 128,-1,9
 203 -10 203 -10 128 93 c 128,-1,10
 53 196 53 196 53 352 c 0,0,1
361 49 m 0,11,12
 564 49 564 49 564 321 c 0,13,14
 564 458 564 458 517 550 c 0,15,16
 492 599 492 599 446.5 626.5 c 128,-1,17
 401 654 401 654 338 654 c 0,18,19
 234 654 234 654 187 580 c 128,-1,20
 140 506 140 506 140 388 c 0,21,22
 140 215 140 215 212 120 c 0,23,24
 236 88 236 88 274.5 68.5 c 128,-1,25
 313 49 313 49 361 49 c 0,11,12
456 819 m 128,-1,27
 424 801 424 801 396 801 c 128,-1,28
 368 801 368 801 325.5 823 c 128,-1,29
 283 845 283 845 266 845 c 0,30,31
 235 845 235 845 199 809 c 1,32,33
 184 812 184 812 184 842 c 1,34,-1
 185 848 l 1,35,36
 200 865 200 865 233.5 883 c 128,-1,37
 267 901 267 901 296.5 901 c 128,-1,38
 326 901 326 901 366 879.5 c 128,-1,39
 406 858 406 858 423 858 c 0,40,41
 454 858 454 858 490 894 c 1,42,43
 505 891 505 891 505 862 c 1,44,-1
 504 855 l 1,45,26
 488 837 488 837 456 819 c 128,-1,27
EndSplineSet
EndChar

StartChar: multiply
Encoding: 215 215 151
Width: 471
GlyphClass: 2
Flags: W
LayerCount: 2
Fore
SplineSet
373 50 m 1,0,-1
 238 202 l 1,1,2
 123 74 123 74 103 50 c 1,3,4
 56 67 56 67 56 93 c 1,5,6
 82 116 82 116 199 246 c 1,7,8
 75 382 75 382 60 396 c 1,9,10
 79 437 79 437 106 438 c 1,11,12
 206 325 206 325 238 289 c 1,13,14
 348 412 348 412 370 438 c 1,15,16
 412 417 412 417 412 392 c 1,17,18
 385 367 385 367 277 246 c 1,19,20
 396 114 396 114 416 97 c 1,21,22
 399 50 399 50 373 50 c 1,0,-1
EndSplineSet
EndChar

StartChar: Oslash
Encoding: 216 216 152
Width: 703
GlyphClass: 2
Flags: W
LayerCount: 2
Fore
SplineSet
53 352 m 0,0,1
 53 568 53 568 182 663 c 0,2,3
 249 713 249 713 344 713 c 0,4,5
 490 713 490 713 570.5 610.5 c 128,-1,6
 651 508 651 508 651 352.5 c 128,-1,7
 651 197 651 197 570.5 93.5 c 128,-1,8
 490 -10 490 -10 346.5 -10 c 128,-1,9
 203 -10 203 -10 128 93 c 128,-1,10
 53 196 53 196 53 352 c 0,0,1
361 49 m 0,11,12
 564 49 564 49 564 321 c 0,13,14
 564 458 564 458 517 550 c 0,15,16
 492 599 492 599 446.5 626.5 c 128,-1,17
 401 654 401 654 338 654 c 0,18,19
 234 654 234 654 187 580 c 128,-1,20
 140 506 140 506 140 388 c 0,21,22
 140 215 140 215 212 120 c 0,23,24
 236 88 236 88 274.5 68.5 c 128,-1,25
 313 49 313 49 361 49 c 0,11,12
517 762 m 1,26,27
 473 648 473 648 370.5 339.5 c 128,-1,28
 268 31 268 31 235 -85 c 1,29,30
 176 -85 176 -85 162 -65 c 1,31,32
 206 50 206 50 309.5 361.5 c 128,-1,33
 413 673 413 673 445 787 c 1,34,35
 504 787 504 787 517 762 c 1,26,27
EndSplineSet
EndChar

StartChar: Ugrave
Encoding: 217 217 153
Width: 711
GlyphClass: 2
Flags: W
LayerCount: 2
Fore
SplineSet
188 875 m 0,0,1
 187 878 187 878 187 887 c 128,-1,2
 187 896 187 896 197 924 c 128,-1,3
 207 952 207 952 229 956 c 1,4,5
 279 890 279 890 392 825 c 1,6,7
 393 809 393 809 388 798 c 128,-1,8
 383 787 383 787 378 785 c 1,9,10
 371 785 371 785 281 824.5 c 128,-1,11
 191 864 191 864 188 875 c 0,0,1
570 697 m 1,12,-1
 699 703 l 1,13,14
 701 699 701 699 701 685 c 128,-1,15
 701 671 701 671 695 665 c 1,16,17
 651 665 651 665 632 652.5 c 128,-1,18
 613 640 613 640 613 613 c 2,19,-1
 611 248 l 2,20,21
 610 127 610 127 538 58.5 c 128,-1,22
 466 -10 466 -10 346 -10 c 128,-1,23
 226 -10 226 -10 163.5 58 c 128,-1,24
 101 126 101 126 102 248 c 2,25,-1
 103 613 l 2,26,27
 103 641 103 641 85.5 653 c 128,-1,28
 68 665 68 665 18 665 c 1,29,30
 12 671 12 671 12 685.5 c 128,-1,31
 12 700 12 700 15 703 c 1,32,-1
 152 697 l 1,33,-1
 282 703 l 1,34,35
 284 701 284 701 284 685.5 c 128,-1,36
 284 670 284 670 279 665 c 1,37,38
 230 665 230 665 210.5 652.5 c 128,-1,39
 191 640 191 640 192 613 c 2,40,-1
 201 259 l 2,41,42
 204 156 204 156 237.5 102.5 c 128,-1,43
 271 49 271 49 361 49 c 128,-1,44
 451 49 451 49 497.5 105 c 128,-1,45
 544 161 544 161 543 259 c 2,46,-1
 539 613 l 2,47,48
 539 638 539 638 513.5 651.5 c 128,-1,49
 488 665 488 665 448 665 c 1,50,51
 442 671 442 671 442 685.5 c 128,-1,52
 442 700 442 700 445 703 c 1,53,-1
 570 697 l 1,12,-1
EndSplineSet
EndChar

StartChar: Uacute
Encoding: 218 218 154
Width: 711
GlyphClass: 2
Flags: W
LayerCount: 2
Fore
SplineSet
309 820 m 2,0,-1
 309 825 l 1,1,2
 422 890 422 890 472 956 c 1,3,4
 494 952 494 952 504 924 c 128,-1,5
 514 896 514 896 514 887 c 128,-1,6
 514 878 514 878 513 875 c 0,7,8
 510 864 510 864 420 824.5 c 128,-1,9
 330 785 330 785 323 785 c 1,10,11
 309 791 309 791 309 820 c 2,0,-1
570 697 m 1,12,-1
 699 703 l 1,13,14
 701 699 701 699 701 685 c 128,-1,15
 701 671 701 671 695 665 c 1,16,17
 651 665 651 665 632 652.5 c 128,-1,18
 613 640 613 640 613 613 c 2,19,-1
 611 248 l 2,20,21
 610 127 610 127 538 58.5 c 128,-1,22
 466 -10 466 -10 346 -10 c 128,-1,23
 226 -10 226 -10 163.5 58 c 128,-1,24
 101 126 101 126 102 248 c 2,25,-1
 103 613 l 2,26,27
 103 641 103 641 85.5 653 c 128,-1,28
 68 665 68 665 18 665 c 1,29,30
 12 671 12 671 12 685.5 c 128,-1,31
 12 700 12 700 15 703 c 1,32,-1
 152 697 l 1,33,-1
 282 703 l 1,34,35
 284 701 284 701 284 685.5 c 128,-1,36
 284 670 284 670 279 665 c 1,37,38
 230 665 230 665 210.5 652.5 c 128,-1,39
 191 640 191 640 192 613 c 2,40,-1
 201 259 l 2,41,42
 204 156 204 156 237.5 102.5 c 128,-1,43
 271 49 271 49 361 49 c 128,-1,44
 451 49 451 49 497.5 105 c 128,-1,45
 544 161 544 161 543 259 c 2,46,-1
 539 613 l 2,47,48
 539 638 539 638 513.5 651.5 c 128,-1,49
 488 665 488 665 448 665 c 1,50,51
 442 671 442 671 442 685.5 c 128,-1,52
 442 700 442 700 445 703 c 1,53,-1
 570 697 l 1,12,-1
EndSplineSet
EndChar

StartChar: Udieresis
Encoding: 220 220 156
Width: 711
GlyphClass: 2
Flags: W
LayerCount: 2
Fore
SplineSet
570 697 m 1,0,-1
 699 703 l 1,1,2
 701 699 701 699 701 685 c 128,-1,3
 701 671 701 671 695 665 c 1,4,5
 651 665 651 665 632 652.5 c 128,-1,6
 613 640 613 640 613 613 c 2,7,-1
 611 248 l 2,8,9
 610 127 610 127 538 58.5 c 128,-1,10
 466 -10 466 -10 346 -10 c 128,-1,11
 226 -10 226 -10 163.5 58 c 128,-1,12
 101 126 101 126 102 248 c 2,13,-1
 103 613 l 2,14,15
 103 641 103 641 85.5 653 c 128,-1,16
 68 665 68 665 18 665 c 1,17,18
 12 671 12 671 12 685.5 c 128,-1,19
 12 700 12 700 15 703 c 1,20,-1
 152 697 l 1,21,-1
 282 703 l 1,22,23
 284 701 284 701 284 685.5 c 128,-1,24
 284 670 284 670 279 665 c 1,25,26
 230 665 230 665 210.5 652.5 c 128,-1,27
 191 640 191 640 192 613 c 2,28,-1
 201 259 l 2,29,30
 204 156 204 156 237.5 102.5 c 128,-1,31
 271 49 271 49 361 49 c 128,-1,32
 451 49 451 49 497.5 105 c 128,-1,33
 544 161 544 161 543 259 c 2,34,-1
 539 613 l 2,35,36
 539 638 539 638 513.5 651.5 c 128,-1,37
 488 665 488 665 448 665 c 1,38,39
 442 671 442 671 442 685.5 c 128,-1,40
 442 700 442 700 445 703 c 1,41,-1
 570 697 l 1,0,-1
215 836 m 128,-1,43
 215 859 215 859 228 874.5 c 128,-1,44
 241 890 241 890 263 890 c 128,-1,45
 285 890 285 890 301.5 874.5 c 128,-1,46
 318 859 318 859 318 838 c 0,47,48
 318 787 318 787 266 785 c 0,49,50
 243 785 243 785 229 799 c 128,-1,42
 215 813 215 813 215 836 c 128,-1,43
394 836 m 128,-1,52
 394 859 394 859 407 874.5 c 128,-1,53
 420 890 420 890 442 890 c 128,-1,54
 464 890 464 890 480.5 874.5 c 128,-1,55
 497 859 497 859 497 838 c 0,56,57
 497 787 497 787 445 785 c 0,58,59
 422 785 422 785 408 799 c 128,-1,51
 394 813 394 813 394 836 c 128,-1,52
EndSplineSet
EndChar

StartChar: Yacute
Encoding: 221 221 157
Width: 640
GlyphClass: 2
Flags: W
LayerCount: 2
Fore
SplineSet
282 820 m 2,0,-1
 282 825 l 1,1,2
 395 890 395 890 445 956 c 1,3,4
 467 952 467 952 477 924 c 128,-1,5
 487 896 487 896 487 887 c 128,-1,6
 487 878 487 878 486 875 c 0,7,8
 483 864 483 864 393 824.5 c 128,-1,9
 303 785 303 785 296 785 c 1,10,11
 282 791 282 791 282 820 c 2,0,-1
332 6 m 1,12,-1
 213 0 l 1,13,14
 210 3 210 3 210 17.5 c 128,-1,15
 210 32 210 32 216 38 c 1,16,17
 252 38 252 38 267 50.5 c 128,-1,18
 282 63 282 63 283 90 c 2,19,-1
 288 256 l 1,20,21
 92 601 92 601 83.5 612.5 c 128,-1,22
 75 624 75 624 60 638 c 0,23,24
 33 665 33 665 -25 665 c 1,25,26
 -32 670 -32 670 -32 685.5 c 128,-1,27
 -32 701 -32 701 -30 703 c 1,28,29
 -12 703 -12 703 33 698.5 c 128,-1,30
 78 694 78 694 109 694 c 128,-1,31
 140 694 140 694 183 698.5 c 128,-1,32
 226 703 226 703 245 703 c 1,33,34
 247 699 247 699 247 685.5 c 128,-1,35
 247 672 247 672 240 665 c 1,36,37
 178 665 178 665 178 630 c 0,38,39
 178 608 178 608 198 575 c 2,40,-1
 335 348 l 1,41,-1
 453 575 l 2,42,43
 478 623 478 623 478 641 c 0,44,45
 478 665 478 665 435 665 c 1,46,47
 428 672 428 672 428 686.5 c 128,-1,48
 428 701 428 701 430 703 c 1,49,50
 446 703 446 703 481.5 698.5 c 128,-1,51
 517 694 517 694 542.5 694 c 128,-1,52
 568 694 568 694 599.5 698.5 c 128,-1,53
 631 703 631 703 647 703 c 1,54,55
 649 699 649 699 649 685 c 128,-1,56
 649 671 649 671 643 665 c 1,57,58
 596 665 596 665 571 643 c 128,-1,59
 546 621 546 621 521 575 c 2,60,-1
 362 275 l 1,61,-1
 374 90 l 2,62,63
 376 63 376 63 390 50.5 c 128,-1,64
 404 38 404 38 440 38 c 1,65,66
 446 32 446 32 446 17.5 c 128,-1,67
 446 3 446 3 443 0 c 1,68,-1
 332 6 l 1,12,-1
EndSplineSet
EndChar

StartChar: Thorn
Encoding: 222 222 158
Width: 555
GlyphClass: 2
Flags: W
LayerCount: 2
Fore
SplineSet
188 568 m 1,0,1
 293 573 293 573 301 573 c 0,2,3
 396 573 396 573 460 522.5 c 128,-1,4
 524 472 524 472 524 380 c 128,-1,5
 524 288 524 288 448 232 c 128,-1,6
 372 176 372 176 261 174 c 1,7,8
 257 178 257 178 250 189 c 128,-1,9
 243 200 243 200 243 205.5 c 128,-1,10
 243 211 243 211 244 212 c 1,11,12
 434 212 434 212 434 370 c 0,13,14
 434 450 434 450 390.5 486 c 128,-1,15
 347 522 347 522 262 522 c 0,16,17
 226 522 226 522 190 516 c 1,18,-1
 206 90 l 2,19,20
 207 63 207 63 221.5 50.5 c 128,-1,21
 236 38 236 38 272 38 c 1,22,23
 277 33 277 33 277 17.5 c 128,-1,24
 277 2 277 2 275 0 c 1,25,-1
 165 6 l 1,26,-1
 45 0 l 1,27,28
 42 3 42 3 42 17.5 c 128,-1,29
 42 32 42 32 48 38 c 1,30,31
 84 38 84 38 99.5 50.5 c 128,-1,32
 115 63 115 63 115 90 c 2,33,-1
 119 614 l 2,34,35
 119 641 119 641 104 653 c 128,-1,36
 89 665 89 665 52 665 c 1,37,38
 46 670 46 670 46 685.5 c 128,-1,39
 46 701 46 701 48 703 c 1,40,-1
 159 697 l 1,41,-1
 256 703 l 1,42,43
 258 701 258 701 258 685.5 c 128,-1,44
 258 670 258 670 253 665 c 1,45,46
 217 665 217 665 201.5 652.5 c 128,-1,47
 186 640 186 640 187 613 c 2,48,-1
 188 568 l 1,0,1
EndSplineSet
EndChar

StartChar: germandbls
Encoding: 223 223 159
Width: 652
GlyphClass: 2
Flags: W
LayerCount: 2
Fore
SplineSet
164 6 m 1,0,-1
 37 0 l 1,1,2
 34 3 34 3 34 16.5 c 128,-1,3
 34 30 34 30 40 36 c 1,4,5
 81 36 81 36 99 47.5 c 128,-1,6
 117 59 117 59 117 87 c 2,7,-1
 119 398 l 1,8,-1
 43 398 l 1,9,10
 34 414 34 414 34 428.5 c 128,-1,11
 34 443 34 443 40 450 c 1,12,-1
 119 450 l 1,13,-1
 120 511 l 2,14,15
 122 616 122 616 179 693 c 128,-1,16
 236 770 236 770 342 770 c 0,17,18
 424 770 424 770 470.5 732 c 128,-1,19
 517 694 517 694 517 646.5 c 128,-1,20
 517 599 517 599 498 561.5 c 128,-1,21
 479 524 479 524 456 500 c 0,22,23
 396 437 396 437 396 396 c 0,24,25
 396 350 396 350 478 308 c 0,26,27
 512 290 512 290 546 270 c 128,-1,28
 580 250 580 250 604 218 c 128,-1,29
 628 186 628 186 628 145 c 0,30,31
 628 69 628 69 577.5 28.5 c 128,-1,32
 527 -12 527 -12 459 -12 c 128,-1,33
 391 -12 391 -12 344 20 c 128,-1,34
 297 52 297 52 297 113 c 0,35,36
 297 137 297 137 310 151 c 128,-1,37
 323 165 323 165 346 165 c 0,38,39
 395 165 395 165 395 128 c 0,40,41
 395 112 395 112 383 98.5 c 128,-1,42
 371 85 371 85 371 79 c 0,43,44
 371 63 371 63 397.5 51.5 c 128,-1,45
 424 40 424 40 455.5 40 c 128,-1,46
 487 40 487 40 518 63 c 128,-1,47
 549 86 549 86 549 138 c 0,48,49
 549 184 549 184 468 220 c 0,50,51
 434 236 434 236 400 254 c 128,-1,52
 366 272 366 272 342.5 302.5 c 128,-1,53
 319 333 319 333 319 372 c 128,-1,54
 319 411 319 411 337.5 447.5 c 128,-1,55
 356 484 356 484 379 508 c 0,56,57
 439 569 439 569 439 616.5 c 128,-1,58
 439 664 439 664 414.5 693.5 c 128,-1,59
 390 723 390 723 336.5 723 c 128,-1,60
 283 723 283 723 239 678.5 c 128,-1,61
 195 634 195 634 195 545 c 0,62,63
 195 541 195 541 205 87 c 0,64,65
 206 58 206 58 219 47 c 128,-1,66
 232 36 232 36 271 36 c 1,67,68
 276 31 276 31 276 16.5 c 128,-1,69
 276 2 276 2 274 0 c 1,70,-1
 164 6 l 1,0,-1
EndSplineSet
EndChar

StartChar: aacute
Encoding: 225 225 161
Width: 480
GlyphClass: 2
Flags: W
LayerCount: 2
Fore
SplineSet
77 25.5 m 128,-1,1
 39 61 39 61 39 116 c 128,-1,2
 39 171 39 171 85.5 207.5 c 128,-1,3
 132 244 132 244 240 266 c 2,4,-1
 309 280 l 1,5,-1
 309 305 l 2,6,7
 309 375 309 375 285.5 406.5 c 128,-1,8
 262 438 262 438 207 438 c 0,9,10
 131 438 131 438 131 407 c 0,11,12
 131 401 131 401 143 387.5 c 128,-1,13
 155 374 155 374 155 358.5 c 128,-1,14
 155 343 155 343 141.5 333.5 c 128,-1,15
 128 324 128 324 106 324 c 128,-1,16
 84 324 84 324 70.5 337 c 128,-1,17
 57 350 57 350 57 373 c 0,18,19
 57 424 57 424 106.5 457 c 128,-1,20
 156 490 156 490 214 490 c 0,21,22
 308 490 308 490 348 450.5 c 128,-1,23
 388 411 388 411 388 345 c 0,24,25
 388 343 388 343 384 108 c 0,26,27
 383 44 383 44 427 44 c 0,28,29
 445 44 445 44 468 54 c 1,30,31
 475 42 475 42 475 31.5 c 128,-1,32
 475 21 475 21 473 19 c 0,33,34
 463 9 463 9 438 -0.5 c 128,-1,35
 413 -10 413 -10 385 -10 c 0,36,37
 342 -10 342 -10 313 44 c 1,38,39
 250 -10 250 -10 170 -10 c 0,40,0
 115 -10 115 -10 77 25.5 c 128,-1,1
155.5 176.5 m 128,-1,42
 130 157 130 157 130 123.5 c 128,-1,43
 130 90 130 90 148 69 c 128,-1,44
 166 48 166 48 192 48 c 128,-1,45
 218 48 218 48 252.5 59.5 c 128,-1,46
 287 71 287 71 312 86 c 1,47,-1
 310 228 l 1,48,-1
 258 215 l 2,49,41
 181 196 181 196 155.5 176.5 c 128,-1,42
337 694 m 0,50,51
 337 682 337 682 254.5 627.5 c 128,-1,52
 172 573 172 573 166.5 573 c 128,-1,53
 161 573 161 573 156 580 c 0,54,55
 147 594 147 594 145 609 c 1,56,57
 246 695 246 695 283 767 c 1,58,59
 306 767 306 767 321.5 737.5 c 128,-1,60
 337 708 337 708 337 694 c 0,50,51
EndSplineSet
EndChar

StartChar: atilde
Encoding: 227 227 163
Width: 480
GlyphClass: 2
Flags: W
LayerCount: 2
Fore
SplineSet
77 25.5 m 128,-1,1
 39 61 39 61 39 116 c 128,-1,2
 39 171 39 171 85.5 207.5 c 128,-1,3
 132 244 132 244 240 266 c 2,4,-1
 309 280 l 1,5,-1
 309 305 l 2,6,7
 309 375 309 375 285.5 406.5 c 128,-1,8
 262 438 262 438 207 438 c 0,9,10
 131 438 131 438 131 407 c 0,11,12
 131 401 131 401 143 387.5 c 128,-1,13
 155 374 155 374 155 358.5 c 128,-1,14
 155 343 155 343 141.5 333.5 c 128,-1,15
 128 324 128 324 106 324 c 128,-1,16
 84 324 84 324 70.5 337 c 128,-1,17
 57 350 57 350 57 373 c 0,18,19
 57 424 57 424 106.5 457 c 128,-1,20
 156 490 156 490 214 490 c 0,21,22
 308 490 308 490 348 450.5 c 128,-1,23
 388 411 388 411 388 345 c 0,24,25
 388 343 388 343 384 108 c 0,26,27
 383 44 383 44 427 44 c 0,28,29
 445 44 445 44 468 54 c 1,30,31
 475 42 475 42 475 31.5 c 128,-1,32
 475 21 475 21 473 19 c 0,33,34
 463 9 463 9 438 -0.5 c 128,-1,35
 413 -10 413 -10 385 -10 c 0,36,37
 342 -10 342 -10 313 44 c 1,38,39
 250 -10 250 -10 170 -10 c 0,40,0
 115 -10 115 -10 77 25.5 c 128,-1,1
155.5 176.5 m 128,-1,42
 130 157 130 157 130 123.5 c 128,-1,43
 130 90 130 90 148 69 c 128,-1,44
 166 48 166 48 192 48 c 128,-1,45
 218 48 218 48 252.5 59.5 c 128,-1,46
 287 71 287 71 312 86 c 1,47,-1
 310 228 l 1,48,-1
 258 215 l 2,49,41
 181 196 181 196 155.5 176.5 c 128,-1,42
327 603 m 128,-1,51
 295 585 295 585 267 585 c 128,-1,52
 239 585 239 585 196.5 607 c 128,-1,53
 154 629 154 629 137 629 c 0,54,55
 106 629 106 629 70 593 c 1,56,57
 55 596 55 596 55 626 c 1,58,-1
 56 632 l 1,59,60
 71 649 71 649 104.5 667 c 128,-1,61
 138 685 138 685 167 685 c 128,-1,62
 196 685 196 685 236 663.5 c 128,-1,63
 276 642 276 642 294 642 c 0,64,65
 325 642 325 642 361 678 c 1,66,67
 376 675 376 675 376 646 c 1,68,-1
 375 639 l 1,69,50
 359 621 359 621 327 603 c 128,-1,51
EndSplineSet
EndChar

StartChar: ae
Encoding: 230 230 166
Width: 720
GlyphClass: 2
Flags: W
LayerCount: 2
Fore
SplineSet
490 -10 m 0,0,1
 452 -10 452 -10 410.5 10 c 128,-1,2
 369 30 369 30 346 70 c 1,3,4
 313 35 313 35 266 12.5 c 128,-1,5
 219 -10 219 -10 167 -10 c 128,-1,6
 115 -10 115 -10 77 25.5 c 128,-1,7
 39 61 39 61 39 115 c 128,-1,8
 39 169 39 169 86.5 206.5 c 128,-1,9
 134 244 134 244 240 266 c 2,10,-1
 309 280 l 1,11,-1
 309 306 l 2,12,13
 309 378 309 378 286 408 c 128,-1,14
 263 438 263 438 207 438 c 0,15,16
 131 438 131 438 131 407 c 0,17,18
 131 401 131 401 143 387.5 c 128,-1,19
 155 374 155 374 155 358.5 c 128,-1,20
 155 343 155 343 141.5 333.5 c 128,-1,21
 128 324 128 324 106 324 c 128,-1,22
 84 324 84 324 70.5 337 c 128,-1,23
 57 350 57 350 57 373 c 0,24,25
 57 424 57 424 106.5 457 c 128,-1,26
 156 490 156 490 214 490 c 0,27,28
 317 490 317 490 365 432 c 1,29,30
 421 490 421 490 507.5 490 c 128,-1,31
 594 490 594 490 635.5 421.5 c 128,-1,32
 677 353 677 353 677 245 c 1,33,-1
 386 245 l 1,34,35
 386 167 386 167 419.5 110 c 128,-1,36
 453 53 453 53 503 53 c 0,37,38
 591 53 591 53 654 97 c 1,39,40
 670 81 670 81 670 72 c 128,-1,41
 670 63 670 63 665 58 c 0,42,43
 597 -10 597 -10 490 -10 c 0,0,1
136 151 m 128,-1,45
 130 138 130 138 130 114 c 128,-1,46
 130 90 130 90 148 69 c 128,-1,47
 166 48 166 48 192 48 c 128,-1,48
 218 48 218 48 252.5 59.5 c 128,-1,49
 287 71 287 71 312 86 c 1,50,-1
 310 228 l 1,51,52
 192 204 192 204 160 178 c 0,53,44
 142 164 142 164 136 151 c 128,-1,45
589 302 m 1,54,-1
 590 318 l 1,55,56
 590 365 590 365 568.5 403.5 c 128,-1,57
 547 442 547 442 501 442 c 128,-1,58
 455 442 455 442 423.5 402.5 c 128,-1,59
 392 363 392 363 387 297 c 1,60,-1
 520 296 l 2,61,62
 581 296 581 296 589 302 c 1,54,-1
EndSplineSet
EndChar

StartChar: egrave
Encoding: 232 232 168
Width: 485
GlyphClass: 2
Flags: W
LayerCount: 2
Fore
SplineSet
432 59 m 0,0,1
 363 -10 363 -10 259.5 -10 c 128,-1,2
 156 -10 156 -10 100 60.5 c 128,-1,3
 44 131 44 131 44 239.5 c 128,-1,4
 44 348 44 348 99.5 419 c 128,-1,5
 155 490 155 490 252.5 490 c 128,-1,6
 350 490 350 490 396.5 421.5 c 128,-1,7
 443 353 443 353 443 245 c 1,8,-1
 132 245 l 1,9,10
 132 164 132 164 167.5 108.5 c 128,-1,11
 203 53 203 53 269 53 c 0,12,13
 359 53 359 53 421 98 c 1,14,15
 425 95 425 95 431 84 c 128,-1,16
 437 73 437 73 437 68.5 c 128,-1,17
 437 64 437 64 432 59 c 0,0,1
133 297 m 1,18,-1
 274 296 l 2,19,20
 350 296 350 296 355 302 c 1,21,22
 356 307 356 307 356 319 c 0,23,24
 356 366 356 366 329 404 c 128,-1,25
 302 442 302 442 251.5 442 c 128,-1,26
 201 442 201 442 169.5 402.5 c 128,-1,27
 138 363 138 363 133 297 c 1,18,-1
96 694 m 0,28,29
 96 708 96 708 111.5 737.5 c 128,-1,30
 127 767 127 767 150 767 c 1,31,32
 187 695 187 695 288 609 c 1,33,34
 286 594 286 594 279 583.5 c 128,-1,35
 272 573 272 573 266.5 573 c 128,-1,36
 261 573 261 573 178.5 627.5 c 128,-1,37
 96 682 96 682 96 694 c 0,28,29
EndSplineSet
EndChar

StartChar: ecircumflex
Encoding: 234 234 170
Width: 485
GlyphClass: 2
Flags: W
LayerCount: 2
Fore
SplineSet
432 59 m 0,0,1
 363 -10 363 -10 259.5 -10 c 128,-1,2
 156 -10 156 -10 100 60.5 c 128,-1,3
 44 131 44 131 44 239.5 c 128,-1,4
 44 348 44 348 99.5 419 c 128,-1,5
 155 490 155 490 252.5 490 c 128,-1,6
 350 490 350 490 396.5 421.5 c 128,-1,7
 443 353 443 353 443 245 c 1,8,-1
 132 245 l 1,9,10
 132 164 132 164 167.5 108.5 c 128,-1,11
 203 53 203 53 269 53 c 0,12,13
 359 53 359 53 421 98 c 1,14,15
 425 95 425 95 431 84 c 128,-1,16
 437 73 437 73 437 68.5 c 128,-1,17
 437 64 437 64 432 59 c 0,0,1
133 297 m 1,18,-1
 274 296 l 2,19,20
 350 296 350 296 355 302 c 1,21,22
 356 307 356 307 356 319 c 0,23,24
 356 366 356 366 329 404 c 128,-1,25
 302 442 302 442 251.5 442 c 128,-1,26
 201 442 201 442 169.5 402.5 c 128,-1,27
 138 363 138 363 133 297 c 1,18,-1
233 751 m 1,28,29
 237 755 237 755 250 755 c 128,-1,30
 263 755 263 755 269 751 c 1,31,32
 291 709 291 709 330 668 c 0,33,34
 343 655 343 655 371 628 c 0,35,36
 408 592 408 592 408 588 c 128,-1,37
 408 584 408 584 404 577 c 128,-1,38
 400 570 400 570 396 566 c 0,39,40
 389 557 389 557 386.5 557 c 128,-1,41
 384 557 384 557 362 574 c 0,42,43
 298 620 298 620 251 663 c 1,44,45
 213 626 213 626 165.5 591.5 c 128,-1,46
 118 557 118 557 116.5 557 c 128,-1,47
 115 557 115 557 112 560 c 0,48,49
 105 565 105 565 99.5 574.5 c 128,-1,50
 94 584 94 584 94 588 c 128,-1,51
 94 592 94 592 95 593 c 0,52,53
 196 679 196 679 233 751 c 1,28,29
EndSplineSet
EndChar

StartChar: iacute
Encoding: 237 237 173
Width: 301
GlyphClass: 2
Flags: W
LayerCount: 2
Fore
SplineSet
164 6 m 1,0,-1
 37 0 l 1,1,2
 34 3 34 3 34 16.5 c 128,-1,3
 34 30 34 30 40 36 c 1,4,5
 80 36 80 36 98.5 47.5 c 128,-1,6
 117 59 117 59 117 87 c 2,7,-1
 118 358 l 2,8,9
 118 409 118 409 35 409 c 1,10,11
 32 412 32 412 32 425.5 c 128,-1,12
 32 439 32 439 38 445 c 1,13,14
 69 445 69 445 97 452.5 c 128,-1,15
 125 460 125 460 134.5 465.5 c 128,-1,16
 144 471 144 471 150.5 477.5 c 128,-1,17
 157 484 157 484 170 484 c 128,-1,18
 183 484 183 484 189 480 c 1,19,-1
 205 87 l 2,20,21
 206 59 206 59 223.5 47.5 c 128,-1,22
 241 36 241 36 281 36 c 1,23,24
 286 31 286 31 286 16.5 c 128,-1,25
 286 2 286 2 284 0 c 1,26,-1
 164 6 l 1,0,-1
246 694 m 0,27,28
 246 682 246 682 163.5 627.5 c 128,-1,29
 81 573 81 573 75.5 573 c 128,-1,30
 70 573 70 573 65 580 c 0,31,32
 56 594 56 594 54 609 c 1,33,34
 155 695 155 695 192 767 c 1,35,36
 215 767 215 767 230.5 737.5 c 128,-1,37
 246 708 246 708 246 694 c 0,27,28
EndSplineSet
EndChar

StartChar: eth
Encoding: 240 240 176
Width: 570
GlyphClass: 2
Flags: W
LayerCount: 2
Fore
SplineSet
518 45 m 0,0,1
 534 45 534 45 555 54 c 1,2,3
 562 45 562 45 562 27 c 0,4,5
 562 16 562 16 537 3 c 128,-1,6
 512 -10 512 -10 478.5 -10 c 128,-1,7
 445 -10 445 -10 425 10 c 128,-1,8
 405 30 405 30 400 50 c 1,9,-1
 396 71 l 1,10,11
 332 -10 332 -10 241.5 -10 c 128,-1,12
 151 -10 151 -10 97.5 54.5 c 128,-1,13
 44 119 44 119 44 225.5 c 128,-1,14
 44 332 44 332 101 411 c 128,-1,15
 158 490 158 490 253 490 c 0,16,17
 330 490 330 490 389 431 c 1,18,-1
 390 552 l 1,19,-1
 248 552 l 1,20,21
 239 572 239 572 239 588 c 128,-1,22
 239 604 239 604 245 610 c 1,23,24
 261 608 261 608 390 608 c 1,25,-1
 391 637 l 2,26,27
 393 688 393 688 293 688 c 1,28,29
 290 691 290 691 290 704.5 c 128,-1,30
 290 718 290 718 296 724 c 1,31,32
 365 728 365 728 418 760 c 1,33,34
 422 764 422 764 435 764 c 128,-1,35
 448 764 448 764 454 760 c 1,36,-1
 458 608 l 1,37,38
 538 608 538 608 564 610 c 1,39,40
 569 594 569 594 569 577 c 128,-1,41
 569 560 569 560 561 552 c 1,42,-1
 460 552 l 1,43,-1
 473 115 l 2,44,45
 475 45 475 45 518 45 c 0,0,1
131 225 m 0,46,47
 131 147 131 147 166 95 c 128,-1,48
 201 43 201 43 269 43 c 0,49,50
 301 43 301 43 334.5 67 c 128,-1,51
 368 91 368 91 386 123 c 1,52,-1
 388 334 l 2,53,54
 388 374 388 374 348 408 c 128,-1,55
 308 442 308 442 268 442 c 0,56,57
 131 442 131 442 131 225 c 0,46,47
EndSplineSet
EndChar

StartChar: oacute
Encoding: 243 243 179
Width: 517
GlyphClass: 2
Flags: W
LayerCount: 2
Fore
SplineSet
45 240 m 128,-1,1
 45 349 45 349 97.5 419.5 c 128,-1,2
 150 490 150 490 256 490 c 128,-1,3
 362 490 362 490 417.5 419 c 128,-1,4
 473 348 473 348 473 240 c 128,-1,5
 473 132 473 132 417.5 61 c 128,-1,6
 362 -10 362 -10 256 -10 c 128,-1,7
 150 -10 150 -10 97.5 60.5 c 128,-1,0
 45 131 45 131 45 240 c 128,-1,1
366 98 m 0,8,9
 388 144 388 144 388 231 c 128,-1,10
 388 318 388 318 353.5 380 c 128,-1,11
 319 442 319 442 254 442 c 0,12,13
 166 442 166 442 142 363 c 0,14,15
 130 321 130 321 130 258 c 0,16,17
 130 163 130 163 164.5 103.5 c 128,-1,18
 199 44 199 44 270 44 c 128,-1,19
 341 44 341 44 366 98 c 0,8,9
366 694 m 0,20,21
 366 682 366 682 283.5 627.5 c 128,-1,22
 201 573 201 573 195.5 573 c 128,-1,23
 190 573 190 573 185 580 c 0,24,25
 176 594 176 594 174 609 c 1,26,27
 275 695 275 695 312 767 c 1,28,29
 335 767 335 767 350.5 737.5 c 128,-1,30
 366 708 366 708 366 694 c 0,20,21
EndSplineSet
EndChar

StartChar: otilde
Encoding: 245 245 181
Width: 517
GlyphClass: 2
Flags: W
LayerCount: 2
Fore
SplineSet
45 240 m 128,-1,1
 45 349 45 349 97.5 419.5 c 128,-1,2
 150 490 150 490 256 490 c 128,-1,3
 362 490 362 490 417.5 419 c 128,-1,4
 473 348 473 348 473 240 c 128,-1,5
 473 132 473 132 417.5 61 c 128,-1,6
 362 -10 362 -10 256 -10 c 128,-1,7
 150 -10 150 -10 97.5 60.5 c 128,-1,0
 45 131 45 131 45 240 c 128,-1,1
366 98 m 0,8,9
 388 144 388 144 388 231 c 128,-1,10
 388 318 388 318 353.5 380 c 128,-1,11
 319 442 319 442 254 442 c 0,12,13
 166 442 166 442 142 363 c 0,14,15
 130 321 130 321 130 258 c 0,16,17
 130 163 130 163 164.5 103.5 c 128,-1,18
 199 44 199 44 270 44 c 128,-1,19
 341 44 341 44 366 98 c 0,8,9
359 603 m 128,-1,21
 327 585 327 585 299 585 c 128,-1,22
 271 585 271 585 228.5 607 c 128,-1,23
 186 629 186 629 169 629 c 0,24,25
 138 629 138 629 102 593 c 1,26,27
 87 596 87 596 87 626 c 1,28,-1
 88 632 l 1,29,30
 103 649 103 649 136.5 667 c 128,-1,31
 170 685 170 685 199 685 c 128,-1,32
 228 685 228 685 268 663.5 c 128,-1,33
 308 642 308 642 326 642 c 0,34,35
 357 642 357 642 393 678 c 1,36,37
 408 675 408 675 408 646 c 1,38,-1
 407 639 l 1,39,20
 391 621 391 621 359 603 c 128,-1,21
EndSplineSet
EndChar

StartChar: divide
Encoding: 247 247 183
Width: 515
GlyphClass: 2
Flags: W
LayerCount: 2
Fore
SplineSet
291.5 358.5 m 128,-1,1
 278 346 278 346 255.5 346 c 128,-1,2
 233 346 233 346 220.5 359.5 c 128,-1,3
 208 373 208 373 208 394.5 c 128,-1,4
 208 416 208 416 220.5 430 c 128,-1,5
 233 444 233 444 254 444 c 128,-1,6
 275 444 275 444 290 429.5 c 128,-1,7
 305 415 305 415 305 393 c 128,-1,0
 305 371 305 371 291.5 358.5 c 128,-1,1
291.5 57.5 m 128,-1,9
 278 45 278 45 255.5 45 c 128,-1,10
 233 45 233 45 220.5 58.5 c 128,-1,11
 208 72 208 72 208 93.5 c 128,-1,12
 208 115 208 115 220.5 129 c 128,-1,13
 233 143 233 143 254 143 c 128,-1,14
 275 143 275 143 290 128.5 c 128,-1,15
 305 114 305 114 305 92 c 128,-1,8
 305 70 305 70 291.5 57.5 c 128,-1,9
448 219 m 1,16,17
 404 221 404 221 256.5 221 c 128,-1,18
 109 221 109 221 67 219 c 1,19,20
 58 241 58 241 58 258 c 128,-1,21
 58 275 58 275 64 282 c 1,22,23
 85 280 85 280 257 280 c 128,-1,24
 429 280 429 280 451 282 c 1,25,26
 456 264 456 264 456 245.5 c 128,-1,27
 456 227 456 227 448 219 c 1,16,17
EndSplineSet
EndChar

StartChar: oslash
Encoding: 248 248 184
Width: 517
GlyphClass: 2
Flags: W
LayerCount: 2
Fore
SplineSet
473 240 m 0,0,1
 473 132 473 132 417.5 61 c 128,-1,2
 362 -10 362 -10 256 -10 c 0,3,4
 227 -10 227 -10 203 -4 c 1,5,6
 189 -47 189 -47 183 -71 c 1,7,8
 135 -71 135 -71 121 -57 c 1,9,-1
 148 16 l 1,10,11
 45 76 45 76 45 240 c 0,12,13
 45 349 45 349 97.5 419.5 c 128,-1,14
 150 490 150 490 256 490 c 0,15,16
 278 490 278 490 303 485 c 1,17,-1
 325 556 l 1,18,19
 373 556 373 556 385 538 c 1,20,21
 371 502 371 502 359 466 c 1,22,23
 415 437 415 437 444 376.5 c 128,-1,24
 473 316 473 316 473 240 c 0,0,1
220 52 m 1,25,26
 237 44 237 44 270 44 c 128,-1,27
 303 44 303 44 328.5 58 c 128,-1,28
 354 72 354 72 366 98 c 0,29,30
 388 144 388 144 388 222 c 0,31,32
 388 343 388 343 337 403 c 1,33,34
 276 225 276 225 220 52 c 1,25,26
130 258 m 0,35,36
 130 148 130 148 173 90 c 1,37,38
 228 250 228 250 288 436 c 1,39,40
 272 442 272 442 247.5 442 c 128,-1,41
 223 442 223 442 200 431.5 c 128,-1,42
 177 421 177 421 163.5 404.5 c 128,-1,43
 150 388 150 388 142 363 c 0,44,45
 130 321 130 321 130 258 c 0,35,36
EndSplineSet
EndChar

StartChar: ugrave
Encoding: 249 249 185
Width: 586
GlyphClass: 2
Flags: W
LayerCount: 2
Fore
SplineSet
412 77 m 1,0,1
 325 -10 325 -10 252 -10 c 128,-1,2
 179 -10 179 -10 136.5 33.5 c 128,-1,3
 94 77 94 77 95 146 c 2,4,-1
 96 357 l 2,5,6
 96 386 96 386 79 397 c 128,-1,7
 62 408 62 408 21 408 c 1,8,9
 18 411 18 411 18 423 c 128,-1,10
 18 435 18 435 24 444 c 1,11,12
 60 448 60 448 80.5 454.5 c 128,-1,13
 101 461 101 461 126 480 c 0,14,15
 130 483 130 483 146 483 c 128,-1,16
 162 483 162 483 165 480 c 1,17,-1
 172 164 l 2,18,19
 173 113 173 113 200.5 82.5 c 128,-1,20
 228 52 228 52 277 52 c 0,21,22
 313 52 313 52 352 82 c 0,23,24
 365 92 365 92 383.5 109 c 128,-1,25
 402 126 402 126 406 129 c 1,26,-1
 406 357 l 2,27,28
 406 385 406 385 388.5 396.5 c 128,-1,29
 371 408 371 408 331 408 c 1,30,31
 328 411 328 411 328 424.5 c 128,-1,32
 328 438 328 438 334 444 c 1,33,34
 370 448 370 448 390.5 454.5 c 128,-1,35
 411 461 411 461 436 480 c 0,36,37
 440 483 440 483 456 483 c 128,-1,38
 472 483 472 483 475 480 c 1,39,-1
 485 113 l 2,40,41
 487 45 487 45 532 45 c 0,42,43
 548 45 548 45 570 54 c 1,44,45
 577 45 577 45 577 27 c 0,46,47
 577 16 577 16 552 3 c 128,-1,48
 527 -10 527 -10 499.5 -10 c 128,-1,49
 472 -10 472 -10 456.5 -1 c 128,-1,50
 441 8 441 8 433 21 c 0,51,52
 417 47 417 47 412 77 c 1,0,1
126 694 m 0,53,54
 126 708 126 708 141.5 737.5 c 128,-1,55
 157 767 157 767 180 767 c 1,56,57
 217 695 217 695 318 609 c 1,58,59
 316 594 316 594 309 583.5 c 128,-1,60
 302 573 302 573 296.5 573 c 128,-1,61
 291 573 291 573 208.5 627.5 c 128,-1,62
 126 682 126 682 126 694 c 0,53,54
EndSplineSet
EndChar

StartChar: ucircumflex
Encoding: 251 251 187
Width: 586
GlyphClass: 2
Flags: W
LayerCount: 2
Fore
SplineSet
412 77 m 1,0,1
 325 -10 325 -10 252 -10 c 128,-1,2
 179 -10 179 -10 136.5 33.5 c 128,-1,3
 94 77 94 77 95 146 c 2,4,-1
 96 357 l 2,5,6
 96 386 96 386 79 397 c 128,-1,7
 62 408 62 408 21 408 c 1,8,9
 18 411 18 411 18 423 c 128,-1,10
 18 435 18 435 24 444 c 1,11,12
 60 448 60 448 80.5 454.5 c 128,-1,13
 101 461 101 461 126 480 c 0,14,15
 130 483 130 483 146 483 c 128,-1,16
 162 483 162 483 165 480 c 1,17,-1
 172 164 l 2,18,19
 173 113 173 113 200.5 82.5 c 128,-1,20
 228 52 228 52 277 52 c 0,21,22
 313 52 313 52 352 82 c 0,23,24
 365 92 365 92 383.5 109 c 128,-1,25
 402 126 402 126 406 129 c 1,26,-1
 406 357 l 2,27,28
 406 385 406 385 388.5 396.5 c 128,-1,29
 371 408 371 408 331 408 c 1,30,31
 328 411 328 411 328 424.5 c 128,-1,32
 328 438 328 438 334 444 c 1,33,34
 370 448 370 448 390.5 454.5 c 128,-1,35
 411 461 411 461 436 480 c 0,36,37
 440 483 440 483 456 483 c 128,-1,38
 472 483 472 483 475 480 c 1,39,-1
 485 113 l 2,40,41
 487 45 487 45 532 45 c 0,42,43
 548 45 548 45 570 54 c 1,44,45
 577 45 577 45 577 27 c 0,46,47
 577 16 577 16 552 3 c 128,-1,48
 527 -10 527 -10 499.5 -10 c 128,-1,49
 472 -10 472 -10 456.5 -1 c 128,-1,50
 441 8 441 8 433 21 c 0,51,52
 417 47 417 47 412 77 c 1,0,1
252 751 m 1,53,54
 256 755 256 755 269 755 c 128,-1,55
 282 755 282 755 288 751 c 1,56,57
 310 709 310 709 349 668 c 0,58,59
 362 655 362 655 390 628 c 0,60,61
 427 592 427 592 427 588 c 128,-1,62
 427 584 427 584 423 577 c 128,-1,63
 419 570 419 570 416 566 c 0,64,65
 408 557 408 557 405.5 557 c 128,-1,66
 403 557 403 557 380 574 c 0,67,68
 317 620 317 620 270 663 c 1,69,70
 232 626 232 626 184.5 591.5 c 128,-1,71
 137 557 137 557 135.5 557 c 128,-1,72
 134 557 134 557 131 560 c 0,73,74
 124 565 124 565 118.5 574.5 c 128,-1,75
 113 584 113 584 113 588 c 128,-1,76
 113 592 113 592 114 593 c 0,77,78
 215 679 215 679 252 751 c 1,53,54
EndSplineSet
EndChar

StartChar: thorn
Encoding: 254 254 190
Width: 545
GlyphClass: 2
Flags: W
LayerCount: 2
Fore
SplineSet
414 245 m 0,0,1
 414 324 414 324 379 380.5 c 128,-1,2
 344 437 344 437 276 437 c 0,3,4
 243 437 243 437 206.5 411 c 128,-1,5
 170 385 170 385 152 353 c 1,6,-1
 157 146 l 2,7,8
 158 106 158 106 197.5 72 c 128,-1,9
 237 38 237 38 277 38 c 0,10,11
 414 38 414 38 414 245 c 0,0,1
122 -274 m 1,12,-1
 -5 -280 l 1,13,14
 -8 -277 -8 -277 -8 -263.5 c 128,-1,15
 -8 -250 -8 -250 -2 -244 c 1,16,17
 39 -244 39 -244 57 -232.5 c 128,-1,18
 75 -221 75 -221 75 -193 c 2,19,-1
 78 637 l 2,20,21
 78 688 78 688 -5 688 c 1,22,23
 -8 691 -8 691 -8 704.5 c 128,-1,24
 -8 718 -8 718 -2 724 c 1,25,26
 36 727 36 727 60.5 733.5 c 128,-1,27
 85 740 85 740 105 760 c 0,28,29
 109 764 109 764 122 764 c 128,-1,30
 135 764 135 764 141 760 c 1,31,-1
 150 413 l 1,32,33
 214 490 214 490 298 490 c 0,34,35
 399 490 399 490 450 422.5 c 128,-1,36
 501 355 501 355 501 247 c 128,-1,37
 501 139 501 139 444.5 64.5 c 128,-1,38
 388 -10 388 -10 292 -10 c 0,39,40
 217 -10 217 -10 158 49 c 1,41,-1
 163 -193 l 2,42,43
 164 -221 164 -221 181.5 -232.5 c 128,-1,44
 199 -244 199 -244 239 -244 c 1,45,46
 244 -249 244 -249 244 -263.5 c 128,-1,47
 244 -278 244 -278 242 -280 c 1,48,-1
 122 -274 l 1,12,-1
EndSplineSet
EndChar

StartChar: ydieresis
Encoding: 255 255 191
Width: 538
GlyphClass: 2
Flags: W
LayerCount: 2
Fore
SplineSet
109 474 m 1,0,-1
 225 480 l 1,1,2
 227 478 227 478 227 463.5 c 128,-1,3
 227 449 227 449 222 444 c 1,4,5
 167 444 167 444 167 420 c 0,6,7
 167 413 167 413 172 401 c 2,8,-1
 299 93 l 1,9,-1
 391 401 l 2,10,11
 393 407 393 407 393 417 c 0,12,13
 393 444 393 444 343 444 c 1,14,15
 337 450 337 450 337 463.5 c 128,-1,16
 337 477 337 477 340 480 c 1,17,-1
 445 474 l 1,18,-1
 536 480 l 1,19,20
 538 478 538 478 538 463.5 c 128,-1,21
 538 449 538 449 533 444 c 1,22,23
 501 444 501 444 487 435 c 128,-1,24
 473 426 473 426 465 401 c 2,25,-1
 316 -42 l 2,26,27
 273 -169 273 -169 243 -217 c 0,28,29
 197 -290 197 -290 140 -290 c 0,30,31
 103 -290 103 -290 72.5 -268.5 c 128,-1,32
 42 -247 42 -247 42 -207 c 0,33,34
 42 -186 42 -186 57.5 -173 c 128,-1,35
 73 -160 73 -160 93.5 -160 c 128,-1,36
 114 -160 114 -160 126.5 -171.5 c 128,-1,37
 139 -183 139 -183 139 -197.5 c 128,-1,38
 139 -212 139 -212 132.5 -219 c 128,-1,39
 126 -226 126 -226 126 -230 c 0,40,41
 126 -243 126 -243 144.5 -243 c 128,-1,42
 163 -243 163 -243 192.5 -198.5 c 128,-1,43
 222 -154 222 -154 239 -107 c 128,-1,44
 256 -60 256 -60 271 -6 c 1,45,-1
 77 401 l 2,46,47
 65 425 65 425 50.5 434.5 c 128,-1,48
 36 444 36 444 2 444 c 1,49,50
 -4 450 -4 450 -4 463.5 c 128,-1,51
 -4 477 -4 477 -1 480 c 1,52,-1
 109 474 l 1,0,-1
146 640 m 128,-1,54
 146 663 146 663 159 678.5 c 128,-1,55
 172 694 172 694 194 694 c 128,-1,56
 216 694 216 694 232.5 678.5 c 128,-1,57
 249 663 249 663 249 642 c 0,58,59
 249 591 249 591 197 589 c 0,60,61
 174 589 174 589 160 603 c 128,-1,53
 146 617 146 617 146 640 c 128,-1,54
325 640 m 128,-1,63
 325 663 325 663 338 678.5 c 128,-1,64
 351 694 351 694 373 694 c 128,-1,65
 395 694 395 694 411.5 678.5 c 128,-1,66
 428 663 428 663 428 642 c 0,67,68
 428 591 428 591 376 589 c 0,69,70
 353 589 353 589 339 603 c 128,-1,62
 325 617 325 617 325 640 c 128,-1,63
EndSplineSet
EndChar

StartChar: hbar
Encoding: 295 295 192
Width: 595
GlyphClass: 2
Flags: W
LayerCount: 2
Fore
SplineSet
176 403 m 1,0,1
 263 490 263 490 345 490 c 0,2,3
 413 490 413 490 454.5 447 c 128,-1,4
 496 404 496 404 498 334 c 2,5,-1
 505 87 l 2,6,7
 506 59 506 59 523 47.5 c 128,-1,8
 540 36 540 36 580 36 c 1,9,10
 585 31 585 31 585 16.5 c 128,-1,11
 585 2 585 2 583 0 c 1,12,-1
 464 6 l 1,13,-1
 342 0 l 1,14,15
 339 3 339 3 339 16.5 c 128,-1,16
 339 30 339 30 345 36 c 1,17,18
 383 36 383 36 399.5 47.5 c 128,-1,19
 416 59 416 59 417 87 c 2,20,-1
 421 316 l 2,21,22
 422 366 422 366 394 397 c 128,-1,23
 366 428 366 428 316 428 c 256,24,25
 266 428 266 428 204 371 c 0,26,27
 185 353 185 353 182 351 c 1,28,-1
 190 87 l 2,29,30
 191 59 191 59 207 47.5 c 128,-1,31
 223 36 223 36 261 36 c 1,32,33
 266 31 266 31 266 16.5 c 128,-1,34
 266 2 266 2 264 0 c 1,35,-1
 149 6 l 1,36,-1
 22 0 l 1,37,38
 19 3 19 3 19 16.5 c 128,-1,39
 19 30 19 30 25 36 c 1,40,41
 65 36 65 36 83.5 47.5 c 128,-1,42
 102 59 102 59 102 87 c 2,43,-1
 104 552 l 1,44,-1
 -1 551 l 1,45,46
 -8 571 -8 571 -8 587.5 c 128,-1,47
 -8 604 -8 604 -3 610 c 1,48,49
 12 608 12 608 105 608 c 1,50,-1
 105 637 l 2,51,52
 105 665 105 665 84.5 676.5 c 128,-1,53
 64 688 64 688 22 688 c 1,54,55
 19 691 19 691 19 704.5 c 128,-1,56
 19 718 19 718 25 724 c 1,57,58
 63 727 63 727 87.5 733.5 c 128,-1,59
 112 740 112 740 132 760 c 0,60,61
 136 764 136 764 149 764 c 128,-1,62
 162 764 162 764 168 760 c 1,63,-1
 171 608 l 1,64,65
 299 608 299 608 318 610 c 1,66,67
 323 593 323 593 323 575.5 c 128,-1,68
 323 558 323 558 316 551 c 1,69,70
 297 552 297 552 173 552 c 1,71,-1
 176 403 l 1,0,1
EndSplineSet
EndChar

StartChar: itilde
Encoding: 297 297 194
Width: 301
GlyphClass: 2
Flags: W
LayerCount: 2
Fore
SplineSet
164 6 m 1,0,-1
 37 0 l 1,1,2
 34 3 34 3 34 16.5 c 128,-1,3
 34 30 34 30 40 36 c 1,4,5
 80 36 80 36 98.5 47.5 c 128,-1,6
 117 59 117 59 117 87 c 2,7,-1
 118 358 l 2,8,9
 118 409 118 409 35 409 c 1,10,11
 32 412 32 412 32 425.5 c 128,-1,12
 32 439 32 439 38 445 c 1,13,14
 69 445 69 445 97 452.5 c 128,-1,15
 125 460 125 460 134.5 465.5 c 128,-1,16
 144 471 144 471 150.5 477.5 c 128,-1,17
 157 484 157 484 170 484 c 128,-1,18
 183 484 183 484 189 480 c 1,19,-1
 205 87 l 2,20,21
 206 59 206 59 223.5 47.5 c 128,-1,22
 241 36 241 36 281 36 c 1,23,24
 286 31 286 31 286 16.5 c 128,-1,25
 286 2 286 2 284 0 c 1,26,-1
 164 6 l 1,0,-1
247 603 m 128,-1,28
 215 585 215 585 187 585 c 128,-1,29
 159 585 159 585 116.5 607 c 128,-1,30
 74 629 74 629 57 629 c 0,31,32
 26 629 26 629 -10 593 c 1,33,34
 -25 596 -25 596 -25 626 c 1,35,-1
 -24 632 l 1,36,37
 -9 649 -9 649 24.5 667 c 128,-1,38
 58 685 58 685 87 685 c 128,-1,39
 116 685 116 685 156 663.5 c 128,-1,40
 196 642 196 642 214 642 c 0,41,42
 245 642 245 642 281 678 c 1,43,44
 296 675 296 675 296 646 c 1,45,-1
 295 639 l 1,46,27
 279 621 279 621 247 603 c 128,-1,28
EndSplineSet
EndChar

